<ttFont>
<head>
    <!-- Most of this table will be recalculated by the compiler -->
    <tableVersion value="1.0"/>
    <fontRevision value="1.0"/>
    <checkSumAdjustment value="0x2e9ffae7"/>
    <magicNumber value="0x5f0f3cf5"/>
    <flags value="00000000 00011111"/>
    <unitsPerEm value="2048"/>
    <created value="Mon May 17 19:56:38 2010"/>
    <modified value="Fri Jul  9 07:55:05 2010"/>
    <xMin value="-352"/>
    <yMin value="-492"/>
    <xMax value="1966"/>
    <yMax value="1907"/>
    <macStyle value="00000000 00000000"/>
    <lowestRecPPEM value="8"/>
    <fontDirectionHint value="2"/>
    <indexToLocFormat value="0"/>
    <glyphDataFormat value="0"/>
  </head>
    <TTGlyph name="A" xMin="0" yMin="0" xMax="1245" yMax="1468">
      <contour>
        <pt x="1055" y="0" on="1"/>
        <pt x="895" y="453" on="1"/>
        <pt x="350" y="453" on="1"/>
        <pt x="188" y="0" on="1"/>
        <pt x="0" y="0" on="1"/>
        <pt x="537" y="1468" on="1"/>
        <pt x="707" y="1468" on="1"/>
        <pt x="1245" y="0" on="1"/>
      </contour>
      <contour>
        <pt x="836" y="618" on="1"/>
        <pt x="688" y="1042" on="1"/>
        <pt x="682" y="1060" on="0"/>
        <pt x="665" y="1112" on="0"/>
        <pt x="647" y="1172" on="0"/>
        <pt x="629" y="1237" on="0"/>
        <pt x="621" y="1268" on="1"/>
        <pt x="614" y="1237" on="0"/>
        <pt x="596" y="1171" on="0"/>
        <pt x="578" y="1110" on="0"/>
        <pt x="561" y="1059" on="0"/>
        <pt x="555" y="1042" on="1"/>
        <pt x="410" y="618" on="1"/>
      </contour>
    </TTGlyph>
    <TTGlyph name="AE" xMin="-2" yMin="0" xMax="1622" yMax="1462">
      <contour>
        <pt x="1622" y="0" on="1"/>
        <pt x="862" y="0" on="1"/>
        <pt x="862" y="453" on="1"/>
        <pt x="387" y="453" on="1"/>
        <pt x="184" y="0" on="1"/>
        <pt x="-2" y="0" on="1"/>
        <pt x="653" y="1462" on="1"/>
        <pt x="1622" y="1462" on="1"/>
        <pt x="1622" y="1298" on="1"/>
        <pt x="1049" y="1298" on="1"/>
        <pt x="1049" y="846" on="1"/>
        <pt x="1583" y="846" on="1"/>
        <pt x="1583" y="684" on="1"/>
        <pt x="1049" y="684" on="1"/>
        <pt x="1049" y="164" on="1"/>
        <pt x="1622" y="164" on="1"/>
      </contour>
      <contour>
        <pt x="459" y="618" on="1"/>
        <pt x="862" y="618" on="1"/>
        <pt x="862" y="1298" on="1"/>
        <pt x="754" y="1298" on="1"/>
      </contour>
    </TTGlyph>
    <TTGlyph name="Aacute" xMin="0" yMin="0" xMax="1245" yMax="1907">
      <component glyphName="A" x="0" y="0" flags="0x1204"/>
      <component glyphName="acute" x="141" y="338" flags="0x1004"/>
    </TTGlyph>
    <TTGlyph name="Acircumflex" xMin="0" yMin="0" xMax="1245" yMax="1907">
      <component glyphName="A" x="0" y="0" flags="0x1204"/>
      <component glyphName="circumflex" x="31" y="338" flags="0x1004"/>
    </TTGlyph>
    <TTGlyph name="Adieresis" xMin="0" yMin="0" xMax="1245" yMax="1835">
      <component glyphName="A" x="0" y="0" flags="0x1204"/>
      <component glyphName="dieresis" x="33" y="338" flags="0x1004"/>
    </TTGlyph>
    <TTGlyph name="Agrave" xMin="0" yMin="0" xMax="1245" yMax="1907">
      <component glyphName="A" x="0" y="0" flags="0x1204"/>
      <component glyphName="grave" x="-67" y="338" flags="0x1004"/>
    </TTGlyph>
    <TTGlyph name="Aring" xMin="0" yMin="0" xMax="1245" yMax="1796">
      <component glyphName="A" x="0" y="0" flags="0x1204"/>
      <component glyphName="ring" x="31" y="125" flags="0x1004"/>
    </TTGlyph>
    <TTGlyph name="Atilde" xMin="0" yMin="0" xMax="1245" yMax="1845">
      <component glyphName="A" x="0" y="0" flags="0x1204"/>
      <component glyphName="tilde" x="6" y="338" flags="0x1004"/>
    </TTGlyph>
    <TTGlyph name="B" xMin="199" yMin="0" xMax="1159" yMax="1462">
      <contour>
        <pt x="199" y="1462" on="1"/>
        <pt x="598" y="1462" on="1"/>
        <pt x="726" y="1462" on="0"/>
        <pt x="921" y="1423" on="0"/>
        <pt x="1052" y="1336" on="0"/>
        <pt x="1118" y="1195" on="0"/>
        <pt x="1118" y="1092" on="1"/>
        <pt x="1118" y="1030" on="0"/>
        <pt x="1079" y="922" on="0"/>
        <pt x="1005" y="840" on="0"/>
        <pt x="896" y="785" on="0"/>
        <pt x="827" y="776" on="1"/>
        <pt x="827" y="766" on="1"/>
        <pt x="896" y="754" on="0"/>
        <pt x="1017" y="709" on="0"/>
        <pt x="1107" y="630" on="0"/>
        <pt x="1159" y="510" on="0"/>
        <pt x="1159" y="424" on="1"/>
        <pt x="1159" y="324" on="0"/>
        <pt x="1094" y="167" on="0"/>
        <pt x="971" y="58" on="0"/>
        <pt x="795" y="0" on="0"/>
        <pt x="684" y="0" on="1"/>
        <pt x="199" y="0" on="1"/>
      </contour>
      <contour>
        <pt x="385" y="842" on="1"/>
        <pt x="629" y="842" on="1"/>
        <pt x="713" y="842" on="0"/>
        <pt x="827" y="872" on="0"/>
        <pt x="897" y="931" on="0"/>
        <pt x="928" y="1020" on="0"/>
        <pt x="928" y="1079" on="1"/>
        <pt x="928" y="1199" on="0"/>
        <pt x="774" y="1303" on="0"/>
        <pt x="608" y="1303" on="1"/>
        <pt x="385" y="1303" on="1"/>
      </contour>
      <contour>
        <pt x="385" y="686" on="1"/>
        <pt x="385" y="158" on="1"/>
        <pt x="651" y="158" on="1"/>
        <pt x="739" y="158" on="0"/>
        <pt x="858" y="198" on="0"/>
        <pt x="931" y="270" on="0"/>
        <pt x="963" y="371" on="0"/>
        <pt x="963" y="432" on="1"/>
        <pt x="963" y="488" on="0"/>
        <pt x="930" y="582" on="0"/>
        <pt x="855" y="649" on="0"/>
        <pt x="731" y="686" on="0"/>
        <pt x="639" y="686" on="1"/>
      </contour>
    </TTGlyph>
    <TTGlyph name="C" xMin="125" yMin="-20" xMax="1176" yMax="1483">
      <contour>
        <pt x="793" y="1319" on="1"/>
        <pt x="686" y="1319" on="0"/>
        <pt x="512" y="1238" on="0"/>
        <pt x="389" y="1086" on="0"/>
        <pt x="322" y="868" on="0"/>
        <pt x="322" y="731" on="1"/>
        <pt x="322" y="590" on="0"/>
        <pt x="381" y="371" on="0"/>
        <pt x="499" y="221" on="0"/>
        <pt x="675" y="143" on="0"/>
        <pt x="793" y="143" on="1"/>
        <pt x="882" y="143" on="0"/>
        <pt x="1042" y="178" on="0"/>
        <pt x="1120" y="201" on="1"/>
        <pt x="1120" y="39" on="1"/>
        <pt x="1081" y="24" on="0"/>
        <pt x="1003" y="1" on="0"/>
        <pt x="918" y="-13" on="0"/>
        <pt x="821" y="-20" on="0"/>
        <pt x="762" y="-20" on="1"/>
        <pt x="598" y="-20" on="0"/>
        <pt x="358" y="88" on="0"/>
        <pt x="201" y="286" on="0"/>
        <pt x="125" y="564" on="0"/>
        <pt x="125" y="733" on="1"/>
        <pt x="125" y="899" on="0"/>
        <pt x="212" y="1175" on="0"/>
        <pt x="381" y="1373" on="0"/>
        <pt x="631" y="1483" on="0"/>
        <pt x="793" y="1483" on="1"/>
        <pt x="901" y="1483" on="0"/>
        <pt x="1097" y="1439" on="0"/>
        <pt x="1176" y="1397" on="1"/>
        <pt x="1098" y="1241" on="1"/>
        <pt x="1035" y="1273" on="0"/>
        <pt x="887" y="1319" on="0"/>
      </contour>
    </TTGlyph>
    <TTGlyph name="Ccedilla" xMin="125" yMin="-492" xMax="1176" yMax="1483">
      <component glyphName="C" x="0" y="0" flags="0x1204"/>
      <component glyphName="cedilla" x="508" y="0" flags="0x1004"/>
    </TTGlyph>
    <TTGlyph name="D" xMin="199" yMin="0" xMax="1276" yMax="1462">
      <contour>
        <pt x="1276" y="745" on="1"/>
        <pt x="1276" y="560" on="0"/>
        <pt x="1180" y="281" on="0"/>
        <pt x="998" y="94" on="0"/>
        <pt x="733" y="0" on="0"/>
        <pt x="565" y="0" on="1"/>
        <pt x="199" y="0" on="1"/>
        <pt x="199" y="1462" on="1"/>
        <pt x="606" y="1462" on="1"/>
        <pt x="759" y="1462" on="0"/>
        <pt x="1007" y="1370" on="0"/>
        <pt x="1181" y="1189" on="0"/>
        <pt x="1276" y="921" on="0"/>
      </contour>
      <contour>
        <pt x="1079" y="739" on="1"/>
        <pt x="1079" y="885" on="0"/>
        <pt x="1013" y="1098" on="0"/>
        <pt x="887" y="1236" on="0"/>
        <pt x="703" y="1303" on="0"/>
        <pt x="586" y="1303" on="1"/>
        <pt x="385" y="1303" on="1"/>
        <pt x="385" y="160" on="1"/>
        <pt x="547" y="160" on="1"/>
        <pt x="811" y="160" on="0"/>
        <pt x="1079" y="452" on="0"/>
      </contour>
    </TTGlyph>
    <TTGlyph name="E" xMin="199" yMin="0" xMax="958" yMax="1462">
      <contour>
        <pt x="958" y="0" on="1"/>
        <pt x="199" y="0" on="1"/>
        <pt x="199" y="1462" on="1"/>
        <pt x="958" y="1462" on="1"/>
        <pt x="958" y="1298" on="1"/>
        <pt x="385" y="1298" on="1"/>
        <pt x="385" y="846" on="1"/>
        <pt x="920" y="846" on="1"/>
        <pt x="920" y="684" on="1"/>
        <pt x="385" y="684" on="1"/>
        <pt x="385" y="164" on="1"/>
        <pt x="958" y="164" on="1"/>
      </contour>
    </TTGlyph>
    <TTGlyph name="Eacute" xMin="199" yMin="0" xMax="958" yMax="1907">
      <component glyphName="E" x="0" y="0" flags="0x1204"/>
      <component glyphName="acute" x="63" y="338" flags="0x1004"/>
    </TTGlyph>
    <TTGlyph name="Ecircumflex" xMin="199" yMin="0" xMax="958" yMax="1907">
      <component glyphName="E" x="0" y="0" flags="0x1204"/>
      <component glyphName="circumflex" x="-15" y="338" flags="0x1004"/>
    </TTGlyph>
    <TTGlyph name="Edieresis" xMin="199" yMin="0" xMax="958" yMax="1835">
      <component glyphName="E" x="0" y="0" flags="0x1204"/>
      <component glyphName="dieresis" x="-11" y="338" flags="0x1004"/>
    </TTGlyph>
    <TTGlyph name="Egrave" xMin="199" yMin="0" xMax="958" yMax="1907">
      <component glyphName="E" x="0" y="0" flags="0x1204"/>
      <component glyphName="grave" x="-73" y="338" flags="0x1004"/>
    </TTGlyph>
    <TTGlyph name="Eth" xMin="47" yMin="0" xMax="1276" yMax="1462">
      <contour>
        <pt x="47" y="805" on="1"/>
        <pt x="199" y="805" on="1"/>
        <pt x="199" y="1462" on="1"/>
        <pt x="606" y="1462" on="1"/>
        <pt x="759" y="1462" on="0"/>
        <pt x="1007" y="1370" on="0"/>
        <pt x="1181" y="1189" on="0"/>
        <pt x="1276" y="921" on="0"/>
        <pt x="1276" y="745" on="1"/>
        <pt x="1276" y="560" on="0"/>
        <pt x="1180" y="281" on="0"/>
        <pt x="998" y="94" on="0"/>
        <pt x="733" y="0" on="0"/>
        <pt x="565" y="0" on="1"/>
        <pt x="199" y="0" on="1"/>
        <pt x="199" y="643" on="1"/>
        <pt x="47" y="643" on="1"/>
      </contour>
      <contour>
        <pt x="1079" y="739" on="1"/>
        <pt x="1079" y="885" on="0"/>
        <pt x="1013" y="1098" on="0"/>
        <pt x="887" y="1236" on="0"/>
        <pt x="703" y="1303" on="0"/>
        <pt x="586" y="1303" on="1"/>
        <pt x="385" y="1303" on="1"/>
        <pt x="385" y="805" on="1"/>
        <pt x="721" y="805" on="1"/>
        <pt x="721" y="643" on="1"/>
        <pt x="385" y="643" on="1"/>
        <pt x="385" y="160" on="1"/>
        <pt x="547" y="160" on="1"/>
        <pt x="811" y="160" on="0"/>
        <pt x="1079" y="452" on="0"/>
      </contour>
    </TTGlyph>
    <TTGlyph name="F" xMin="199" yMin="0" xMax="958" yMax="1462">
      <contour>
        <pt x="385" y="0" on="1"/>
        <pt x="199" y="0" on="1"/>
        <pt x="199" y="1462" on="1"/>
        <pt x="958" y="1462" on="1"/>
        <pt x="958" y="1298" on="1"/>
        <pt x="385" y="1298" on="1"/>
        <pt x="385" y="782" on="1"/>
        <pt x="920" y="782" on="1"/>
        <pt x="920" y="618" on="1"/>
        <pt x="385" y="618" on="1"/>
      </contour>
    </TTGlyph>
    <TTGlyph name="G" xMin="125" yMin="-20" xMax="1266" yMax="1483">
      <contour>
        <pt x="782" y="772" on="1"/>
        <pt x="1266" y="772" on="1"/>
        <pt x="1266" y="55" on="1"/>
        <pt x="1211" y="37" on="0"/>
        <pt x="1099" y="9" on="0"/>
        <pt x="981" y="-10" on="0"/>
        <pt x="851" y="-20" on="0"/>
        <pt x="776" y="-20" on="1"/>
        <pt x="619" y="-20" on="0"/>
        <pt x="377" y="85" on="0"/>
        <pt x="211" y="280" on="0"/>
        <pt x="125" y="559" on="0"/>
        <pt x="125" y="733" on="1"/>
        <pt x="125" y="905" on="0"/>
        <pt x="220" y="1183" on="0"/>
        <pt x="402" y="1378" on="0"/>
        <pt x="669" y="1483" on="0"/>
        <pt x="840" y="1483" on="1"/>
        <pt x="951" y="1483" on="0"/>
        <pt x="1155" y="1439" on="0"/>
        <pt x="1243" y="1397" on="1"/>
        <pt x="1171" y="1235" on="1"/>
        <pt x="1135" y="1252" on="0"/>
        <pt x="1052" y="1282" on="0"/>
        <pt x="964" y="1305" on="0"/>
        <pt x="871" y="1319" on="0"/>
        <pt x="825" y="1319" on="1"/>
        <pt x="703" y="1319" on="0"/>
        <pt x="515" y="1238" on="0"/>
        <pt x="388" y="1086" on="0"/>
        <pt x="322" y="868" on="0"/>
        <pt x="322" y="731" on="1"/>
        <pt x="322" y="601" on="0"/>
        <pt x="377" y="385" on="0"/>
        <pt x="497" y="229" on="0"/>
        <pt x="687" y="143" on="0"/>
        <pt x="821" y="143" on="1"/>
        <pt x="865" y="143" on="0"/>
        <pt x="938" y="148" on="0"/>
        <pt x="1000" y="156" on="0"/>
        <pt x="1055" y="167" on="0"/>
        <pt x="1081" y="172" on="1"/>
        <pt x="1081" y="608" on="1"/>
        <pt x="782" y="608" on="1"/>
      </contour>
    </TTGlyph>
    <TTGlyph name="H" xMin="199" yMin="0" xMax="1237" yMax="1462">
      <contour>
        <pt x="1237" y="0" on="1"/>
        <pt x="1051" y="0" on="1"/>
        <pt x="1051" y="682" on="1"/>
        <pt x="385" y="682" on="1"/>
        <pt x="385" y="0" on="1"/>
        <pt x="199" y="0" on="1"/>
        <pt x="199" y="1462" on="1"/>
        <pt x="385" y="1462" on="1"/>
        <pt x="385" y="846" on="1"/>
        <pt x="1051" y="846" on="1"/>
        <pt x="1051" y="1462" on="1"/>
        <pt x="1237" y="1462" on="1"/>
      </contour>
    </TTGlyph>
    <TTGlyph name="I" xMin="82" yMin="0" xMax="612" yMax="1462">
      <contour>
        <pt x="612" y="0" on="1"/>
        <pt x="82" y="0" on="1"/>
        <pt x="82" y="102" on="1"/>
        <pt x="254" y="143" on="1"/>
        <pt x="254" y="1319" on="1"/>
        <pt x="82" y="1360" on="1"/>
        <pt x="82" y="1462" on="1"/>
        <pt x="612" y="1462" on="1"/>
        <pt x="612" y="1360" on="1"/>
        <pt x="440" y="1319" on="1"/>
        <pt x="440" y="143" on="1"/>
        <pt x="612" y="102" on="1"/>
      </contour>
    </TTGlyph>
    <TTGlyph name="Iacute" xMin="82" yMin="0" xMax="650" yMax="1907">
      <component glyphName="I" x="0" y="0" flags="0x1204"/>
      <component glyphName="acute" x="-136" y="338" flags="0x1004"/>
    </TTGlyph>
    <TTGlyph name="Icircumflex" xMin="17" yMin="0" xMax="681" yMax="1907">
      <component glyphName="I" x="0" y="0" flags="0x1204"/>
      <component glyphName="circumflex" x="-241" y="338" flags="0x1004"/>
    </TTGlyph>
    <TTGlyph name="Idieresis" xMin="64" yMin="0" xMax="631" yMax="1835">
      <component glyphName="I" x="0" y="0" flags="0x1204"/>
      <component glyphName="dieresis" x="-243" y="338" flags="0x1004"/>
    </TTGlyph>
    <TTGlyph name="Igrave" xMin="62" yMin="0" xMax="612" yMax="1907">
      <component glyphName="I" x="0" y="0" flags="0x1204"/>
      <component glyphName="grave" x="-331" y="338" flags="0x1004"/>
    </TTGlyph>
    <TTGlyph name="J" xMin="-184" yMin="-389" xMax="371" yMax="1462">
      <contour>
        <pt x="-29" y="-389" on="1"/>
        <pt x="-80" y="-389" on="0"/>
        <pt x="-156" y="-376" on="0"/>
        <pt x="-184" y="-365" on="1"/>
        <pt x="-184" y="-205" on="1"/>
        <pt x="-150" y="-214" on="0"/>
        <pt x="-72" y="-225" on="0"/>
        <pt x="-27" y="-225" on="1"/>
        <pt x="10" y="-225" on="0"/>
        <pt x="85" y="-206" on="0"/>
        <pt x="146" y="-156" on="0"/>
        <pt x="184" y="-68" on="0"/>
        <pt x="184" y="0" on="1"/>
        <pt x="184" y="1462" on="1"/>
        <pt x="371" y="1462" on="1"/>
        <pt x="371" y="20" on="1"/>
        <pt x="371" y="-85" on="0"/>
        <pt x="312" y="-239" on="0"/>
        <pt x="207" y="-340" on="0"/>
        <pt x="60" y="-389" on="0"/>
      </contour>
    </TTGlyph>
    <TTGlyph name="K" xMin="199" yMin="0" xMax="1186" yMax="1462">
      <contour>
        <pt x="1186" y="0" on="1"/>
        <pt x="975" y="0" on="1"/>
        <pt x="524" y="698" on="1"/>
        <pt x="385" y="584" on="1"/>
        <pt x="385" y="0" on="1"/>
        <pt x="199" y="0" on="1"/>
        <pt x="199" y="1462" on="1"/>
        <pt x="385" y="1462" on="1"/>
        <pt x="385" y="731" on="1"/>
        <pt x="506" y="899" on="1"/>
        <pt x="958" y="1462" on="1"/>
        <pt x="1167" y="1462" on="1"/>
        <pt x="647" y="825" on="1"/>
      </contour>
    </TTGlyph>
    <TTGlyph name="L" xMin="199" yMin="0" xMax="958" yMax="1462">
      <contour>
        <pt x="199" y="0" on="1"/>
        <pt x="199" y="1462" on="1"/>
        <pt x="385" y="1462" on="1"/>
        <pt x="385" y="166" on="1"/>
        <pt x="958" y="166" on="1"/>
        <pt x="958" y="0" on="1"/>
      </contour>
    </TTGlyph>
    <TTGlyph name="M" xMin="199" yMin="0" xMax="1583" yMax="1462">
      <contour>
        <pt x="803" y="0" on="1"/>
        <pt x="360" y="1280" on="1"/>
        <pt x="352" y="1280" on="1"/>
        <pt x="358" y="1206" on="0"/>
        <pt x="362" y="1133" on="1"/>
        <pt x="366" y="1070" on="0"/>
        <pt x="371" y="931" on="0"/>
        <pt x="371" y="874" on="1"/>
        <pt x="371" y="0" on="1"/>
        <pt x="199" y="0" on="1"/>
        <pt x="199" y="1462" on="1"/>
        <pt x="475" y="1462" on="1"/>
        <pt x="887" y="270" on="1"/>
        <pt x="893" y="270" on="1"/>
        <pt x="1307" y="1462" on="1"/>
        <pt x="1583" y="1462" on="1"/>
        <pt x="1583" y="0" on="1"/>
        <pt x="1397" y="0" on="1"/>
        <pt x="1397" y="887" on="1"/>
        <pt x="1397" y="939" on="0"/>
        <pt x="1401" y="1073" on="0"/>
        <pt x="1404" y="1134" on="1"/>
        <pt x="1408" y="1205" on="0"/>
        <pt x="1411" y="1278" on="1"/>
        <pt x="1403" y="1278" on="1"/>
        <pt x="956" y="0" on="1"/>
      </contour>
    </TTGlyph>
    <TTGlyph name="N" xMin="199" yMin="0" xMax="1294" yMax="1462">
      <contour>
        <pt x="1294" y="0" on="1"/>
        <pt x="1079" y="0" on="1"/>
        <pt x="360" y="1210" on="1"/>
        <pt x="352" y="1210" on="1"/>
        <pt x="358" y="1133" on="0"/>
        <pt x="362" y="1057" on="1"/>
        <pt x="366" y="992" on="0"/>
        <pt x="371" y="850" on="0"/>
        <pt x="371" y="793" on="1"/>
        <pt x="371" y="0" on="1"/>
        <pt x="199" y="0" on="1"/>
        <pt x="199" y="1462" on="1"/>
        <pt x="412" y="1462" on="1"/>
        <pt x="1128" y="258" on="1"/>
        <pt x="1135" y="258" on="1"/>
        <pt x="1132" y="334" on="0"/>
        <pt x="1128" y="408" on="1"/>
        <pt x="1127" y="440" on="0"/>
        <pt x="1124" y="507" on="0"/>
        <pt x="1121" y="574" on="0"/>
        <pt x="1120" y="636" on="0"/>
        <pt x="1120" y="662" on="1"/>
        <pt x="1120" y="1462" on="1"/>
        <pt x="1294" y="1462" on="1"/>
      </contour>
    </TTGlyph>
    <TTGlyph name="Ntilde" xMin="199" yMin="0" xMax="1294" yMax="1845">
      <component glyphName="N" x="0" y="0" flags="0x1204"/>
      <component glyphName="tilde" x="139" y="338" flags="0x1004"/>
    </TTGlyph>
    <TTGlyph name="O" xMin="125" yMin="-20" xMax="1393" yMax="1485">
      <contour>
        <pt x="1393" y="733" on="1"/>
        <pt x="1393" y="564" on="0"/>
        <pt x="1312" y="286" on="0"/>
        <pt x="1152" y="88" on="0"/>
        <pt x="915" y="-20" on="0"/>
        <pt x="760" y="-20" on="1"/>
        <pt x="597" y="-20" on="0"/>
        <pt x="358" y="88" on="0"/>
        <pt x="201" y="286" on="0"/>
        <pt x="125" y="565" on="0"/>
        <pt x="125" y="735" on="1"/>
        <pt x="125" y="905" on="0"/>
        <pt x="201" y="1182" on="0"/>
        <pt x="359" y="1378" on="0"/>
        <pt x="599" y="1485" on="0"/>
        <pt x="762" y="1485" on="1"/>
        <pt x="917" y="1485" on="0"/>
        <pt x="1152" y="1378" on="0"/>
        <pt x="1312" y="1181" on="0"/>
        <pt x="1393" y="904" on="0"/>
      </contour>
      <contour>
        <pt x="322" y="733" on="1"/>
        <pt x="322" y="596" on="0"/>
        <pt x="374" y="377" on="0"/>
        <pt x="481" y="224" on="0"/>
        <pt x="646" y="143" on="0"/>
        <pt x="760" y="143" on="1"/>
        <pt x="874" y="143" on="0"/>
        <pt x="1039" y="224" on="0"/>
        <pt x="1146" y="377" on="0"/>
        <pt x="1196" y="596" on="0"/>
        <pt x="1196" y="733" on="1"/>
        <pt x="1196" y="871" on="0"/>
        <pt x="1146" y="1089" on="0"/>
        <pt x="1040" y="1240" on="0"/>
        <pt x="876" y="1321" on="0"/>
        <pt x="762" y="1321" on="1"/>
        <pt x="648" y="1321" on="0"/>
        <pt x="482" y="1240" on="0"/>
        <pt x="374" y="1089" on="0"/>
        <pt x="322" y="871" on="0"/>
      </contour>
    </TTGlyph>
    <TTGlyph name="Oacute" xMin="125" yMin="-20" xMax="1393" yMax="1907">
      <component glyphName="O" x="0" y="0" flags="0x1204"/>
      <component glyphName="acute" x="258" y="338" flags="0x1004"/>
    </TTGlyph>
    <TTGlyph name="Ocircumflex" xMin="125" yMin="-20" xMax="1393" yMax="1907">
      <component glyphName="O" x="0" y="0" flags="0x1204"/>
      <component glyphName="circumflex" x="174" y="338" flags="0x1004"/>
    </TTGlyph>
    <TTGlyph name="Odieresis" xMin="125" yMin="-20" xMax="1393" yMax="1835">
      <component glyphName="O" x="0" y="0" flags="0x1204"/>
      <component glyphName="dieresis" x="170" y="338" flags="0x1004"/>
    </TTGlyph>
    <TTGlyph name="Ograve" xMin="125" yMin="-20" xMax="1393" yMax="1907">
      <component glyphName="O" x="0" y="0" flags="0x1204"/>
      <component glyphName="grave" x="84" y="338" flags="0x1004"/>
    </TTGlyph>
    <TTGlyph name="Oslash" xMin="125" yMin="-76" xMax="1393" yMax="1532">
      <contour>
        <pt x="1300" y="1454" on="1"/>
        <pt x="1208" y="1305" on="1"/>
        <pt x="1299" y="1206" on="0"/>
        <pt x="1393" y="916" on="0"/>
        <pt x="1393" y="733" on="1"/>
        <pt x="1393" y="564" on="0"/>
        <pt x="1312" y="286" on="0"/>
        <pt x="1152" y="88" on="0"/>
        <pt x="915" y="-20" on="0"/>
        <pt x="760" y="-20" on="1"/>
        <pt x="571" y="-20" on="0"/>
        <pt x="438" y="51" on="1"/>
        <pt x="360" y="-76" on="1"/>
        <pt x="223" y="2" on="1"/>
        <pt x="313" y="147" on="1"/>
        <pt x="216" y="247" on="0"/>
        <pt x="125" y="545" on="0"/>
        <pt x="125" y="735" on="1"/>
        <pt x="125" y="905" on="0"/>
        <pt x="201" y="1182" on="0"/>
        <pt x="359" y="1378" on="0"/>
        <pt x="599" y="1485" on="0"/>
        <pt x="762" y="1485" on="1"/>
        <pt x="856" y="1485" on="0"/>
        <pt x="1017" y="1443" on="0"/>
        <pt x="1083" y="1405" on="1"/>
        <pt x="1163" y="1532" on="1"/>
      </contour>
      <contour>
        <pt x="322" y="733" on="1"/>
        <pt x="322" y="602" on="0"/>
        <pt x="368" y="393" on="0"/>
        <pt x="416" y="315" on="1"/>
        <pt x="995" y="1260" on="1"/>
        <pt x="947" y="1289" on="0"/>
        <pt x="833" y="1321" on="0"/>
        <pt x="762" y="1321" on="1"/>
        <pt x="648" y="1321" on="0"/>
        <pt x="482" y="1240" on="0"/>
        <pt x="374" y="1089" on="0"/>
        <pt x="322" y="871" on="0"/>
      </contour>
      <contour>
        <pt x="1196" y="733" on="1"/>
        <pt x="1196" y="990" on="0"/>
        <pt x="1108" y="1141" on="1"/>
        <pt x="530" y="201" on="1"/>
        <pt x="577" y="173" on="0"/>
        <pt x="691" y="143" on="0"/>
        <pt x="760" y="143" on="1"/>
        <pt x="874" y="143" on="0"/>
        <pt x="1039" y="224" on="0"/>
        <pt x="1146" y="377" on="0"/>
        <pt x="1196" y="596" on="0"/>
      </contour>
    </TTGlyph>
    <TTGlyph name="Otilde" xMin="125" yMin="-20" xMax="1393" yMax="1845">
      <component glyphName="O" x="0" y="0" flags="0x1204"/>
      <component glyphName="tilde" x="125" y="338" flags="0x1004"/>
    </TTGlyph>
    <TTGlyph name="P" xMin="199" yMin="0" xMax="1075" yMax="1462">
      <contour>
        <pt x="1075" y="1034" on="1"/>
        <pt x="1075" y="943" on="0"/>
        <pt x="1020" y="775" on="0"/>
        <pt x="894" y="646" on="0"/>
        <pt x="687" y="569" on="0"/>
        <pt x="535" y="569" on="1"/>
        <pt x="385" y="569" on="1"/>
        <pt x="385" y="0" on="1"/>
        <pt x="199" y="0" on="1"/>
        <pt x="199" y="1462" on="1"/>
        <pt x="561" y="1462" on="1"/>
        <pt x="695" y="1462" on="0"/>
        <pt x="889" y="1405" on="0"/>
        <pt x="1015" y="1296" on="0"/>
        <pt x="1075" y="1136" on="0"/>
      </contour>
      <contour>
        <pt x="385" y="727" on="1"/>
        <pt x="514" y="727" on="1"/>
        <pt x="607" y="727" on="0"/>
        <pt x="746" y="759" on="0"/>
        <pt x="837" y="830" on="0"/>
        <pt x="883" y="943" on="0"/>
        <pt x="883" y="1024" on="1"/>
        <pt x="883" y="1166" on="0"/>
        <pt x="719" y="1303" on="0"/>
        <pt x="545" y="1303" on="1"/>
        <pt x="385" y="1303" on="1"/>
      </contour>
    </TTGlyph>
    <TTGlyph name="Q" xMin="125" yMin="-414" xMax="1393" yMax="1485">
      <contour>
        <pt x="1393" y="733" on="1"/>
        <pt x="1393" y="602" on="0"/>
        <pt x="1344" y="376" on="0"/>
        <pt x="1249" y="195" on="0"/>
        <pt x="1107" y="63" on="0"/>
        <pt x="1014" y="25" on="1"/>
        <pt x="1057" y="-69" on="0"/>
        <pt x="1194" y="-212" on="0"/>
        <pt x="1284" y="-272" on="1"/>
        <pt x="1163" y="-414" on="1"/>
        <pt x="1060" y="-341" on="0"/>
        <pt x="887" y="-143" on="0"/>
        <pt x="836" y="-16" on="1"/>
        <pt x="819" y="-18" on="0"/>
        <pt x="778" y="-20" on="0"/>
        <pt x="760" y="-20" on="1"/>
        <pt x="597" y="-20" on="0"/>
        <pt x="358" y="88" on="0"/>
        <pt x="201" y="286" on="0"/>
        <pt x="125" y="565" on="0"/>
        <pt x="125" y="735" on="1"/>
        <pt x="125" y="905" on="0"/>
        <pt x="201" y="1182" on="0"/>
        <pt x="359" y="1378" on="0"/>
        <pt x="599" y="1485" on="0"/>
        <pt x="762" y="1485" on="1"/>
        <pt x="917" y="1485" on="0"/>
        <pt x="1152" y="1378" on="0"/>
        <pt x="1312" y="1181" on="0"/>
        <pt x="1393" y="904" on="0"/>
      </contour>
      <contour>
        <pt x="322" y="733" on="1"/>
        <pt x="322" y="596" on="0"/>
        <pt x="374" y="377" on="0"/>
        <pt x="481" y="224" on="0"/>
        <pt x="646" y="143" on="0"/>
        <pt x="760" y="143" on="1"/>
        <pt x="874" y="143" on="0"/>
        <pt x="1039" y="224" on="0"/>
        <pt x="1146" y="377" on="0"/>
        <pt x="1196" y="596" on="0"/>
        <pt x="1196" y="733" on="1"/>
        <pt x="1196" y="871" on="0"/>
        <pt x="1146" y="1089" on="0"/>
        <pt x="1040" y="1240" on="0"/>
        <pt x="876" y="1321" on="0"/>
        <pt x="762" y="1321" on="1"/>
        <pt x="648" y="1321" on="0"/>
        <pt x="482" y="1240" on="0"/>
        <pt x="374" y="1089" on="0"/>
        <pt x="322" y="871" on="0"/>
      </contour>
    </TTGlyph>
    <TTGlyph name="R" xMin="199" yMin="0" xMax="1184" yMax="1462">
      <contour>
        <pt x="385" y="604" on="1"/>
        <pt x="385" y="0" on="1"/>
        <pt x="199" y="0" on="1"/>
        <pt x="199" y="1462" on="1"/>
        <pt x="555" y="1462" on="1"/>
        <pt x="821" y="1462" on="0"/>
        <pt x="1075" y="1256" on="0"/>
        <pt x="1075" y="1047" on="1"/>
        <pt x="1075" y="960" on="0"/>
        <pt x="1026" y="830" on="0"/>
        <pt x="945" y="737" on="0"/>
        <pt x="841" y="675" on="0"/>
        <pt x="786" y="655" on="1"/>
        <pt x="1184" y="0" on="1"/>
        <pt x="965" y="0" on="1"/>
        <pt x="614" y="604" on="1"/>
      </contour>
      <contour>
        <pt x="385" y="762" on="1"/>
        <pt x="549" y="762" on="1"/>
        <pt x="639" y="762" on="0"/>
        <pt x="765" y="797" on="0"/>
        <pt x="846" y="866" on="0"/>
        <pt x="883" y="969" on="0"/>
        <pt x="883" y="1038" on="1"/>
        <pt x="883" y="1110" on="0"/>
        <pt x="842" y="1210" on="0"/>
        <pt x="759" y="1274" on="0"/>
        <pt x="632" y="1303" on="0"/>
        <pt x="545" y="1303" on="1"/>
        <pt x="385" y="1303" on="1"/>
      </contour>
    </TTGlyph>
    <TTGlyph name="S" xMin="104" yMin="-20" xMax="969" yMax="1483">
      <contour>
        <pt x="969" y="391" on="1"/>
        <pt x="969" y="294" on="0"/>
        <pt x="900" y="141" on="0"/>
        <pt x="772" y="35" on="0"/>
        <pt x="588" y="-20" on="0"/>
        <pt x="473" y="-20" on="1"/>
        <pt x="362" y="-20" on="0"/>
        <pt x="169" y="15" on="0"/>
        <pt x="104" y="49" on="1"/>
        <pt x="104" y="227" on="1"/>
        <pt x="138" y="211" on="0"/>
        <pt x="225" y="180" on="0"/>
        <pt x="321" y="156" on="0"/>
        <pt x="423" y="141" on="0"/>
        <pt x="473" y="141" on="1"/>
        <pt x="633" y="141" on="0"/>
        <pt x="786" y="261" on="0"/>
        <pt x="786" y="373" on="1"/>
        <pt x="786" y="427" on="0"/>
        <pt x="757" y="507" on="0"/>
        <pt x="684" y="574" on="0"/>
        <pt x="562" y="637" on="0"/>
        <pt x="469" y="674" on="1"/>
        <pt x="380" y="709" on="0"/>
        <pt x="249" y="792" on="0"/>
        <pt x="164" y="896" on="0"/>
        <pt x="123" y="1028" on="0"/>
        <pt x="123" y="1112" on="1"/>
        <pt x="123" y="1200" on="0"/>
        <pt x="187" y="1338" on="0"/>
        <pt x="303" y="1433" on="0"/>
        <pt x="464" y="1483" on="0"/>
        <pt x="561" y="1483" on="1"/>
        <pt x="680" y="1483" on="0"/>
        <pt x="870" y="1438" on="0"/>
        <pt x="944" y="1403" on="1"/>
        <pt x="877" y="1247" on="1"/>
        <pt x="812" y="1276" on="0"/>
        <pt x="647" y="1319" on="0"/>
        <pt x="559" y="1319" on="1"/>
        <pt x="437" y="1319" on="0"/>
        <pt x="303" y="1206" on="0"/>
        <pt x="303" y="1110" on="1"/>
        <pt x="303" y="1053" on="0"/>
        <pt x="333" y="970" on="0"/>
        <pt x="403" y="903" on="0"/>
        <pt x="518" y="844" on="0"/>
        <pt x="602" y="811" on="1"/>
        <pt x="693" y="775" on="0"/>
        <pt x="830" y="699" on="0"/>
        <pt x="922" y="603" on="0"/>
        <pt x="969" y="477" on="0"/>
      </contour>
    </TTGlyph>
    <TTGlyph name="T" xMin="20" yMin="0" xMax="1042" yMax="1462">
      <contour>
        <pt x="625" y="0" on="1"/>
        <pt x="438" y="0" on="1"/>
        <pt x="438" y="1298" on="1"/>
        <pt x="20" y="1298" on="1"/>
        <pt x="20" y="1462" on="1"/>
        <pt x="1042" y="1462" on="1"/>
        <pt x="1042" y="1298" on="1"/>
        <pt x="625" y="1298" on="1"/>
      </contour>
    </TTGlyph>
    <TTGlyph name="Thorn" xMin="199" yMin="0" xMax="1075" yMax="1462">
      <contour>
        <pt x="1075" y="782" on="1"/>
        <pt x="1075" y="691" on="0"/>
        <pt x="1020" y="523" on="0"/>
        <pt x="894" y="394" on="0"/>
        <pt x="687" y="317" on="0"/>
        <pt x="535" y="317" on="1"/>
        <pt x="385" y="317" on="1"/>
        <pt x="385" y="0" on="1"/>
        <pt x="199" y="0" on="1"/>
        <pt x="199" y="1462" on="1"/>
        <pt x="385" y="1462" on="1"/>
        <pt x="385" y="1210" on="1"/>
        <pt x="561" y="1210" on="1"/>
        <pt x="695" y="1210" on="0"/>
        <pt x="889" y="1153" on="0"/>
        <pt x="1015" y="1044" on="0"/>
        <pt x="1075" y="884" on="0"/>
      </contour>
      <contour>
        <pt x="385" y="475" on="1"/>
        <pt x="514" y="475" on="1"/>
        <pt x="607" y="475" on="0"/>
        <pt x="746" y="507" on="0"/>
        <pt x="837" y="578" on="0"/>
        <pt x="883" y="691" on="0"/>
        <pt x="883" y="772" on="1"/>
        <pt x="883" y="915" on="0"/>
        <pt x="719" y="1051" on="0"/>
        <pt x="545" y="1051" on="1"/>
        <pt x="385" y="1051" on="1"/>
      </contour>
    </TTGlyph>
    <TTGlyph name="U" xMin="184" yMin="-20" xMax="1245" yMax="1464">
      <contour>
        <pt x="1245" y="1464" on="1"/>
        <pt x="1245" y="516" on="1"/>
        <pt x="1245" y="402" on="0"/>
        <pt x="1179" y="206" on="0"/>
        <pt x="1046" y="62" on="0"/>
        <pt x="845" y="-20" on="0"/>
        <pt x="709" y="-20" on="1"/>
        <pt x="581" y="-20" on="0"/>
        <pt x="385" y="57" on="0"/>
        <pt x="252" y="199" on="0"/>
        <pt x="184" y="398" on="0"/>
        <pt x="184" y="520" on="1"/>
        <pt x="184" y="1462" on="1"/>
        <pt x="371" y="1462" on="1"/>
        <pt x="371" y="510" on="1"/>
        <pt x="371" y="335" on="0"/>
        <pt x="544" y="143" on="0"/>
        <pt x="719" y="143" on="1"/>
        <pt x="808" y="143" on="0"/>
        <pt x="936" y="197" on="0"/>
        <pt x="1018" y="295" on="0"/>
        <pt x="1058" y="431" on="0"/>
        <pt x="1059" y="512" on="1"/>
        <pt x="1059" y="1464" on="1"/>
      </contour>
    </TTGlyph>
    <TTGlyph name="Uacute" xMin="184" yMin="-20" xMax="1245" yMax="1907">
      <component glyphName="U" x="0" y="0" flags="0x1204"/>
      <component glyphName="acute" x="197" y="338" flags="0x1004"/>
    </TTGlyph>
    <TTGlyph name="Ucircumflex" xMin="184" yMin="-20" xMax="1245" yMax="1907">
      <component glyphName="U" x="0" y="0" flags="0x1204"/>
      <component glyphName="circumflex" x="121" y="338" flags="0x1004"/>
    </TTGlyph>
    <TTGlyph name="Udieresis" xMin="184" yMin="-20" xMax="1245" yMax="1835">
      <component glyphName="U" x="0" y="0" flags="0x1204"/>
      <component glyphName="dieresis" x="125" y="338" flags="0x1004"/>
    </TTGlyph>
    <TTGlyph name="Ugrave" xMin="184" yMin="-20" xMax="1245" yMax="1907">
      <component glyphName="U" x="0" y="0" flags="0x1204"/>
      <component glyphName="grave" x="61" y="338" flags="0x1004"/>
    </TTGlyph>
    <TTGlyph name="V" xMin="0" yMin="0" xMax="1163" yMax="1462">
      <contour>
        <pt x="965" y="1462" on="1"/>
        <pt x="1163" y="1462" on="1"/>
        <pt x="674" y="0" on="1"/>
        <pt x="487" y="0" on="1"/>
        <pt x="0" y="1462" on="1"/>
        <pt x="197" y="1462" on="1"/>
        <pt x="492" y="535" on="1"/>
        <pt x="521" y="444" on="0"/>
        <pt x="563" y="275" on="0"/>
        <pt x="580" y="201" on="1"/>
        <pt x="595" y="275" on="0"/>
        <pt x="641" y="444" on="0"/>
        <pt x="672" y="541" on="1"/>
      </contour>
    </TTGlyph>
    <TTGlyph name="W" xMin="20" yMin="0" xMax="1790" yMax="1462">
      <contour>
        <pt x="809" y="1462" on="1"/>
        <pt x="1006" y="1462" on="1"/>
        <pt x="1235" y="606" on="1"/>
        <pt x="1250" y="550" on="0"/>
        <pt x="1279" y="438" on="0"/>
        <pt x="1304" y="333" on="0"/>
        <pt x="1323" y="239" on="0"/>
        <pt x="1329" y="201" on="1"/>
        <pt x="1333" y="239" on="0"/>
        <pt x="1345" y="329" on="0"/>
        <pt x="1361" y="428" on="0"/>
        <pt x="1380" y="531" on="0"/>
        <pt x="1391" y="580" on="1"/>
        <pt x="1591" y="1462" on="1"/>
        <pt x="1790" y="1462" on="1"/>
        <pt x="1423" y="0" on="1"/>
        <pt x="1235" y="0" on="1"/>
        <pt x="981" y="938" on="1"/>
        <pt x="967" y="989" on="0"/>
        <pt x="941" y="1097" on="0"/>
        <pt x="930" y="1144" on="1"/>
        <pt x="918" y="1199" on="0"/>
        <pt x="907" y="1251" on="1"/>
        <pt x="896" y="1200" on="0"/>
        <pt x="885" y="1145" on="1"/>
        <pt x="875" y="1098" on="0"/>
        <pt x="850" y="986" on="0"/>
        <pt x="836" y="932" on="1"/>
        <pt x="594" y="0" on="1"/>
        <pt x="406" y="0" on="1"/>
        <pt x="20" y="1462" on="1"/>
        <pt x="217" y="1462" on="1"/>
        <pt x="440" y="573" on="1"/>
        <pt x="452" y="527" on="0"/>
        <pt x="472" y="428" on="0"/>
        <pt x="489" y="330" on="0"/>
        <pt x="503" y="239" on="0"/>
        <pt x="508" y="201" on="1"/>
        <pt x="513" y="238" on="0"/>
        <pt x="528" y="336" on="0"/>
        <pt x="548" y="444" on="0"/>
        <pt x="571" y="555" on="0"/>
        <pt x="584" y="604" on="1"/>
      </contour>
    </TTGlyph>
    <TTGlyph name="X" xMin="0" yMin="0" xMax="1120" yMax="1462">
      <contour>
        <pt x="1120" y="0" on="1"/>
        <pt x="909" y="0" on="1"/>
        <pt x="555" y="635" on="1"/>
        <pt x="188" y="0" on="1"/>
        <pt x="0" y="0" on="1"/>
        <pt x="453" y="764" on="1"/>
        <pt x="31" y="1462" on="1"/>
        <pt x="229" y="1462" on="1"/>
        <pt x="561" y="903" on="1"/>
        <pt x="895" y="1462" on="1"/>
        <pt x="1085" y="1462" on="1"/>
        <pt x="664" y="770" on="1"/>
      </contour>
    </TTGlyph>
    <TTGlyph name="Y" xMin="0" yMin="0" xMax="1079" yMax="1462">
      <contour>
        <pt x="539" y="723" on="1"/>
        <pt x="879" y="1462" on="1"/>
        <pt x="1079" y="1462" on="1"/>
        <pt x="633" y="569" on="1"/>
        <pt x="633" y="0" on="1"/>
        <pt x="446" y="0" on="1"/>
        <pt x="446" y="559" on="1"/>
        <pt x="0" y="1462" on="1"/>
        <pt x="203" y="1462" on="1"/>
      </contour>
    </TTGlyph>
    <TTGlyph name="Yacute" xMin="0" yMin="0" xMax="1079" yMax="1907">
      <component glyphName="Y" x="0" y="0" flags="0x1204"/>
      <component glyphName="acute" x="49" y="338" flags="0x1004"/>
    </TTGlyph>
    <TTGlyph name="Z" xMin="82" yMin="0" xMax="1022" yMax="1462">
      <contour>
        <pt x="1022" y="0" on="1"/>
        <pt x="82" y="0" on="1"/>
        <pt x="82" y="145" on="1"/>
        <pt x="793" y="1296" on="1"/>
        <pt x="102" y="1296" on="1"/>
        <pt x="102" y="1462" on="1"/>
        <pt x="1001" y="1462" on="1"/>
        <pt x="1001" y="1317" on="1"/>
        <pt x="291" y="166" on="1"/>
        <pt x="1022" y="166" on="1"/>
      </contour>
    </TTGlyph>
    <TTGlyph name="a" xMin="94" yMin="-20" xMax="924" yMax="1118">
      <contour>
        <pt x="793" y="0" on="1"/>
        <pt x="756" y="152" on="1"/>
        <pt x="748" y="152" on="1"/>
        <pt x="715" y="107" on="0"/>
        <pt x="649" y="42" on="0"/>
        <pt x="571" y="0" on="0"/>
        <pt x="475" y="-20" on="0"/>
        <pt x="412" y="-20" on="1"/>
        <pt x="343" y="-20" on="0"/>
        <pt x="227" y="19" on="0"/>
        <pt x="142" y="100" on="0"/>
        <pt x="94" y="223" on="0"/>
        <pt x="94" y="307" on="1"/>
        <pt x="94" y="471" on="0"/>
        <pt x="325" y="647" on="0"/>
        <pt x="561" y="655" on="1"/>
        <pt x="745" y="662" on="1"/>
        <pt x="745" y="731" on="1"/>
        <pt x="745" y="798" on="0"/>
        <pt x="716" y="888" on="0"/>
        <pt x="661" y="943" on="0"/>
        <pt x="580" y="967" on="0"/>
        <pt x="528" y="967" on="1"/>
        <pt x="445" y="967" on="0"/>
        <pt x="302" y="919" on="0"/>
        <pt x="236" y="885" on="1"/>
        <pt x="172" y="1022" on="1"/>
        <pt x="246" y="1062" on="0"/>
        <pt x="428" y="1118" on="0"/>
        <pt x="528" y="1118" on="1"/>
        <pt x="630" y="1118" on="0"/>
        <pt x="779" y="1077" on="0"/>
        <pt x="876" y="988" on="0"/>
        <pt x="924" y="850" on="0"/>
        <pt x="924" y="752" on="1"/>
        <pt x="924" y="0" on="1"/>
      </contour>
      <contour>
        <pt x="459" y="127" on="1"/>
        <pt x="520" y="127" on="0"/>
        <pt x="624" y="165" on="0"/>
        <pt x="700" y="242" on="0"/>
        <pt x="743" y="359" on="0"/>
        <pt x="743" y="438" on="1"/>
        <pt x="743" y="537" on="1"/>
        <pt x="600" y="530" on="1"/>
        <pt x="510" y="526" on="0"/>
        <pt x="388" y="494" on="0"/>
        <pt x="315" y="437" on="0"/>
        <pt x="283" y="356" on="0"/>
        <pt x="283" y="305" on="1"/>
        <pt x="283" y="213" on="0"/>
        <pt x="380" y="127" on="0"/>
      </contour>
    </TTGlyph>
    <TTGlyph name="aacute" xMin="94" yMin="-20" xMax="924" yMax="1569">
      <component glyphName="a" x="0" y="0" flags="0x1204"/>
      <component glyphName="acute" x="53" y="0" flags="0x1004"/>
    </TTGlyph>
    <TTGlyph name="acircumflex" xMin="94" yMin="-20" xMax="924" yMax="1569">
      <component glyphName="a" x="0" y="0" flags="0x1204"/>
      <component glyphName="circumflex" x="-30" y="0" flags="0x1004"/>
    </TTGlyph>
    <TTGlyph name="acute" xMin="393" yMin="1241" xMax="786" yMax="1569">
      <contour>
        <pt x="393" y="1268" on="1"/>
        <pt x="415" y="1297" on="0"/>
        <pt x="462" y="1373" on="0"/>
        <pt x="509" y="1454" on="0"/>
        <pt x="551" y="1535" on="0"/>
        <pt x="567" y="1569" on="1"/>
        <pt x="786" y="1569" on="1"/>
        <pt x="786" y="1548" on="1"/>
        <pt x="770" y="1521" on="0"/>
        <pt x="707" y="1440" on="0"/>
        <pt x="630" y="1352" on="0"/>
        <pt x="549" y="1269" on="0"/>
        <pt x="514" y="1241" on="1"/>
        <pt x="393" y="1241" on="1"/>
      </contour>
    </TTGlyph>
    <TTGlyph name="adieresis" xMin="94" yMin="-20" xMax="924" yMax="1497">
      <component glyphName="a" x="0" y="0" flags="0x1204"/>
      <component glyphName="dieresis" x="-34" y="0" flags="0x1004"/>
    </TTGlyph>
    <TTGlyph name="ae" xMin="94" yMin="-20" xMax="1604" yMax="1118">
      <contour>
        <pt x="94" y="307" on="1"/>
        <pt x="94" y="471" on="0"/>
        <pt x="325" y="647" on="0"/>
        <pt x="561" y="655" on="1"/>
        <pt x="745" y="662" on="1"/>
        <pt x="745" y="731" on="1"/>
        <pt x="745" y="798" on="0"/>
        <pt x="716" y="888" on="0"/>
        <pt x="661" y="943" on="0"/>
        <pt x="580" y="967" on="0"/>
        <pt x="528" y="967" on="1"/>
        <pt x="445" y="967" on="0"/>
        <pt x="302" y="919" on="0"/>
        <pt x="236" y="885" on="1"/>
        <pt x="172" y="1022" on="1"/>
        <pt x="246" y="1062" on="0"/>
        <pt x="428" y="1118" on="0"/>
        <pt x="528" y="1118" on="1"/>
        <pt x="659" y="1118" on="0"/>
        <pt x="825" y="1033" on="0"/>
        <pt x="868" y="940" on="1"/>
        <pt x="919" y="1025" on="0"/>
        <pt x="1085" y="1118" on="0"/>
        <pt x="1188" y="1118" on="1"/>
        <pt x="1285" y="1118" on="0"/>
        <pt x="1439" y="1047" on="0"/>
        <pt x="1547" y="918" on="0"/>
        <pt x="1604" y="737" on="0"/>
        <pt x="1604" y="627" on="1"/>
        <pt x="1604" y="514" on="1"/>
        <pt x="932" y="514" on="1"/>
        <pt x="937" y="321" on="0"/>
        <pt x="1084" y="139" on="0"/>
        <pt x="1231" y="139" on="1"/>
        <pt x="1280" y="139" on="0"/>
        <pt x="1365" y="149" on="0"/>
        <pt x="1443" y="168" on="0"/>
        <pt x="1517" y="197" on="0"/>
        <pt x="1554" y="215" on="1"/>
        <pt x="1554" y="53" on="1"/>
        <pt x="1515" y="34" on="0"/>
        <pt x="1440" y="6" on="0"/>
        <pt x="1361" y="-12" on="0"/>
        <pt x="1276" y="-20" on="0"/>
        <pt x="1227" y="-20" on="1"/>
        <pt x="1089" y="-20" on="0"/>
        <pt x="887" y="94" on="0"/>
        <pt x="825" y="209" on="1"/>
        <pt x="791" y="155" on="0"/>
        <pt x="715" y="70" on="0"/>
        <pt x="620" y="11" on="0"/>
        <pt x="504" y="-20" on="0"/>
        <pt x="430" y="-20" on="1"/>
        <pt x="359" y="-20" on="0"/>
        <pt x="236" y="19" on="0"/>
        <pt x="146" y="100" on="0"/>
        <pt x="94" y="223" on="0"/>
      </contour>
      <contour>
        <pt x="283" y="305" on="1"/>
        <pt x="283" y="213" on="0"/>
        <pt x="380" y="127" on="0"/>
        <pt x="459" y="127" on="1"/>
        <pt x="520" y="127" on="0"/>
        <pt x="624" y="165" on="0"/>
        <pt x="700" y="242" on="0"/>
        <pt x="743" y="359" on="0"/>
        <pt x="743" y="438" on="1"/>
        <pt x="743" y="537" on="1"/>
        <pt x="600" y="530" on="1"/>
        <pt x="510" y="526" on="0"/>
        <pt x="388" y="494" on="0"/>
        <pt x="315" y="437" on="0"/>
        <pt x="283" y="356" on="0"/>
      </contour>
      <contour>
        <pt x="1184" y="967" on="1"/>
        <pt x="1074" y="967" on="0"/>
        <pt x="947" y="811" on="0"/>
        <pt x="936" y="662" on="1"/>
        <pt x="1407" y="662" on="1"/>
        <pt x="1407" y="730" on="0"/>
        <pt x="1381" y="843" on="0"/>
        <pt x="1326" y="923" on="0"/>
        <pt x="1242" y="967" on="0"/>
      </contour>
    </TTGlyph>
    <TTGlyph name="agrave" xMin="94" yMin="-20" xMax="924" yMax="1569">
      <component glyphName="a" x="0" y="0" flags="0x1204"/>
      <component glyphName="grave" x="-108" y="0" flags="0x1004"/>
    </TTGlyph>
    <TTGlyph name="ampersand" xMin="109" yMin="-20" xMax="1405" yMax="1485">
      <contour>
        <pt x="422" y="1165" on="1"/>
        <pt x="422" y="1131" on="0"/>
        <pt x="438" y="1066" on="0"/>
        <pt x="471" y="1001" on="0"/>
        <pt x="523" y="934" on="0"/>
        <pt x="559" y="897" on="1"/>
        <pt x="618" y="932" on="0"/>
        <pt x="704" y="994" on="0"/>
        <pt x="760" y="1058" on="0"/>
        <pt x="788" y="1128" on="0"/>
        <pt x="788" y="1169" on="1"/>
        <pt x="788" y="1205" on="0"/>
        <pt x="763" y="1266" on="0"/>
        <pt x="716" y="1310" on="0"/>
        <pt x="650" y="1335" on="0"/>
        <pt x="608" y="1335" on="1"/>
        <pt x="522" y="1335" on="0"/>
        <pt x="422" y="1246" on="0"/>
      </contour>
      <contour>
        <pt x="557" y="141" on="1"/>
        <pt x="615" y="141" on="0"/>
        <pt x="713" y="164" on="0"/>
        <pt x="797" y="204" on="0"/>
        <pt x="869" y="258" on="0"/>
        <pt x="901" y="289" on="1"/>
        <pt x="514" y="696" on="1"/>
        <pt x="462" y="663" on="0"/>
        <pt x="382" y="600" on="0"/>
        <pt x="327" y="528" on="0"/>
        <pt x="299" y="443" on="0"/>
        <pt x="299" y="387" on="1"/>
        <pt x="299" y="333" on="0"/>
        <pt x="334" y="242" on="0"/>
        <pt x="400" y="177" on="0"/>
        <pt x="496" y="141" on="0"/>
      </contour>
      <contour>
        <pt x="109" y="381" on="1"/>
        <pt x="109" y="459" on="0"/>
        <pt x="149" y="581" on="0"/>
        <pt x="226" y="681" on="0"/>
        <pt x="337" y="767" on="0"/>
        <pt x="408" y="809" on="1"/>
        <pt x="377" y="845" on="0"/>
        <pt x="317" y="922" on="0"/>
        <pt x="272" y="1009" on="0"/>
        <pt x="244" y="1108" on="0"/>
        <pt x="244" y="1165" on="1"/>
        <pt x="244" y="1240" on="0"/>
        <pt x="294" y="1359" on="0"/>
        <pt x="388" y="1442" on="0"/>
        <pt x="526" y="1485" on="0"/>
        <pt x="614" y="1485" on="1"/>
        <pt x="697" y="1485" on="0"/>
        <pt x="828" y="1442" on="0"/>
        <pt x="919" y="1359" on="0"/>
        <pt x="967" y="1240" on="0"/>
        <pt x="967" y="1165" on="1"/>
        <pt x="967" y="1101" on="0"/>
        <pt x="917" y="992" on="0"/>
        <pt x="833" y="899" on="0"/>
        <pt x="724" y="820" on="0"/>
        <pt x="664" y="784" on="1"/>
        <pt x="1016" y="412" on="1"/>
        <pt x="1043" y="441" on="0"/>
        <pt x="1086" y="501" on="0"/>
        <pt x="1120" y="569" on="0"/>
        <pt x="1147" y="647" on="0"/>
        <pt x="1157" y="694" on="1"/>
        <pt x="1341" y="694" on="1"/>
        <pt x="1326" y="628" on="0"/>
        <pt x="1285" y="517" on="0"/>
        <pt x="1232" y="419" on="0"/>
        <pt x="1167" y="334" on="0"/>
        <pt x="1128" y="293" on="1"/>
        <pt x="1405" y="0" on="1"/>
        <pt x="1180" y="0" on="1"/>
        <pt x="1012" y="172" on="1"/>
        <pt x="963" y="127" on="0"/>
        <pt x="867" y="56" on="0"/>
        <pt x="759" y="7" on="0"/>
        <pt x="635" y="-20" on="0"/>
        <pt x="557" y="-20" on="1"/>
        <pt x="452" y="-20" on="0"/>
        <pt x="285" y="33" on="0"/>
        <pt x="170" y="136" on="0"/>
        <pt x="109" y="285" on="0"/>
      </contour>
    </TTGlyph>
    <TTGlyph name="aring" xMin="94" yMin="-20" xMax="924" yMax="1671">
      <component glyphName="a" x="0" y="0" flags="0x1204"/>
      <component glyphName="ring" x="-34" y="0" flags="0x1004"/>
    </TTGlyph>
    <TTGlyph name="asciicircum" xMin="41" yMin="549" xMax="1049" yMax="1473">
      <contour>
        <pt x="41" y="549" on="1"/>
        <pt x="500" y="1473" on="1"/>
        <pt x="602" y="1473" on="1"/>
        <pt x="1049" y="549" on="1"/>
        <pt x="888" y="549" on="1"/>
        <pt x="551" y="1284" on="1"/>
        <pt x="202" y="549" on="1"/>
      </contour>
    </TTGlyph>
    <TTGlyph name="asciitilde" xMin="102" yMin="586" xMax="1026" yMax="858">
      <contour>
        <pt x="530" y="651" on="1"/>
        <pt x="493" y="667" on="0"/>
        <pt x="438" y="689" on="0"/>
        <pt x="393" y="702" on="0"/>
        <pt x="352" y="707" on="0"/>
        <pt x="330" y="707" on="1"/>
        <pt x="302" y="707" on="0"/>
        <pt x="242" y="688" on="0"/>
        <pt x="183" y="655" on="0"/>
        <pt x="127" y="611" on="0"/>
        <pt x="102" y="586" on="1"/>
        <pt x="102" y="748" on="1"/>
        <pt x="202" y="856" on="0"/>
        <pt x="350" y="856" on="1"/>
        <pt x="379" y="856" on="0"/>
        <pt x="429" y="851" on="0"/>
        <pt x="484" y="838" on="0"/>
        <pt x="551" y="813" on="0"/>
        <pt x="598" y="793" on="1"/>
        <pt x="635" y="777" on="0"/>
        <pt x="690" y="755" on="0"/>
        <pt x="737" y="742" on="0"/>
        <pt x="777" y="737" on="0"/>
        <pt x="799" y="737" on="1"/>
        <pt x="827" y="737" on="0"/>
        <pt x="887" y="756" on="0"/>
        <pt x="946" y="789" on="0"/>
        <pt x="1002" y="833" on="0"/>
        <pt x="1026" y="858" on="1"/>
        <pt x="1026" y="696" on="1"/>
        <pt x="927" y="588" on="0"/>
        <pt x="778" y="588" on="1"/>
        <pt x="749" y="588" on="0"/>
        <pt x="699" y="593" on="0"/>
        <pt x="644" y="606" on="0"/>
        <pt x="577" y="631" on="0"/>
      </contour>
    </TTGlyph>
    <TTGlyph name="asterisk" xMin="82" yMin="631" xMax="1044" yMax="1556">
      <contour>
        <pt x="664" y="1556" on="1"/>
        <pt x="621" y="1163" on="1"/>
        <pt x="1018" y="1274" on="1"/>
        <pt x="1044" y="1081" on="1"/>
        <pt x="666" y="1053" on="1"/>
        <pt x="911" y="727" on="1"/>
        <pt x="733" y="631" on="1"/>
        <pt x="557" y="989" on="1"/>
        <pt x="399" y="631" on="1"/>
        <pt x="215" y="727" on="1"/>
        <pt x="457" y="1053" on="1"/>
        <pt x="82" y="1081" on="1"/>
        <pt x="111" y="1274" on="1"/>
        <pt x="502" y="1163" on="1"/>
        <pt x="459" y="1556" on="1"/>
      </contour>
    </TTGlyph>
    <TTGlyph name="at" xMin="109" yMin="-182" xMax="1665" yMax="1462">
      <contour>
        <pt x="1665" y="731" on="1"/>
        <pt x="1665" y="669" on="0"/>
        <pt x="1646" y="544" on="0"/>
        <pt x="1609" y="431" on="0"/>
        <pt x="1552" y="334" on="0"/>
        <pt x="1476" y="262" on="0"/>
        <pt x="1379" y="221" on="0"/>
        <pt x="1321" y="221" on="1"/>
        <pt x="1276" y="221" on="0"/>
        <pt x="1203" y="251" on="0"/>
        <pt x="1151" y="301" on="0"/>
        <pt x="1118" y="366" on="0"/>
        <pt x="1112" y="401" on="1"/>
        <pt x="1108" y="401" on="1"/>
        <pt x="1090" y="364" on="0"/>
        <pt x="1036" y="298" on="0"/>
        <pt x="965" y="249" on="0"/>
        <pt x="876" y="221" on="0"/>
        <pt x="823" y="221" on="1"/>
        <pt x="746" y="221" on="0"/>
        <pt x="627" y="277" on="0"/>
        <pt x="545" y="378" on="0"/>
        <pt x="502" y="520" on="0"/>
        <pt x="502" y="606" on="1"/>
        <pt x="502" y="707" on="0"/>
        <pt x="561" y="875" on="0"/>
        <pt x="672" y="997" on="0"/>
        <pt x="830" y="1065" on="0"/>
        <pt x="928" y="1065" on="1"/>
        <pt x="973" y="1065" on="0"/>
        <pt x="1063" y="1057" on="0"/>
        <pt x="1145" y="1043" on="0"/>
        <pt x="1214" y="1026" on="0"/>
        <pt x="1237" y="1018" on="1"/>
        <pt x="1214" y="602" on="1"/>
        <pt x="1213" y="580" on="0"/>
        <pt x="1212" y="553" on="0"/>
        <pt x="1212" y="537" on="0"/>
        <pt x="1212" y="529" on="0"/>
        <pt x="1212" y="526" on="1"/>
        <pt x="1212" y="473" on="0"/>
        <pt x="1233" y="405" on="0"/>
        <pt x="1267" y="365" on="0"/>
        <pt x="1310" y="350" on="0"/>
        <pt x="1333" y="350" on="1"/>
        <pt x="1379" y="350" on="0"/>
        <pt x="1449" y="411" on="0"/>
        <pt x="1496" y="515" on="0"/>
        <pt x="1520" y="655" on="0"/>
        <pt x="1520" y="733" on="1"/>
        <pt x="1520" y="875" on="0"/>
        <pt x="1434" y="1096" on="0"/>
        <pt x="1282" y="1248" on="0"/>
        <pt x="1073" y="1327" on="0"/>
        <pt x="950" y="1327" on="1"/>
        <pt x="781" y="1327" on="0"/>
        <pt x="523" y="1216" on="0"/>
        <pt x="348" y="1017" on="0"/>
        <pt x="258" y="744" on="0"/>
        <pt x="258" y="582" on="1"/>
        <pt x="258" y="431" on="0"/>
        <pt x="337" y="197" on="0"/>
        <pt x="490" y="37" on="0"/>
        <pt x="717" y="-45" on="0"/>
        <pt x="864" y="-45" on="1"/>
        <pt x="925" y="-45" on="0"/>
        <pt x="1044" y="-31" on="0"/>
        <pt x="1155" y="-7" on="0"/>
        <pt x="1255" y="24" on="0"/>
        <pt x="1298" y="41" on="1"/>
        <pt x="1298" y="-100" on="1"/>
        <pt x="1212" y="-138" on="0"/>
        <pt x="996" y="-182" on="0"/>
        <pt x="866" y="-182" on="1"/>
        <pt x="687" y="-182" on="0"/>
        <pt x="406" y="-80" on="0"/>
        <pt x="211" y="115" on="0"/>
        <pt x="109" y="396" on="0"/>
        <pt x="109" y="575" on="1"/>
        <pt x="109" y="763" on="0"/>
        <pt x="227" y="1088" on="0"/>
        <pt x="446" y="1326" on="0"/>
        <pt x="757" y="1462" on="0"/>
        <pt x="950" y="1462" on="1"/>
        <pt x="1106" y="1462" on="0"/>
        <pt x="1368" y="1361" on="0"/>
        <pt x="1559" y="1172" on="0"/>
        <pt x="1665" y="901" on="0"/>
      </contour>
      <contour>
        <pt x="662" y="602" on="1"/>
        <pt x="662" y="469" on="0"/>
        <pt x="763" y="350" on="0"/>
        <pt x="848" y="350" on="1"/>
        <pt x="903" y="350" on="0"/>
        <pt x="981" y="395" on="0"/>
        <pt x="1031" y="478" on="0"/>
        <pt x="1057" y="593" on="0"/>
        <pt x="1061" y="662" on="1"/>
        <pt x="1075" y="915" on="1"/>
        <pt x="1047" y="923" on="0"/>
        <pt x="970" y="936" on="0"/>
        <pt x="928" y="936" on="1"/>
        <pt x="854" y="936" on="0"/>
        <pt x="753" y="878" on="0"/>
        <pt x="690" y="784" on="0"/>
        <pt x="662" y="664" on="0"/>
      </contour>
    </TTGlyph>
    <TTGlyph name="atilde" xMin="94" yMin="-20" xMax="924" yMax="1507">
      <component glyphName="a" x="0" y="0" flags="0x1204"/>
      <component glyphName="tilde" x="-67" y="0" flags="0x1004"/>
    </TTGlyph>
    <TTGlyph name="b" xMin="174" yMin="-20" xMax="1087" yMax="1556">
      <contour>
        <pt x="670" y="1118" on="1"/>
        <pt x="764" y="1118" on="0"/>
        <pt x="918" y="1046" on="0"/>
        <pt x="1027" y="903" on="0"/>
        <pt x="1087" y="691" on="0"/>
        <pt x="1087" y="551" on="1"/>
        <pt x="1087" y="410" on="0"/>
        <pt x="1027" y="197" on="0"/>
        <pt x="918" y="53" on="0"/>
        <pt x="764" y="-20" on="0"/>
        <pt x="670" y="-20" on="1"/>
        <pt x="611" y="-20" on="0"/>
        <pt x="515" y="6" on="0"/>
        <pt x="438" y="49" on="0"/>
        <pt x="379" y="107" on="0"/>
        <pt x="356" y="139" on="1"/>
        <pt x="344" y="139" on="1"/>
        <pt x="307" y="0" on="1"/>
        <pt x="174" y="0" on="1"/>
        <pt x="174" y="1556" on="1"/>
        <pt x="356" y="1556" on="1"/>
        <pt x="356" y="1180" on="1"/>
        <pt x="356" y="1145" on="0"/>
        <pt x="354" y="1066" on="0"/>
        <pt x="352" y="1032" on="1"/>
        <pt x="350" y="992" on="0"/>
        <pt x="348" y="954" on="1"/>
        <pt x="356" y="954" on="1"/>
        <pt x="379" y="989" on="0"/>
        <pt x="437" y="1049" on="0"/>
        <pt x="514" y="1093" on="0"/>
        <pt x="610" y="1118" on="0"/>
      </contour>
      <contour>
        <pt x="635" y="967" on="1"/>
        <pt x="555" y="967" on="0"/>
        <pt x="448" y="916" on="0"/>
        <pt x="383" y="812" on="0"/>
        <pt x="356" y="656" on="0"/>
        <pt x="356" y="551" on="1"/>
        <pt x="356" y="450" on="0"/>
        <pt x="383" y="293" on="0"/>
        <pt x="448" y="186" on="0"/>
        <pt x="556" y="131" on="0"/>
        <pt x="637" y="131" on="1"/>
        <pt x="772" y="131" on="0"/>
        <pt x="899" y="349" on="0"/>
        <pt x="899" y="553" on="1"/>
        <pt x="899" y="761" on="0"/>
        <pt x="772" y="967" on="0"/>
      </contour>
    </TTGlyph>
    <TTGlyph name="backslash" xMin="23" yMin="0" xMax="745" yMax="1462">
      <contour>
        <pt x="201" y="1462" on="1"/>
        <pt x="745" y="0" on="1"/>
        <pt x="567" y="0" on="1"/>
        <pt x="23" y="1462" on="1"/>
      </contour>
    </TTGlyph>
    <TTGlyph name="bar" xMin="489" yMin="-492" xMax="639" yMax="1556">
      <contour>
        <pt x="489" y="1556" on="1"/>
        <pt x="639" y="1556" on="1"/>
        <pt x="639" y="-492" on="1"/>
        <pt x="489" y="-492" on="1"/>
      </contour>
    </TTGlyph>
    <TTGlyph name="braceleft" xMin="61" yMin="-324" xMax="674" yMax="1462">
      <contour>
        <pt x="500" y="-16" on="1"/>
        <pt x="500" y="-64" on="0"/>
        <pt x="524" y="-125" on="0"/>
        <pt x="569" y="-160" on="0"/>
        <pt x="634" y="-173" on="0"/>
        <pt x="674" y="-174" on="1"/>
        <pt x="674" y="-324" on="1"/>
        <pt x="597" y="-323" on="0"/>
        <pt x="466" y="-290" on="0"/>
        <pt x="371" y="-219" on="0"/>
        <pt x="317" y="-109" on="0"/>
        <pt x="317" y="-31" on="1"/>
        <pt x="317" y="303" on="1"/>
        <pt x="317" y="406" on="0"/>
        <pt x="186" y="492" on="0"/>
        <pt x="61" y="492" on="1"/>
        <pt x="61" y="647" on="1"/>
        <pt x="186" y="647" on="0"/>
        <pt x="317" y="733" on="0"/>
        <pt x="317" y="836" on="1"/>
        <pt x="317" y="1169" on="1"/>
        <pt x="317" y="1247" on="0"/>
        <pt x="371" y="1357" on="0"/>
        <pt x="466" y="1428" on="0"/>
        <pt x="597" y="1461" on="0"/>
        <pt x="674" y="1462" on="1"/>
        <pt x="674" y="1313" on="1"/>
        <pt x="634" y="1312" on="0"/>
        <pt x="569" y="1299" on="0"/>
        <pt x="524" y="1264" on="0"/>
        <pt x="500" y="1203" on="0"/>
        <pt x="500" y="1155" on="1"/>
        <pt x="500" y="823" on="1"/>
        <pt x="500" y="718" on="0"/>
        <pt x="381" y="595" on="0"/>
        <pt x="266" y="575" on="1"/>
        <pt x="266" y="563" on="1"/>
        <pt x="381" y="543" on="0"/>
        <pt x="500" y="421" on="0"/>
        <pt x="500" y="315" on="1"/>
      </contour>
    </TTGlyph>
    <TTGlyph name="braceright" xMin="51" yMin="-324" xMax="664" yMax="1462">
      <contour>
        <pt x="225" y="315" on="1"/>
        <pt x="225" y="421" on="0"/>
        <pt x="344" y="543" on="0"/>
        <pt x="459" y="563" on="1"/>
        <pt x="459" y="575" on="1"/>
        <pt x="344" y="595" on="0"/>
        <pt x="225" y="718" on="0"/>
        <pt x="225" y="823" on="1"/>
        <pt x="225" y="1155" on="1"/>
        <pt x="225" y="1203" on="0"/>
        <pt x="201" y="1264" on="0"/>
        <pt x="156" y="1299" on="0"/>
        <pt x="91" y="1312" on="0"/>
        <pt x="51" y="1313" on="1"/>
        <pt x="51" y="1462" on="1"/>
        <pt x="128" y="1461" on="0"/>
        <pt x="259" y="1428" on="0"/>
        <pt x="354" y="1357" on="0"/>
        <pt x="408" y="1247" on="0"/>
        <pt x="408" y="1169" on="1"/>
        <pt x="408" y="836" on="1"/>
        <pt x="408" y="784" on="0"/>
        <pt x="441" y="712" on="0"/>
        <pt x="506" y="667" on="0"/>
        <pt x="602" y="647" on="0"/>
        <pt x="664" y="647" on="1"/>
        <pt x="664" y="492" on="1"/>
        <pt x="539" y="492" on="0"/>
        <pt x="408" y="406" on="0"/>
        <pt x="408" y="303" on="1"/>
        <pt x="408" y="-31" on="1"/>
        <pt x="408" y="-109" on="0"/>
        <pt x="354" y="-219" on="0"/>
        <pt x="259" y="-290" on="0"/>
        <pt x="128" y="-323" on="0"/>
        <pt x="51" y="-324" on="1"/>
        <pt x="51" y="-174" on="1"/>
        <pt x="91" y="-173" on="0"/>
        <pt x="156" y="-160" on="0"/>
        <pt x="201" y="-125" on="0"/>
        <pt x="225" y="-64" on="0"/>
        <pt x="225" y="-16" on="1"/>
      </contour>
    </TTGlyph>
    <TTGlyph name="bracketleft" xMin="164" yMin="-324" xMax="569" yMax="1462">
      <contour>
        <pt x="569" y="-324" on="1"/>
        <pt x="164" y="-324" on="1"/>
        <pt x="164" y="1462" on="1"/>
        <pt x="569" y="1462" on="1"/>
        <pt x="569" y="1313" on="1"/>
        <pt x="346" y="1313" on="1"/>
        <pt x="346" y="-174" on="1"/>
        <pt x="569" y="-174" on="1"/>
      </contour>
    </TTGlyph>
    <TTGlyph name="bracketright" xMin="51" yMin="-324" xMax="457" yMax="1462">
      <contour>
        <pt x="51" y="-174" on="1"/>
        <pt x="274" y="-174" on="1"/>
        <pt x="274" y="1313" on="1"/>
        <pt x="51" y="1313" on="1"/>
        <pt x="51" y="1462" on="1"/>
        <pt x="457" y="1462" on="1"/>
        <pt x="457" y="-324" on="1"/>
        <pt x="51" y="-324" on="1"/>
      </contour>
    </TTGlyph>
    <TTGlyph name="brokenbar" xMin="489" yMin="-492" xMax="639" yMax="1556">
      <contour>
        <pt x="489" y="1556" on="1"/>
        <pt x="639" y="1556" on="1"/>
        <pt x="639" y="776" on="1"/>
        <pt x="489" y="776" on="1"/>
      </contour>
      <contour>
        <pt x="489" y="289" on="1"/>
        <pt x="639" y="289" on="1"/>
        <pt x="639" y="-492" on="1"/>
        <pt x="489" y="-492" on="1"/>
      </contour>
    </TTGlyph>
    <TTGlyph name="bullet" xMin="150" yMin="485" xMax="621" yMax="1010">
      <contour>
        <pt x="150" y="748" on="1"/>
        <pt x="150" y="819" on="0"/>
        <pt x="186" y="919" on="0"/>
        <pt x="249" y="982" on="0"/>
        <pt x="335" y="1010" on="0"/>
        <pt x="385" y="1010" on="1"/>
        <pt x="434" y="1010" on="0"/>
        <pt x="520" y="982" on="0"/>
        <pt x="584" y="919" on="0"/>
        <pt x="621" y="819" on="0"/>
        <pt x="621" y="748" on="1"/>
        <pt x="621" y="678" on="0"/>
        <pt x="584" y="578" on="0"/>
        <pt x="520" y="515" on="0"/>
        <pt x="434" y="485" on="0"/>
        <pt x="385" y="485" on="1"/>
        <pt x="335" y="485" on="0"/>
        <pt x="249" y="515" on="0"/>
        <pt x="186" y="578" on="0"/>
        <pt x="150" y="678" on="0"/>
      </contour>
    </TTGlyph>
    <TTGlyph name="c" xMin="113" yMin="-20" xMax="879" yMax="1118">
      <contour>
        <pt x="594" y="-20" on="1"/>
        <pt x="493" y="-20" on="0"/>
        <pt x="317" y="43" on="0"/>
        <pt x="187" y="180" on="0"/>
        <pt x="113" y="393" on="0"/>
        <pt x="113" y="543" on="1"/>
        <pt x="113" y="700" on="0"/>
        <pt x="189" y="919" on="0"/>
        <pt x="322" y="1056" on="0"/>
        <pt x="500" y="1118" on="0"/>
        <pt x="602" y="1118" on="1"/>
        <pt x="680" y="1118" on="0"/>
        <pt x="829" y="1084" on="0"/>
        <pt x="879" y="1059" on="1"/>
        <pt x="825" y="905" on="1"/>
        <pt x="802" y="915" on="0"/>
        <pt x="746" y="934" on="0"/>
        <pt x="686" y="949" on="0"/>
        <pt x="628" y="958" on="0"/>
        <pt x="602" y="958" on="1"/>
        <pt x="445" y="958" on="0"/>
        <pt x="301" y="757" on="0"/>
        <pt x="301" y="545" on="1"/>
        <pt x="301" y="334" on="0"/>
        <pt x="446" y="139" on="0"/>
        <pt x="594" y="139" on="1"/>
        <pt x="675" y="139" on="0"/>
        <pt x="806" y="176" on="0"/>
        <pt x="860" y="201" on="1"/>
        <pt x="860" y="39" on="1"/>
        <pt x="806" y="10" on="0"/>
        <pt x="683" y="-20" on="0"/>
      </contour>
    </TTGlyph>
    <TTGlyph name="ccedilla" xMin="113" yMin="-492" xMax="879" yMax="1118">
      <component glyphName="c" x="0" y="0" flags="0x1204"/>
      <component glyphName="cedilla" x="322" y="0" flags="0x1004"/>
    </TTGlyph>
    <TTGlyph name="cedilla" xMin="35" yMin="-492" xMax="408" yMax="0">
      <contour>
        <pt x="408" y="-287" on="1"/>
        <pt x="408" y="-384" on="0"/>
        <pt x="267" y="-492" on="0"/>
        <pt x="117" y="-492" on="1"/>
        <pt x="95" y="-492" on="0"/>
        <pt x="50" y="-486" on="0"/>
        <pt x="35" y="-483" on="1"/>
        <pt x="35" y="-375" on="1"/>
        <pt x="50" y="-378" on="0"/>
        <pt x="99" y="-381" on="0"/>
        <pt x="115" y="-381" on="1"/>
        <pt x="186" y="-381" on="0"/>
        <pt x="266" y="-338" on="0"/>
        <pt x="266" y="-289" on="1"/>
        <pt x="266" y="-265" on="0"/>
        <pt x="240" y="-230" on="0"/>
        <pt x="194" y="-204" on="0"/>
        <pt x="131" y="-185" on="0"/>
        <pt x="94" y="-176" on="1"/>
        <pt x="184" y="0" on="1"/>
        <pt x="305" y="0" on="1"/>
        <pt x="248" y="-115" on="1"/>
        <pt x="282" y="-123" on="0"/>
        <pt x="340" y="-149" on="0"/>
        <pt x="383" y="-190" on="0"/>
        <pt x="408" y="-248" on="0"/>
      </contour>
    </TTGlyph>
    <TTGlyph name="cent" xMin="188" yMin="-20" xMax="954" yMax="1483">
      <contour>
        <pt x="886" y="212" on="0"/>
        <pt x="776" y="182" on="0"/>
        <pt x="700" y="180" on="1"/>
        <pt x="700" y="-20" on="1"/>
        <pt x="563" y="-20" on="1"/>
        <pt x="563" y="186" on="1"/>
        <pt x="476" y="199" on="0"/>
        <pt x="338" y="274" on="0"/>
        <pt x="240" y="407" on="0"/>
        <pt x="188" y="606" on="0"/>
        <pt x="188" y="743" on="1"/>
        <pt x="188" y="884" on="0"/>
        <pt x="241" y="1087" on="0"/>
        <pt x="338" y="1223" on="0"/>
        <pt x="477" y="1298" on="0"/>
        <pt x="563" y="1311" on="1"/>
        <pt x="563" y="1483" on="1"/>
        <pt x="700" y="1483" on="1"/>
        <pt x="700" y="1319" on="1"/>
        <pt x="772" y="1316" on="0"/>
        <pt x="908" y="1283" on="0"/>
        <pt x="954" y="1260" on="1"/>
        <pt x="901" y="1106" on="1"/>
        <pt x="878" y="1116" on="0"/>
        <pt x="822" y="1135" on="0"/>
        <pt x="762" y="1150" on="0"/>
        <pt x="703" y="1159" on="0"/>
        <pt x="678" y="1159" on="1"/>
        <pt x="521" y="1159" on="0"/>
        <pt x="377" y="957" on="0"/>
        <pt x="377" y="745" on="1"/>
        <pt x="377" y="535" on="0"/>
        <pt x="522" y="340" on="0"/>
        <pt x="670" y="340" on="1"/>
        <pt x="751" y="340" on="0"/>
        <pt x="882" y="377" on="0"/>
        <pt x="936" y="401" on="1"/>
        <pt x="936" y="240" on="1"/>
      </contour>
    </TTGlyph>
    <TTGlyph name="circumflex" xMin="258" yMin="1241" xMax="922" yMax="1569">
      <contour>
        <pt x="922" y="1241" on="1"/>
        <pt x="801" y="1241" on="1"/>
        <pt x="750" y="1275" on="0"/>
        <pt x="642" y="1372" on="0"/>
        <pt x="590" y="1427" on="1"/>
        <pt x="536" y="1372" on="0"/>
        <pt x="430" y="1275" on="0"/>
        <pt x="379" y="1241" on="1"/>
        <pt x="258" y="1241" on="1"/>
        <pt x="258" y="1268" on="1"/>
        <pt x="284" y="1297" on="0"/>
        <pt x="352" y="1373" on="0"/>
        <pt x="419" y="1454" on="0"/>
        <pt x="478" y="1535" on="0"/>
        <pt x="494" y="1569" on="1"/>
        <pt x="686" y="1569" on="1"/>
        <pt x="702" y="1535" on="0"/>
        <pt x="761" y="1454" on="0"/>
        <pt x="828" y="1373" on="0"/>
        <pt x="897" y="1297" on="0"/>
        <pt x="922" y="1268" on="1"/>
      </contour>
    </TTGlyph>
    <TTGlyph name="colon" xMin="147" yMin="-29" xMax="401" yMax="1126">
      <contour>
        <pt x="147" y="111" on="1"/>
        <pt x="147" y="149" on="0"/>
        <pt x="167" y="202" on="0"/>
        <pt x="201" y="235" on="0"/>
        <pt x="247" y="250" on="0"/>
        <pt x="274" y="250" on="1"/>
        <pt x="300" y="250" on="0"/>
        <pt x="347" y="235" on="0"/>
        <pt x="381" y="202" on="0"/>
        <pt x="401" y="149" on="0"/>
        <pt x="401" y="111" on="1"/>
        <pt x="401" y="74" on="0"/>
        <pt x="381" y="21" on="0"/>
        <pt x="347" y="-13" on="0"/>
        <pt x="300" y="-29" on="0"/>
        <pt x="274" y="-29" on="1"/>
        <pt x="247" y="-29" on="0"/>
        <pt x="201" y="-13" on="0"/>
        <pt x="167" y="21" on="0"/>
        <pt x="147" y="74" on="0"/>
      </contour>
      <contour>
        <pt x="147" y="987" on="1"/>
        <pt x="147" y="1026" on="0"/>
        <pt x="167" y="1079" on="0"/>
        <pt x="201" y="1112" on="0"/>
        <pt x="247" y="1126" on="0"/>
        <pt x="274" y="1126" on="1"/>
        <pt x="300" y="1126" on="0"/>
        <pt x="347" y="1112" on="0"/>
        <pt x="381" y="1079" on="0"/>
        <pt x="401" y="1026" on="0"/>
        <pt x="401" y="987" on="1"/>
        <pt x="401" y="950" on="0"/>
        <pt x="381" y="898" on="0"/>
        <pt x="347" y="864" on="0"/>
        <pt x="300" y="848" on="0"/>
        <pt x="274" y="848" on="1"/>
        <pt x="247" y="848" on="0"/>
        <pt x="201" y="864" on="0"/>
        <pt x="167" y="898" on="0"/>
        <pt x="147" y="950" on="0"/>
      </contour>
    </TTGlyph>
    <TTGlyph name="comma" xMin="63" yMin="-264" xMax="377" yMax="238">
      <contour>
        <pt x="362" y="238" on="1"/>
        <pt x="377" y="215" on="1"/>
        <pt x="363" y="161" on="0"/>
        <pt x="324" y="39" on="0"/>
        <pt x="277" y="-85" on="0"/>
        <pt x="226" y="-208" on="0"/>
        <pt x="201" y="-264" on="1"/>
        <pt x="63" y="-264" on="1"/>
        <pt x="78" y="-203" on="0"/>
        <pt x="107" y="-71" on="0"/>
        <pt x="134" y="60" on="0"/>
        <pt x="156" y="185" on="0"/>
        <pt x="164" y="238" on="1"/>
      </contour>
    </TTGlyph>
    <TTGlyph name="copyright" xMin="100" yMin="-20" xMax="1604" yMax="1483">
      <contour>
        <pt x="891" y="1053" on="1"/>
        <pt x="830" y="1053" on="0"/>
        <pt x="736" y="1009" on="0"/>
        <pt x="672" y="926" on="0"/>
        <pt x="639" y="806" on="0"/>
        <pt x="639" y="731" on="1"/>
        <pt x="639" y="653" on="0"/>
        <pt x="668" y="533" on="0"/>
        <pt x="729" y="451" on="0"/>
        <pt x="824" y="408" on="0"/>
        <pt x="891" y="408" on="1"/>
        <pt x="914" y="408" on="0"/>
        <pt x="968" y="415" on="0"/>
        <pt x="1025" y="427" on="0"/>
        <pt x="1081" y="444" on="0"/>
        <pt x="1106" y="453" on="1"/>
        <pt x="1106" y="322" on="1"/>
        <pt x="1082" y="311" on="0"/>
        <pt x="1033" y="293" on="0"/>
        <pt x="980" y="279" on="0"/>
        <pt x="920" y="272" on="0"/>
        <pt x="885" y="272" on="1"/>
        <pt x="783" y="272" on="0"/>
        <pt x="631" y="338" on="0"/>
        <pt x="530" y="460" on="0"/>
        <pt x="479" y="630" on="0"/>
        <pt x="479" y="733" on="1"/>
        <pt x="479" y="834" on="0"/>
        <pt x="533" y="1001" on="0"/>
        <pt x="638" y="1121" on="0"/>
        <pt x="791" y="1188" on="0"/>
        <pt x="891" y="1188" on="1"/>
        <pt x="954" y="1188" on="0"/>
        <pt x="1086" y="1155" on="0"/>
        <pt x="1145" y="1126" on="1"/>
        <pt x="1083" y="999" on="1"/>
        <pt x="1031" y="1025" on="0"/>
        <pt x="934" y="1053" on="0"/>
      </contour>
      <contour>
        <pt x="100" y="731" on="1"/>
        <pt x="100" y="835" on="0"/>
        <pt x="154" y="1027" on="0"/>
        <pt x="251" y="1194" on="0"/>
        <pt x="389" y="1332" on="0"/>
        <pt x="556" y="1429" on="0"/>
        <pt x="748" y="1483" on="0"/>
        <pt x="852" y="1483" on="1"/>
        <pt x="956" y="1483" on="0"/>
        <pt x="1148" y="1429" on="0"/>
        <pt x="1315" y="1332" on="0"/>
        <pt x="1453" y="1194" on="0"/>
        <pt x="1550" y="1027" on="0"/>
        <pt x="1604" y="835" on="0"/>
        <pt x="1604" y="731" on="1"/>
        <pt x="1604" y="627" on="0"/>
        <pt x="1550" y="435" on="0"/>
        <pt x="1453" y="268" on="0"/>
        <pt x="1315" y="131" on="0"/>
        <pt x="1148" y="33" on="0"/>
        <pt x="956" y="-20" on="0"/>
        <pt x="852" y="-20" on="1"/>
        <pt x="748" y="-20" on="0"/>
        <pt x="556" y="33" on="0"/>
        <pt x="389" y="131" on="0"/>
        <pt x="251" y="268" on="0"/>
        <pt x="154" y="435" on="0"/>
        <pt x="100" y="627" on="0"/>
      </contour>
      <contour>
        <pt x="209" y="731" on="1"/>
        <pt x="209" y="598" on="0"/>
        <pt x="310" y="364" on="0"/>
        <pt x="485" y="189" on="0"/>
        <pt x="719" y="88" on="0"/>
        <pt x="852" y="88" on="1"/>
        <pt x="985" y="88" on="0"/>
        <pt x="1219" y="189" on="0"/>
        <pt x="1394" y="364" on="0"/>
        <pt x="1495" y="598" on="0"/>
        <pt x="1495" y="731" on="1"/>
        <pt x="1495" y="864" on="0"/>
        <pt x="1394" y="1098" on="0"/>
        <pt x="1219" y="1273" on="0"/>
        <pt x="985" y="1374" on="0"/>
        <pt x="852" y="1374" on="1"/>
        <pt x="719" y="1374" on="0"/>
        <pt x="485" y="1273" on="0"/>
        <pt x="310" y="1098" on="0"/>
        <pt x="209" y="864" on="0"/>
      </contour>
    </TTGlyph>
    <TTGlyph name="currency" xMin="123" yMin="285" xMax="1004" yMax="1163">
      <contour>
        <pt x="186" y="723" on="1"/>
        <pt x="186" y="782" on="0"/>
        <pt x="221" y="889" on="0"/>
        <pt x="252" y="936" on="1"/>
        <pt x="123" y="1065" on="1"/>
        <pt x="221" y="1163" on="1"/>
        <pt x="348" y="1034" on="1"/>
        <pt x="395" y="1066" on="0"/>
        <pt x="503" y="1102" on="0"/>
        <pt x="563" y="1102" on="1"/>
        <pt x="623" y="1102" on="0"/>
        <pt x="730" y="1066" on="0"/>
        <pt x="776" y="1034" on="1"/>
        <pt x="905" y="1163" on="1"/>
        <pt x="1004" y="1067" on="1"/>
        <pt x="874" y="938" on="1"/>
        <pt x="905" y="892" on="0"/>
        <pt x="942" y="783" on="0"/>
        <pt x="942" y="723" on="1"/>
        <pt x="942" y="663" on="0"/>
        <pt x="907" y="553" on="0"/>
        <pt x="874" y="508" on="1"/>
        <pt x="1001" y="381" on="1"/>
        <pt x="905" y="285" on="1"/>
        <pt x="776" y="412" on="1"/>
        <pt x="730" y="381" on="0"/>
        <pt x="623" y="346" on="0"/>
        <pt x="563" y="346" on="1"/>
        <pt x="503" y="346" on="0"/>
        <pt x="393" y="382" on="0"/>
        <pt x="348" y="414" on="1"/>
        <pt x="221" y="287" on="1"/>
        <pt x="125" y="383" on="1"/>
        <pt x="252" y="510" on="1"/>
        <pt x="221" y="555" on="0"/>
        <pt x="186" y="663" on="0"/>
      </contour>
      <contour>
        <pt x="324" y="723" on="1"/>
        <pt x="324" y="673" on="0"/>
        <pt x="361" y="586" on="0"/>
        <pt x="426" y="521" on="0"/>
        <pt x="513" y="483" on="0"/>
        <pt x="563" y="483" on="1"/>
        <pt x="614" y="483" on="0"/>
        <pt x="703" y="521" on="0"/>
        <pt x="769" y="586" on="0"/>
        <pt x="807" y="673" on="0"/>
        <pt x="807" y="723" on="1"/>
        <pt x="807" y="774" on="0"/>
        <pt x="769" y="863" on="0"/>
        <pt x="703" y="929" on="0"/>
        <pt x="614" y="967" on="0"/>
        <pt x="563" y="967" on="1"/>
        <pt x="513" y="967" on="0"/>
        <pt x="426" y="929" on="0"/>
        <pt x="361" y="863" on="0"/>
        <pt x="324" y="774" on="0"/>
      </contour>
    </TTGlyph>
    <TTGlyph name="d" xMin="113" yMin="-20" xMax="1026" yMax="1556">
      <contour>
        <pt x="852" y="147" on="1"/>
        <pt x="844" y="147" on="1"/>
        <pt x="822" y="113" on="0"/>
        <pt x="763" y="52" on="0"/>
        <pt x="686" y="6" on="0"/>
        <pt x="590" y="-20" on="0"/>
        <pt x="530" y="-20" on="1"/>
        <pt x="437" y="-20" on="0"/>
        <pt x="283" y="52" on="0"/>
        <pt x="173" y="195" on="0"/>
        <pt x="113" y="407" on="0"/>
        <pt x="113" y="547" on="1"/>
        <pt x="113" y="688" on="0"/>
        <pt x="173" y="901" on="0"/>
        <pt x="283" y="1045" on="0"/>
        <pt x="437" y="1118" on="0"/>
        <pt x="530" y="1118" on="1"/>
        <pt x="589" y="1118" on="0"/>
        <pt x="685" y="1092" on="0"/>
        <pt x="762" y="1048" on="0"/>
        <pt x="822" y="990" on="0"/>
        <pt x="844" y="958" on="1"/>
        <pt x="856" y="958" on="1"/>
        <pt x="853" y="992" on="0"/>
        <pt x="850" y="1023" on="1"/>
        <pt x="848" y="1049" on="0"/>
        <pt x="844" y="1104" on="0"/>
        <pt x="844" y="1120" on="1"/>
        <pt x="844" y="1556" on="1"/>
        <pt x="1026" y="1556" on="1"/>
        <pt x="1026" y="0" on="1"/>
        <pt x="879" y="0" on="1"/>
      </contour>
      <contour>
        <pt x="565" y="131" on="1"/>
        <pt x="641" y="131" on="0"/>
        <pt x="746" y="177" on="0"/>
        <pt x="811" y="271" on="0"/>
        <pt x="842" y="412" on="0"/>
        <pt x="844" y="506" on="1"/>
        <pt x="844" y="547" on="1"/>
        <pt x="844" y="648" on="0"/>
        <pt x="817" y="805" on="0"/>
        <pt x="752" y="912" on="0"/>
        <pt x="644" y="967" on="0"/>
        <pt x="563" y="967" on="1"/>
        <pt x="428" y="967" on="0"/>
        <pt x="301" y="749" on="0"/>
        <pt x="301" y="545" on="1"/>
        <pt x="301" y="336" on="0"/>
        <pt x="428" y="131" on="0"/>
      </contour>
    </TTGlyph>
    <TTGlyph name="degree" xMin="123" yMin="854" xMax="754" yMax="1483">
      <contour>
        <pt x="123" y="1167" on="1"/>
        <pt x="123" y="1232" on="0"/>
        <pt x="173" y="1347" on="0"/>
        <pt x="258" y="1433" on="0"/>
        <pt x="373" y="1483" on="0"/>
        <pt x="438" y="1483" on="1"/>
        <pt x="503" y="1483" on="0"/>
        <pt x="618" y="1433" on="0"/>
        <pt x="704" y="1347" on="0"/>
        <pt x="754" y="1232" on="0"/>
        <pt x="754" y="1167" on="1"/>
        <pt x="754" y="1102" on="0"/>
        <pt x="704" y="988" on="0"/>
        <pt x="618" y="903" on="0"/>
        <pt x="503" y="854" on="0"/>
        <pt x="438" y="854" on="1"/>
        <pt x="373" y="854" on="0"/>
        <pt x="258" y="903" on="0"/>
        <pt x="173" y="988" on="0"/>
        <pt x="123" y="1102" on="0"/>
      </contour>
      <contour>
        <pt x="246" y="1167" on="1"/>
        <pt x="246" y="1128" on="0"/>
        <pt x="276" y="1059" on="0"/>
        <pt x="328" y="1007" on="0"/>
        <pt x="398" y="977" on="0"/>
        <pt x="438" y="977" on="1"/>
        <pt x="478" y="977" on="0"/>
        <pt x="548" y="1007" on="0"/>
        <pt x="601" y="1059" on="0"/>
        <pt x="631" y="1128" on="0"/>
        <pt x="631" y="1167" on="1"/>
        <pt x="631" y="1207" on="0"/>
        <pt x="601" y="1278" on="0"/>
        <pt x="548" y="1331" on="0"/>
        <pt x="478" y="1362" on="0"/>
        <pt x="438" y="1362" on="1"/>
        <pt x="398" y="1362" on="0"/>
        <pt x="328" y="1331" on="0"/>
        <pt x="276" y="1278" on="0"/>
        <pt x="246" y="1207" on="0"/>
      </contour>
    </TTGlyph>
    <TTGlyph name="dieresis" xMin="307" yMin="1292" xMax="874" yMax="1497">
      <contour>
        <pt x="307" y="1395" on="1"/>
        <pt x="307" y="1449" on="0"/>
        <pt x="363" y="1497" on="0"/>
        <pt x="403" y="1497" on="1"/>
        <pt x="442" y="1497" on="0"/>
        <pt x="500" y="1448" on="0"/>
        <pt x="500" y="1395" on="1"/>
        <pt x="500" y="1342" on="0"/>
        <pt x="442" y="1292" on="0"/>
        <pt x="403" y="1292" on="1"/>
        <pt x="363" y="1292" on="0"/>
        <pt x="307" y="1342" on="0"/>
      </contour>
      <contour>
        <pt x="682" y="1395" on="1"/>
        <pt x="682" y="1449" on="0"/>
        <pt x="738" y="1497" on="0"/>
        <pt x="778" y="1497" on="1"/>
        <pt x="797" y="1497" on="0"/>
        <pt x="832" y="1485" on="0"/>
        <pt x="858" y="1460" on="0"/>
        <pt x="874" y="1422" on="0"/>
        <pt x="874" y="1395" on="1"/>
        <pt x="874" y="1342" on="0"/>
        <pt x="816" y="1292" on="0"/>
        <pt x="778" y="1292" on="1"/>
        <pt x="738" y="1292" on="0"/>
        <pt x="682" y="1342" on="0"/>
      </contour>
    </TTGlyph>
    <TTGlyph name="divide" xMin="102" yMin="248" xMax="1026" yMax="1196">
      <contour>
        <pt x="102" y="647" on="1"/>
        <pt x="102" y="797" on="1"/>
        <pt x="1026" y="797" on="1"/>
        <pt x="1026" y="647" on="1"/>
      </contour>
      <contour>
        <pt x="449" y="373" on="1"/>
        <pt x="449" y="408" on="0"/>
        <pt x="467" y="455" on="0"/>
        <pt x="498" y="485" on="0"/>
        <pt x="539" y="498" on="0"/>
        <pt x="563" y="498" on="1"/>
        <pt x="586" y="498" on="0"/>
        <pt x="628" y="485" on="0"/>
        <pt x="660" y="455" on="0"/>
        <pt x="678" y="408" on="0"/>
        <pt x="678" y="373" on="1"/>
        <pt x="678" y="340" on="0"/>
        <pt x="660" y="293" on="0"/>
        <pt x="628" y="262" on="0"/>
        <pt x="586" y="248" on="0"/>
        <pt x="563" y="248" on="1"/>
        <pt x="539" y="248" on="0"/>
        <pt x="498" y="262" on="0"/>
        <pt x="467" y="293" on="0"/>
        <pt x="449" y="340" on="0"/>
      </contour>
      <contour>
        <pt x="449" y="1071" on="1"/>
        <pt x="449" y="1106" on="0"/>
        <pt x="467" y="1153" on="0"/>
        <pt x="498" y="1183" on="0"/>
        <pt x="539" y="1196" on="0"/>
        <pt x="563" y="1196" on="1"/>
        <pt x="586" y="1196" on="0"/>
        <pt x="628" y="1183" on="0"/>
        <pt x="660" y="1153" on="0"/>
        <pt x="678" y="1106" on="0"/>
        <pt x="678" y="1071" on="1"/>
        <pt x="678" y="1038" on="0"/>
        <pt x="660" y="991" on="0"/>
        <pt x="628" y="960" on="0"/>
        <pt x="586" y="946" on="0"/>
        <pt x="563" y="946" on="1"/>
        <pt x="539" y="946" on="0"/>
        <pt x="498" y="960" on="0"/>
        <pt x="467" y="991" on="0"/>
        <pt x="449" y="1038" on="0"/>
      </contour>
    </TTGlyph>
    <TTGlyph name="dollar" xMin="123" yMin="-119" xMax="985" yMax="1554">
      <contour>
        <pt x="985" y="446" on="1"/>
        <pt x="985" y="376" on="0"/>
        <pt x="935" y="262" on="0"/>
        <pt x="842" y="178" on="0"/>
        <pt x="709" y="123" on="0"/>
        <pt x="625" y="111" on="1"/>
        <pt x="625" y="-119" on="1"/>
        <pt x="487" y="-119" on="1"/>
        <pt x="487" y="102" on="1"/>
        <pt x="437" y="102" on="0"/>
        <pt x="335" y="111" on="0"/>
        <pt x="239" y="129" on="0"/>
        <pt x="155" y="155" on="0"/>
        <pt x="123" y="172" on="1"/>
        <pt x="123" y="344" on="1"/>
        <pt x="156" y="328" on="0"/>
        <pt x="243" y="295" on="0"/>
        <pt x="339" y="269" on="0"/>
        <pt x="440" y="252" on="0"/>
        <pt x="487" y="252" on="1"/>
        <pt x="487" y="686" on="1"/>
        <pt x="398" y="716" on="0"/>
        <pt x="267" y="782" on="0"/>
        <pt x="181" y="867" on="0"/>
        <pt x="139" y="977" on="0"/>
        <pt x="139" y="1051" on="1"/>
        <pt x="139" y="1118" on="0"/>
        <pt x="188" y="1229" on="0"/>
        <pt x="279" y="1312" on="0"/>
        <pt x="408" y="1365" on="0"/>
        <pt x="487" y="1374" on="1"/>
        <pt x="487" y="1554" on="1"/>
        <pt x="625" y="1554" on="1"/>
        <pt x="625" y="1378" on="1"/>
        <pt x="725" y="1373" on="0"/>
        <pt x="894" y="1331" on="0"/>
        <pt x="961" y="1300" on="1"/>
        <pt x="895" y="1155" on="1"/>
        <pt x="839" y="1180" on="0"/>
        <pt x="699" y="1221" on="0"/>
        <pt x="625" y="1227" on="1"/>
        <pt x="625" y="805" on="1"/>
        <pt x="713" y="774" on="0"/>
        <pt x="848" y="708" on="0"/>
        <pt x="939" y="625" on="0"/>
        <pt x="985" y="518" on="0"/>
      </contour>
      <contour>
        <pt x="809" y="446" on="1"/>
        <pt x="809" y="479" on="0"/>
        <pt x="789" y="534" on="0"/>
        <pt x="746" y="579" on="0"/>
        <pt x="676" y="617" on="0"/>
        <pt x="625" y="635" on="1"/>
        <pt x="625" y="262" on="1"/>
        <pt x="718" y="276" on="0"/>
        <pt x="809" y="374" on="0"/>
      </contour>
      <contour>
        <pt x="315" y="1049" on="1"/>
        <pt x="315" y="1013" on="0"/>
        <pt x="332" y="956" on="0"/>
        <pt x="372" y="909" on="0"/>
        <pt x="438" y="871" on="0"/>
        <pt x="487" y="854" on="1"/>
        <pt x="487" y="1223" on="1"/>
        <pt x="398" y="1207" on="0"/>
        <pt x="315" y="1118" on="0"/>
      </contour>
    </TTGlyph>
    <TTGlyph name="dotlessi" xMin="174" yMin="0" xMax="356" yMax="1098">
      <contour>
        <pt x="356" y="0" on="1"/>
        <pt x="174" y="0" on="1"/>
        <pt x="174" y="1098" on="1"/>
        <pt x="356" y="1098" on="1"/>
      </contour>
    </TTGlyph>
    <TTGlyph name="e" xMin="113" yMin="-20" xMax="993" yMax="1118">
      <contour>
        <pt x="608" y="-20" on="1"/>
        <pt x="498" y="-20" on="0"/>
        <pt x="316" y="54" on="0"/>
        <pt x="185" y="196" on="0"/>
        <pt x="113" y="406" on="0"/>
        <pt x="113" y="541" on="1"/>
        <pt x="113" y="677" on="0"/>
        <pt x="179" y="891" on="0"/>
        <pt x="299" y="1040" on="0"/>
        <pt x="466" y="1118" on="0"/>
        <pt x="567" y="1118" on="1"/>
        <pt x="666" y="1118" on="0"/>
        <pt x="824" y="1047" on="0"/>
        <pt x="934" y="918" on="0"/>
        <pt x="993" y="737" on="0"/>
        <pt x="993" y="627" on="1"/>
        <pt x="993" y="514" on="1"/>
        <pt x="301" y="514" on="1"/>
        <pt x="306" y="321" on="0"/>
        <pt x="459" y="139" on="0"/>
        <pt x="610" y="139" on="1"/>
        <pt x="661" y="139" on="0"/>
        <pt x="748" y="149" on="0"/>
        <pt x="829" y="168" on="0"/>
        <pt x="905" y="197" on="0"/>
        <pt x="944" y="215" on="1"/>
        <pt x="944" y="53" on="1"/>
        <pt x="904" y="34" on="0"/>
        <pt x="827" y="6" on="0"/>
        <pt x="746" y="-12" on="0"/>
        <pt x="659" y="-20" on="0"/>
      </contour>
      <contour>
        <pt x="563" y="967" on="1"/>
        <pt x="449" y="967" on="0"/>
        <pt x="316" y="811" on="0"/>
        <pt x="305" y="662" on="1"/>
        <pt x="797" y="662" on="1"/>
        <pt x="797" y="730" on="0"/>
        <pt x="770" y="843" on="0"/>
        <pt x="713" y="923" on="0"/>
        <pt x="625" y="967" on="0"/>
      </contour>
    </TTGlyph>
    <TTGlyph name="eacute" xMin="113" yMin="-20" xMax="993" yMax="1569">
      <component glyphName="e" x="0" y="0" flags="0x1204"/>
      <component glyphName="acute" x="82" y="0" flags="0x1004"/>
    </TTGlyph>
    <TTGlyph name="ecircumflex" xMin="113" yMin="-20" xMax="993" yMax="1569">
      <component glyphName="e" x="0" y="0" flags="0x1204"/>
      <component glyphName="circumflex" x="-34" y="0" flags="0x1004"/>
    </TTGlyph>
    <TTGlyph name="edieresis" xMin="113" yMin="-20" xMax="993" yMax="1497">
      <component glyphName="e" x="0" y="0" flags="0x1204"/>
      <component glyphName="dieresis" x="-38" y="0" flags="0x1004"/>
    </TTGlyph>
    <TTGlyph name="egrave" xMin="113" yMin="-20" xMax="993" yMax="1569">
      <component glyphName="e" x="0" y="0" flags="0x1204"/>
      <component glyphName="grave" x="-108" y="0" flags="0x1004"/>
    </TTGlyph>
    <TTGlyph name="eight" xMin="106" yMin="-20" xMax="1024" yMax="1485">
      <contour>
        <pt x="565" y="1485" on="1"/>
        <pt x="649" y="1485" on="0"/>
        <pt x="798" y="1441" on="0"/>
        <pt x="911" y="1353" on="0"/>
        <pt x="977" y="1221" on="0"/>
        <pt x="977" y="1133" on="1"/>
        <pt x="977" y="1066" on="0"/>
        <pt x="937" y="958" on="0"/>
        <pt x="867" y="871" on="0"/>
        <pt x="771" y="802" on="0"/>
        <pt x="715" y="774" on="1"/>
        <pt x="773" y="743" on="0"/>
        <pt x="884" y="667" on="0"/>
        <pt x="971" y="572" on="0"/>
        <pt x="1024" y="454" on="0"/>
        <pt x="1024" y="381" on="1"/>
        <pt x="1024" y="289" on="0"/>
        <pt x="957" y="140" on="0"/>
        <pt x="836" y="36" on="0"/>
        <pt x="667" y="-20" on="0"/>
        <pt x="565" y="-20" on="1"/>
        <pt x="455" y="-20" on="0"/>
        <pt x="284" y="34" on="0"/>
        <pt x="167" y="135" on="0"/>
        <pt x="106" y="281" on="0"/>
        <pt x="106" y="373" on="1"/>
        <pt x="106" y="448" on="0"/>
        <pt x="151" y="568" on="0"/>
        <pt x="227" y="664" on="0"/>
        <pt x="331" y="738" on="0"/>
        <pt x="389" y="766" on="1"/>
        <pt x="340" y="797" on="0"/>
        <pt x="254" y="870" on="0"/>
        <pt x="191" y="960" on="0"/>
        <pt x="154" y="1069" on="0"/>
        <pt x="154" y="1135" on="1"/>
        <pt x="154" y="1222" on="0"/>
        <pt x="221" y="1353" on="0"/>
        <pt x="335" y="1441" on="0"/>
        <pt x="484" y="1485" on="0"/>
      </contour>
      <contour>
        <pt x="285" y="371" on="1"/>
        <pt x="285" y="318" on="0"/>
        <pt x="317" y="229" on="0"/>
        <pt x="385" y="166" on="0"/>
        <pt x="489" y="131" on="0"/>
        <pt x="561" y="131" on="1"/>
        <pt x="631" y="131" on="0"/>
        <pt x="738" y="166" on="0"/>
        <pt x="810" y="231" on="0"/>
        <pt x="846" y="323" on="0"/>
        <pt x="846" y="379" on="1"/>
        <pt x="846" y="431" on="0"/>
        <pt x="807" y="515" on="0"/>
        <pt x="734" y="587" on="0"/>
        <pt x="632" y="651" on="0"/>
        <pt x="569" y="682" on="1"/>
        <pt x="539" y="696" on="1"/>
        <pt x="413" y="636" on="0"/>
        <pt x="285" y="481" on="0"/>
      </contour>
      <contour>
        <pt x="563" y="1333" on="1"/>
        <pt x="457" y="1333" on="0"/>
        <pt x="332" y="1227" on="0"/>
        <pt x="332" y="1126" on="1"/>
        <pt x="332" y="1069" on="0"/>
        <pt x="367" y="987" on="0"/>
        <pt x="429" y="923" on="0"/>
        <pt x="516" y="872" on="0"/>
        <pt x="567" y="848" on="1"/>
        <pt x="615" y="870" on="0"/>
        <pt x="700" y="922" on="0"/>
        <pt x="763" y="988" on="0"/>
        <pt x="799" y="1072" on="0"/>
        <pt x="799" y="1126" on="1"/>
        <pt x="799" y="1227" on="0"/>
        <pt x="673" y="1333" on="0"/>
      </contour>
    </TTGlyph>
    <TTGlyph name="emdash" xMin="82" yMin="465" xMax="1966" yMax="633">
      <contour>
        <pt x="82" y="465" on="1"/>
        <pt x="82" y="633" on="1"/>
        <pt x="1966" y="633" on="1"/>
        <pt x="1966" y="465" on="1"/>
      </contour>
    </TTGlyph>
    <TTGlyph name="endash" xMin="82" yMin="465" xMax="942" yMax="633">
      <contour>
        <pt x="82" y="465" on="1"/>
        <pt x="82" y="633" on="1"/>
        <pt x="942" y="633" on="1"/>
        <pt x="942" y="465" on="1"/>
      </contour>
    </TTGlyph>
    <TTGlyph name="equal" xMin="102" yMin="442" xMax="1026" yMax="1001">
      <contour>
        <pt x="102" y="852" on="1"/>
        <pt x="102" y="1001" on="1"/>
        <pt x="1026" y="1001" on="1"/>
        <pt x="1026" y="852" on="1"/>
      </contour>
      <contour>
        <pt x="102" y="442" on="1"/>
        <pt x="102" y="592" on="1"/>
        <pt x="1026" y="592" on="1"/>
        <pt x="1026" y="442" on="1"/>
      </contour>
    </TTGlyph>
    <TTGlyph name="eth" xMin="111" yMin="-20" xMax="1069" yMax="1571">
      <contour>
        <pt x="1069" y="573" on="1"/>
        <pt x="1069" y="431" on="0"/>
        <pt x="1002" y="211" on="0"/>
        <pt x="877" y="59" on="0"/>
        <pt x="699" y="-20" on="0"/>
        <pt x="588" y="-20" on="1"/>
        <pt x="484" y="-20" on="0"/>
        <pt x="309" y="46" on="0"/>
        <pt x="182" y="173" on="0"/>
        <pt x="111" y="358" on="0"/>
        <pt x="111" y="477" on="1"/>
        <pt x="111" y="596" on="0"/>
        <pt x="174" y="780" on="0"/>
        <pt x="292" y="906" on="0"/>
        <pt x="460" y="971" on="0"/>
        <pt x="565" y="971" on="1"/>
        <pt x="667" y="971" on="0"/>
        <pt x="821" y="912" on="0"/>
        <pt x="864" y="852" on="1"/>
        <pt x="872" y="856" on="1"/>
        <pt x="841" y="974" on="0"/>
        <pt x="721" y="1166" on="0"/>
        <pt x="631" y="1247" on="1"/>
        <pt x="375" y="1094" on="1"/>
        <pt x="301" y="1208" on="1"/>
        <pt x="518" y="1339" on="1"/>
        <pt x="478" y="1367" on="0"/>
        <pt x="393" y="1422" on="0"/>
        <pt x="346" y="1448" on="1"/>
        <pt x="416" y="1571" on="1"/>
        <pt x="481" y="1539" on="0"/>
        <pt x="603" y="1467" on="0"/>
        <pt x="662" y="1423" on="1"/>
        <pt x="889" y="1561" on="1"/>
        <pt x="963" y="1448" on="1"/>
        <pt x="768" y="1331" on="1"/>
        <pt x="835" y="1266" on="0"/>
        <pt x="946" y="1110" on="0"/>
        <pt x="1025" y="923" on="0"/>
        <pt x="1069" y="702" on="0"/>
      </contour>
      <contour>
        <pt x="881" y="526" on="1"/>
        <pt x="881" y="582" on="0"/>
        <pt x="847" y="689" on="0"/>
        <pt x="777" y="771" on="0"/>
        <pt x="667" y="821" on="0"/>
        <pt x="592" y="821" on="1"/>
        <pt x="515" y="821" on="0"/>
        <pt x="406" y="775" on="0"/>
        <pt x="336" y="687" on="0"/>
        <pt x="303" y="556" on="0"/>
        <pt x="303" y="471" on="1"/>
        <pt x="303" y="395" on="0"/>
        <pt x="336" y="270" on="0"/>
        <pt x="407" y="180" on="0"/>
        <pt x="516" y="131" on="0"/>
        <pt x="592" y="131" on="1"/>
        <pt x="746" y="131" on="0"/>
        <pt x="881" y="330" on="0"/>
      </contour>
    </TTGlyph>
    <TTGlyph name="exclam" xMin="147" yMin="-29" xMax="401" yMax="1462">
      <contour>
        <pt x="336" y="414" on="1"/>
        <pt x="215" y="414" on="1"/>
        <pt x="164" y="1462" on="1"/>
        <pt x="387" y="1462" on="1"/>
      </contour>
      <contour>
        <pt x="147" y="111" on="1"/>
        <pt x="147" y="149" on="0"/>
        <pt x="167" y="202" on="0"/>
        <pt x="201" y="235" on="0"/>
        <pt x="247" y="250" on="0"/>
        <pt x="274" y="250" on="1"/>
        <pt x="300" y="250" on="0"/>
        <pt x="347" y="235" on="0"/>
        <pt x="381" y="202" on="0"/>
        <pt x="401" y="149" on="0"/>
        <pt x="401" y="111" on="1"/>
        <pt x="401" y="74" on="0"/>
        <pt x="381" y="21" on="0"/>
        <pt x="347" y="-13" on="0"/>
        <pt x="300" y="-29" on="0"/>
        <pt x="274" y="-29" on="1"/>
        <pt x="247" y="-29" on="0"/>
        <pt x="201" y="-13" on="0"/>
        <pt x="167" y="21" on="0"/>
        <pt x="147" y="74" on="0"/>
      </contour>
    </TTGlyph>
    <TTGlyph name="exclamdown" xMin="147" yMin="-373" xMax="401" yMax="1118">
      <contour>
        <pt x="213" y="676" on="1"/>
        <pt x="334" y="676" on="1"/>
        <pt x="385" y="-373" on="1"/>
        <pt x="162" y="-373" on="1"/>
      </contour>
      <contour>
        <pt x="401" y="979" on="1"/>
        <pt x="401" y="941" on="0"/>
        <pt x="382" y="888" on="0"/>
        <pt x="347" y="855" on="0"/>
        <pt x="301" y="840" on="0"/>
        <pt x="274" y="840" on="1"/>
        <pt x="248" y="840" on="0"/>
        <pt x="202" y="855" on="0"/>
        <pt x="167" y="888" on="0"/>
        <pt x="147" y="941" on="0"/>
        <pt x="147" y="979" on="1"/>
        <pt x="147" y="1016" on="0"/>
        <pt x="167" y="1068" on="0"/>
        <pt x="202" y="1102" on="0"/>
        <pt x="248" y="1118" on="0"/>
        <pt x="274" y="1118" on="1"/>
        <pt x="301" y="1118" on="0"/>
        <pt x="347" y="1102" on="0"/>
        <pt x="382" y="1068" on="0"/>
        <pt x="401" y="1016" on="0"/>
      </contour>
    </TTGlyph>
    <TTGlyph name="f" xMin="29" yMin="0" xMax="752" yMax="1567">
      <contour>
        <pt x="651" y="961" on="1"/>
        <pt x="406" y="961" on="1"/>
        <pt x="406" y="0" on="1"/>
        <pt x="223" y="0" on="1"/>
        <pt x="223" y="961" on="1"/>
        <pt x="29" y="961" on="1"/>
        <pt x="29" y="1036" on="1"/>
        <pt x="223" y="1104" on="1"/>
        <pt x="223" y="1200" on="1"/>
        <pt x="223" y="1307" on="0"/>
        <pt x="268" y="1448" on="0"/>
        <pt x="353" y="1532" on="0"/>
        <pt x="477" y="1567" on="0"/>
        <pt x="555" y="1567" on="1"/>
        <pt x="614" y="1567" on="0"/>
        <pt x="713" y="1544" on="0"/>
        <pt x="752" y="1530" on="1"/>
        <pt x="705" y="1389" on="1"/>
        <pt x="674" y="1400" on="0"/>
        <pt x="601" y="1417" on="0"/>
        <pt x="561" y="1417" on="1"/>
        <pt x="521" y="1417" on="0"/>
        <pt x="463" y="1398" on="0"/>
        <pt x="425" y="1350" on="0"/>
        <pt x="406" y="1267" on="0"/>
        <pt x="406" y="1202" on="1"/>
        <pt x="406" y="1098" on="1"/>
        <pt x="651" y="1098" on="1"/>
      </contour>
    </TTGlyph>
    <TTGlyph name="five" xMin="131" yMin="-20" xMax="1014" yMax="1462">
      <contour>
        <pt x="545" y="897" on="1"/>
        <pt x="644" y="897" on="0"/>
        <pt x="815" y="842" on="0"/>
        <pt x="942" y="734" on="0"/>
        <pt x="1014" y="574" on="0"/>
        <pt x="1014" y="469" on="1"/>
        <pt x="1014" y="355" on="0"/>
        <pt x="946" y="173" on="0"/>
        <pt x="812" y="47" on="0"/>
        <pt x="615" y="-20" on="0"/>
        <pt x="487" y="-20" on="1"/>
        <pt x="436" y="-20" on="0"/>
        <pt x="337" y="-10" on="0"/>
        <pt x="246" y="9" on="0"/>
        <pt x="164" y="39" on="0"/>
        <pt x="131" y="59" on="1"/>
        <pt x="131" y="231" on="1"/>
        <pt x="164" y="208" on="0"/>
        <pt x="253" y="172" on="0"/>
        <pt x="351" y="148" on="0"/>
        <pt x="450" y="135" on="0"/>
        <pt x="492" y="135" on="1"/>
        <pt x="571" y="135" on="0"/>
        <pt x="695" y="172" on="0"/>
        <pt x="781" y="250" on="0"/>
        <pt x="827" y="368" on="0"/>
        <pt x="827" y="449" on="1"/>
        <pt x="827" y="592" on="0"/>
        <pt x="651" y="743" on="0"/>
        <pt x="483" y="743" on="1"/>
        <pt x="456" y="743" on="0"/>
        <pt x="393" y="738" on="0"/>
        <pt x="330" y="730" on="0"/>
        <pt x="273" y="721" on="0"/>
        <pt x="252" y="717" on="1"/>
        <pt x="162" y="774" on="1"/>
        <pt x="217" y="1462" on="1"/>
        <pt x="907" y="1462" on="1"/>
        <pt x="907" y="1296" on="1"/>
        <pt x="375" y="1296" on="1"/>
        <pt x="336" y="877" on="1"/>
        <pt x="368" y="883" on="0"/>
        <pt x="473" y="897" on="0"/>
      </contour>
    </TTGlyph>
    <TTGlyph name="four" xMin="23" yMin="0" xMax="1087" yMax="1470">
      <contour>
        <pt x="1087" y="328" on="1"/>
        <pt x="874" y="328" on="1"/>
        <pt x="874" y="0" on="1"/>
        <pt x="698" y="0" on="1"/>
        <pt x="698" y="328" on="1"/>
        <pt x="23" y="328" on="1"/>
        <pt x="23" y="487" on="1"/>
        <pt x="686" y="1470" on="1"/>
        <pt x="874" y="1470" on="1"/>
        <pt x="874" y="494" on="1"/>
        <pt x="1087" y="494" on="1"/>
      </contour>
      <contour>
        <pt x="698" y="494" on="1"/>
        <pt x="698" y="850" on="1"/>
        <pt x="698" y="906" on="0"/>
        <pt x="701" y="1029" on="0"/>
        <pt x="705" y="1146" on="0"/>
        <pt x="710" y="1248" on="0"/>
        <pt x="711" y="1282" on="1"/>
        <pt x="702" y="1282" on="1"/>
        <pt x="695" y="1262" on="0"/>
        <pt x="674" y="1213" on="0"/>
        <pt x="649" y="1164" on="0"/>
        <pt x="623" y="1118" on="0"/>
        <pt x="612" y="1102" on="1"/>
        <pt x="201" y="494" on="1"/>
      </contour>
    </TTGlyph>
    <TTGlyph name="foursuperior" xMin="12" yMin="586" xMax="655" yMax="1468">
      <contour>
        <pt x="655" y="778" on="1"/>
        <pt x="530" y="778" on="1"/>
        <pt x="530" y="586" on="1"/>
        <pt x="387" y="586" on="1"/>
        <pt x="387" y="778" on="1"/>
        <pt x="12" y="778" on="1"/>
        <pt x="12" y="889" on="1"/>
        <pt x="389" y="1468" on="1"/>
        <pt x="530" y="1468" on="1"/>
        <pt x="530" y="905" on="1"/>
        <pt x="655" y="905" on="1"/>
      </contour>
      <contour>
        <pt x="387" y="905" on="1"/>
        <pt x="387" y="1100" on="1"/>
        <pt x="387" y="1142" on="0"/>
        <pt x="390" y="1241" on="0"/>
        <pt x="393" y="1290" on="1"/>
        <pt x="388" y="1279" on="0"/>
        <pt x="368" y="1242" on="0"/>
        <pt x="346" y="1200" on="0"/>
        <pt x="322" y="1160" on="0"/>
        <pt x="313" y="1145" on="1"/>
        <pt x="158" y="905" on="1"/>
      </contour>
    </TTGlyph>
    <TTGlyph name="fraction" xMin="-352" yMin="0" xMax="616" yMax="1462">
      <contour>
        <pt x="616" y="1462" on="1"/>
        <pt x="-195" y="0" on="1"/>
        <pt x="-352" y="0" on="1"/>
        <pt x="459" y="1462" on="1"/>
      </contour>
    </TTGlyph>
    <TTGlyph name="g" xMin="37" yMin="-492" xMax="1020" yMax="1118">
      <contour>
        <pt x="1020" y="1098" on="1"/>
        <pt x="1020" y="985" on="1"/>
        <pt x="823" y="958" on="1"/>
        <pt x="851" y="923" on="0"/>
        <pt x="889" y="814" on="0"/>
        <pt x="889" y="745" on="1"/>
        <pt x="889" y="669" on="0"/>
        <pt x="842" y="540" on="0"/>
        <pt x="747" y="446" on="0"/>
        <pt x="607" y="393" on="0"/>
        <pt x="514" y="393" on="1"/>
        <pt x="492" y="393" on="0"/>
        <pt x="448" y="394" on="0"/>
        <pt x="434" y="397" on="1"/>
        <pt x="417" y="387" on="0"/>
        <pt x="384" y="362" on="0"/>
        <pt x="357" y="330" on="0"/>
        <pt x="340" y="290" on="0"/>
        <pt x="340" y="266" on="1"/>
        <pt x="340" y="239" on="0"/>
        <pt x="364" y="206" on="0"/>
        <pt x="405" y="188" on="0"/>
        <pt x="461" y="182" on="0"/>
        <pt x="492" y="182" on="1"/>
        <pt x="668" y="182" on="1"/>
        <pt x="761" y="182" on="0"/>
        <pt x="889" y="135" on="0"/>
        <pt x="970" y="55" on="0"/>
        <pt x="1006" y="-54" on="0"/>
        <pt x="1006" y="-115" on="1"/>
        <pt x="1006" y="-203" on="0"/>
        <pt x="941" y="-343" on="0"/>
        <pt x="807" y="-440" on="0"/>
        <pt x="602" y="-492" on="0"/>
        <pt x="463" y="-492" on="1"/>
        <pt x="356" y="-492" on="0"/>
        <pt x="196" y="-450" on="0"/>
        <pt x="90" y="-370" on="0"/>
        <pt x="37" y="-257" on="0"/>
        <pt x="37" y="-186" on="1"/>
        <pt x="37" y="-126" on="0"/>
        <pt x="76" y="-35" on="0"/>
        <pt x="142" y="31" on="0"/>
        <pt x="229" y="73" on="0"/>
        <pt x="276" y="84" on="1"/>
        <pt x="234" y="103" on="0"/>
        <pt x="180" y="185" on="0"/>
        <pt x="180" y="238" on="1"/>
        <pt x="180" y="299" on="0"/>
        <pt x="244" y="388" on="0"/>
        <pt x="313" y="430" on="1"/>
        <pt x="270" y="448" on="0"/>
        <pt x="199" y="511" on="0"/>
        <pt x="150" y="592" on="0"/>
        <pt x="123" y="688" on="0"/>
        <pt x="123" y="739" on="1"/>
        <pt x="123" y="828" on="0"/>
        <pt x="173" y="968" on="0"/>
        <pt x="271" y="1066" on="0"/>
        <pt x="417" y="1118" on="0"/>
        <pt x="514" y="1118" on="1"/>
        <pt x="551" y="1118" on="0"/>
        <pt x="630" y="1107" on="0"/>
        <pt x="657" y="1098" on="1"/>
      </contour>
      <contour>
        <pt x="209" y="-180" on="1"/>
        <pt x="209" y="-217" on="0"/>
        <pt x="235" y="-281" on="0"/>
        <pt x="294" y="-327" on="0"/>
        <pt x="391" y="-354" on="0"/>
        <pt x="463" y="-354" on="1"/>
        <pt x="649" y="-354" on="0"/>
        <pt x="834" y="-239" on="0"/>
        <pt x="834" y="-131" on="1"/>
        <pt x="834" y="-85" on="0"/>
        <pt x="810" y="-27" on="0"/>
        <pt x="755" y="6" on="0"/>
        <pt x="665" y="18" on="0"/>
        <pt x="600" y="18" on="1"/>
        <pt x="424" y="18" on="1"/>
        <pt x="389" y="18" on="0"/>
        <pt x="313" y="2" on="0"/>
        <pt x="250" y="-42" on="0"/>
        <pt x="209" y="-119" on="0"/>
      </contour>
      <contour>
        <pt x="301" y="745" on="1"/>
        <pt x="301" y="630" on="0"/>
        <pt x="409" y="518" on="0"/>
        <pt x="508" y="518" on="1"/>
        <pt x="608" y="518" on="0"/>
        <pt x="711" y="629" on="0"/>
        <pt x="711" y="748" on="1"/>
        <pt x="711" y="871" on="0"/>
        <pt x="606" y="987" on="0"/>
        <pt x="506" y="987" on="1"/>
        <pt x="407" y="987" on="0"/>
        <pt x="301" y="867" on="0"/>
      </contour>
    </TTGlyph>
    <TTGlyph name="germandbls" xMin="174" yMin="-20" xMax="1141" yMax="1567">
      <contour>
        <pt x="1010" y="1260" on="1"/>
        <pt x="1010" y="1203" on="0"/>
        <pt x="967" y="1114" on="0"/>
        <pt x="904" y="1041" on="0"/>
        <pt x="829" y="981" on="0"/>
        <pt x="766" y="926" on="0"/>
        <pt x="723" y="872" on="0"/>
        <pt x="723" y="842" on="1"/>
        <pt x="723" y="821" on="0"/>
        <pt x="737" y="788" on="0"/>
        <pt x="776" y="749" on="0"/>
        <pt x="846" y="700" on="0"/>
        <pt x="903" y="662" on="1"/>
        <pt x="959" y="625" on="0"/>
        <pt x="1047" y="553" on="0"/>
        <pt x="1108" y="471" on="0"/>
        <pt x="1141" y="375" on="0"/>
        <pt x="1141" y="313" on="1"/>
        <pt x="1141" y="226" on="0"/>
        <pt x="1085" y="100" on="0"/>
        <pt x="984" y="19" on="0"/>
        <pt x="843" y="-20" on="0"/>
        <pt x="758" y="-20" on="1"/>
        <pt x="661" y="-20" on="0"/>
        <pt x="522" y="15" on="0"/>
        <pt x="469" y="49" on="1"/>
        <pt x="469" y="215" on="1"/>
        <pt x="495" y="199" on="0"/>
        <pt x="560" y="168" on="0"/>
        <pt x="632" y="144" on="0"/>
        <pt x="708" y="129" on="0"/>
        <pt x="745" y="129" on="1"/>
        <pt x="801" y="129" on="0"/>
        <pt x="882" y="154" on="0"/>
        <pt x="934" y="199" on="0"/>
        <pt x="958" y="263" on="0"/>
        <pt x="958" y="303" on="1"/>
        <pt x="958" y="339" on="0"/>
        <pt x="941" y="398" on="0"/>
        <pt x="898" y="454" on="0"/>
        <pt x="826" y="512" on="0"/>
        <pt x="770" y="547" on="1"/>
        <pt x="707" y="587" on="0"/>
        <pt x="622" y="655" on="0"/>
        <pt x="569" y="722" on="0"/>
        <pt x="547" y="792" on="0"/>
        <pt x="547" y="834" on="1"/>
        <pt x="547" y="888" on="0"/>
        <pt x="588" y="967" on="0"/>
        <pt x="650" y="1030" on="0"/>
        <pt x="722" y="1084" on="0"/>
        <pt x="784" y="1142" on="0"/>
        <pt x="825" y="1209" on="0"/>
        <pt x="825" y="1253" on="1"/>
        <pt x="825" y="1295" on="0"/>
        <pt x="792" y="1357" on="0"/>
        <pt x="732" y="1398" on="0"/>
        <pt x="649" y="1417" on="0"/>
        <pt x="598" y="1417" on="1"/>
        <pt x="549" y="1417" on="0"/>
        <pt x="461" y="1398" on="0"/>
        <pt x="395" y="1350" on="0"/>
        <pt x="356" y="1267" on="0"/>
        <pt x="356" y="1202" on="1"/>
        <pt x="356" y="0" on="1"/>
        <pt x="174" y="0" on="1"/>
        <pt x="174" y="1200" on="1"/>
        <pt x="174" y="1304" on="0"/>
        <pt x="237" y="1445" on="0"/>
        <pt x="350" y="1530" on="0"/>
        <pt x="506" y="1567" on="0"/>
        <pt x="598" y="1567" on="1"/>
        <pt x="690" y="1567" on="0"/>
        <pt x="842" y="1529" on="0"/>
        <pt x="950" y="1453" on="0"/>
        <pt x="1010" y="1337" on="0"/>
      </contour>
    </TTGlyph>
    <TTGlyph name="grave" xMin="393" yMin="1241" xMax="786" yMax="1569">
      <contour>
        <pt x="786" y="1241" on="1"/>
        <pt x="666" y="1241" on="1"/>
        <pt x="631" y="1269" on="0"/>
        <pt x="549" y="1352" on="0"/>
        <pt x="472" y="1440" on="0"/>
        <pt x="409" y="1521" on="0"/>
        <pt x="393" y="1548" on="1"/>
        <pt x="393" y="1569" on="1"/>
        <pt x="612" y="1569" on="1"/>
        <pt x="628" y="1535" on="0"/>
        <pt x="671" y="1454" on="0"/>
        <pt x="717" y="1373" on="0"/>
        <pt x="765" y="1297" on="0"/>
        <pt x="786" y="1268" on="1"/>
      </contour>
    </TTGlyph>
    <TTGlyph name="greater" xMin="102" yMin="238" xMax="1026" yMax="1245">
      <contour>
        <pt x="102" y="399" on="1"/>
        <pt x="838" y="721" on="1"/>
        <pt x="102" y="1085" on="1"/>
        <pt x="102" y="1245" on="1"/>
        <pt x="1026" y="764" on="1"/>
        <pt x="1026" y="662" on="1"/>
        <pt x="102" y="238" on="1"/>
      </contour>
    </TTGlyph>
    <TTGlyph name="guillemotleft" xMin="82" yMin="115" xMax="915" yMax="967">
      <contour>
        <pt x="82" y="553" on="1"/>
        <pt x="391" y="967" on="1"/>
        <pt x="508" y="889" on="1"/>
        <pt x="270" y="541" on="1"/>
        <pt x="508" y="193" on="1"/>
        <pt x="391" y="115" on="1"/>
        <pt x="82" y="526" on="1"/>
      </contour>
      <contour>
        <pt x="489" y="553" on="1"/>
        <pt x="799" y="967" on="1"/>
        <pt x="915" y="889" on="1"/>
        <pt x="678" y="541" on="1"/>
        <pt x="915" y="193" on="1"/>
        <pt x="799" y="115" on="1"/>
        <pt x="489" y="526" on="1"/>
      </contour>
    </TTGlyph>
    <TTGlyph name="guillemotright" xMin="84" yMin="115" xMax="918" yMax="967">
      <contour>
        <pt x="918" y="526" on="1"/>
        <pt x="608" y="115" on="1"/>
        <pt x="492" y="193" on="1"/>
        <pt x="729" y="541" on="1"/>
        <pt x="492" y="889" on="1"/>
        <pt x="608" y="967" on="1"/>
        <pt x="918" y="553" on="1"/>
      </contour>
      <contour>
        <pt x="510" y="526" on="1"/>
        <pt x="201" y="115" on="1"/>
        <pt x="84" y="193" on="1"/>
        <pt x="322" y="541" on="1"/>
        <pt x="84" y="889" on="1"/>
        <pt x="201" y="967" on="1"/>
        <pt x="510" y="553" on="1"/>
      </contour>
    </TTGlyph>
    <TTGlyph name="guilsinglleft" xMin="82" yMin="115" xMax="508" yMax="967">
      <contour>
        <pt x="82" y="553" on="1"/>
        <pt x="391" y="967" on="1"/>
        <pt x="508" y="889" on="1"/>
        <pt x="270" y="541" on="1"/>
        <pt x="508" y="193" on="1"/>
        <pt x="391" y="115" on="1"/>
        <pt x="82" y="526" on="1"/>
      </contour>
    </TTGlyph>
    <TTGlyph name="guilsinglright" xMin="82" yMin="115" xMax="508" yMax="967">
      <contour>
        <pt x="508" y="526" on="1"/>
        <pt x="199" y="115" on="1"/>
        <pt x="82" y="193" on="1"/>
        <pt x="319" y="541" on="1"/>
        <pt x="82" y="889" on="1"/>
        <pt x="199" y="967" on="1"/>
        <pt x="508" y="553" on="1"/>
      </contour>
    </TTGlyph>
    <TTGlyph name="h" xMin="174" yMin="0" xMax="1042" yMax="1556">
      <contour>
        <pt x="860" y="0" on="1"/>
        <pt x="860" y="707" on="1"/>
        <pt x="860" y="837" on="0"/>
        <pt x="755" y="967" on="0"/>
        <pt x="643" y="967" on="1"/>
        <pt x="562" y="967" on="0"/>
        <pt x="452" y="915" on="0"/>
        <pt x="385" y="813" on="0"/>
        <pt x="356" y="665" on="0"/>
        <pt x="356" y="569" on="1"/>
        <pt x="356" y="0" on="1"/>
        <pt x="174" y="0" on="1"/>
        <pt x="174" y="1556" on="1"/>
        <pt x="356" y="1556" on="1"/>
        <pt x="356" y="1094" on="1"/>
        <pt x="348" y="950" on="1"/>
        <pt x="358" y="950" on="1"/>
        <pt x="383" y="993" on="0"/>
        <pt x="452" y="1056" on="0"/>
        <pt x="534" y="1098" on="0"/>
        <pt x="626" y="1118" on="0"/>
        <pt x="674" y="1118" on="1"/>
        <pt x="857" y="1118" on="0"/>
        <pt x="1042" y="927" on="0"/>
        <pt x="1042" y="717" on="1"/>
        <pt x="1042" y="0" on="1"/>
      </contour>
    </TTGlyph>
    <TTGlyph name="hyphen" xMin="82" yMin="465" xMax="578" yMax="633">
      <contour>
        <pt x="82" y="465" on="1"/>
        <pt x="82" y="633" on="1"/>
        <pt x="578" y="633" on="1"/>
        <pt x="578" y="465" on="1"/>
      </contour>
    </TTGlyph>
    <TTGlyph name="i" xMin="160" yMin="0" xMax="373" yMax="1509">
      <contour>
        <pt x="356" y="0" on="1"/>
        <pt x="174" y="0" on="1"/>
        <pt x="174" y="1098" on="1"/>
        <pt x="356" y="1098" on="1"/>
      </contour>
      <contour>
        <pt x="160" y="1395" on="1"/>
        <pt x="160" y="1455" on="0"/>
        <pt x="221" y="1509" on="0"/>
        <pt x="266" y="1509" on="1"/>
        <pt x="288" y="1509" on="0"/>
        <pt x="327" y="1496" on="0"/>
        <pt x="356" y="1468" on="0"/>
        <pt x="373" y="1425" on="0"/>
        <pt x="373" y="1395" on="1"/>
        <pt x="373" y="1337" on="0"/>
        <pt x="310" y="1280" on="0"/>
        <pt x="266" y="1280" on="1"/>
        <pt x="221" y="1280" on="0"/>
        <pt x="160" y="1336" on="0"/>
      </contour>
    </TTGlyph>
    <TTGlyph name="iacute" xMin="174" yMin="0" xMax="578" yMax="1569">
      <component glyphName="dotlessi" x="0" y="0" flags="0x1204"/>
      <component glyphName="acute" x="-208" y="0" flags="0x1004"/>
    </TTGlyph>
    <TTGlyph name="icircumflex" xMin="-67" yMin="0" xMax="597" yMax="1569">
      <component glyphName="dotlessi" x="0" y="0" flags="0x1204"/>
      <component glyphName="circumflex" x="-325" y="0" flags="0x1004"/>
    </TTGlyph>
    <TTGlyph name="idieresis" xMin="-18" yMin="0" xMax="549" yMax="1497">
      <component glyphName="dotlessi" x="0" y="0" flags="0x1204"/>
      <component glyphName="dieresis" x="-325" y="0" flags="0x1004"/>
    </TTGlyph>
    <TTGlyph name="igrave" xMin="-34" yMin="0" xMax="359" yMax="1569">
      <component glyphName="dotlessi" x="0" y="0" flags="0x1204"/>
      <component glyphName="grave" x="-427" y="0" flags="0x1004"/>
    </TTGlyph>
    <TTGlyph name="j" xMin="-68" yMin="-492" xMax="373" yMax="1509">
      <contour>
        <pt x="66" y="-492" on="1"/>
        <pt x="18" y="-492" on="0"/>
        <pt x="-45" y="-478" on="0"/>
        <pt x="-68" y="-467" on="1"/>
        <pt x="-68" y="-319" on="1"/>
        <pt x="-42" y="-329" on="0"/>
        <pt x="12" y="-340" on="0"/>
        <pt x="47" y="-340" on="1"/>
        <pt x="74" y="-340" on="0"/>
        <pt x="120" y="-325" on="0"/>
        <pt x="155" y="-286" on="0"/>
        <pt x="174" y="-221" on="0"/>
        <pt x="174" y="-170" on="1"/>
        <pt x="174" y="1098" on="1"/>
        <pt x="356" y="1098" on="1"/>
        <pt x="356" y="-158" on="1"/>
        <pt x="356" y="-235" on="0"/>
        <pt x="322" y="-358" on="0"/>
        <pt x="250" y="-445" on="0"/>
        <pt x="141" y="-492" on="0"/>
      </contour>
      <contour>
        <pt x="160" y="1395" on="1"/>
        <pt x="160" y="1455" on="0"/>
        <pt x="221" y="1509" on="0"/>
        <pt x="266" y="1509" on="1"/>
        <pt x="288" y="1509" on="0"/>
        <pt x="327" y="1496" on="0"/>
        <pt x="356" y="1468" on="0"/>
        <pt x="373" y="1425" on="0"/>
        <pt x="373" y="1395" on="1"/>
        <pt x="373" y="1337" on="0"/>
        <pt x="310" y="1280" on="0"/>
        <pt x="266" y="1280" on="1"/>
        <pt x="221" y="1280" on="0"/>
        <pt x="160" y="1336" on="0"/>
      </contour>
    </TTGlyph>
    <TTGlyph name="k" xMin="174" yMin="0" xMax="1008" yMax="1556">
      <contour>
        <pt x="342" y="567" on="1"/>
        <pt x="477" y="737" on="1"/>
        <pt x="770" y="1098" on="1"/>
        <pt x="981" y="1098" on="1"/>
        <pt x="580" y="623" on="1"/>
        <pt x="1008" y="0" on="1"/>
        <pt x="799" y="0" on="1"/>
        <pt x="463" y="504" on="1"/>
        <pt x="354" y="422" on="1"/>
        <pt x="354" y="0" on="1"/>
        <pt x="174" y="0" on="1"/>
        <pt x="174" y="1556" on="1"/>
        <pt x="354" y="1556" on="1"/>
        <pt x="354" y="842" on="1"/>
        <pt x="338" y="567" on="1"/>
      </contour>
    </TTGlyph>
    <TTGlyph name="l" xMin="174" yMin="0" xMax="356" yMax="1556">
      <contour>
        <pt x="356" y="0" on="1"/>
        <pt x="174" y="0" on="1"/>
        <pt x="174" y="1556" on="1"/>
        <pt x="356" y="1556" on="1"/>
      </contour>
    </TTGlyph>
    <TTGlyph name="less" xMin="102" yMin="238" xMax="1026" yMax="1245">
      <contour>
        <pt x="1026" y="238" on="1"/>
        <pt x="102" y="662" on="1"/>
        <pt x="102" y="764" on="1"/>
        <pt x="1026" y="1245" on="1"/>
        <pt x="1026" y="1085" on="1"/>
        <pt x="291" y="721" on="1"/>
        <pt x="1026" y="399" on="1"/>
      </contour>
    </TTGlyph>
    <TTGlyph name="logicalnot" xMin="102" yMin="262" xMax="1026" yMax="797">
      <contour>
        <pt x="1026" y="797" on="1"/>
        <pt x="1026" y="262" on="1"/>
        <pt x="877" y="262" on="1"/>
        <pt x="877" y="647" on="1"/>
        <pt x="102" y="647" on="1"/>
        <pt x="102" y="797" on="1"/>
      </contour>
    </TTGlyph>
    <TTGlyph name="m" xMin="174" yMin="0" xMax="1671" yMax="1118">
      <contour>
        <pt x="1489" y="0" on="1"/>
        <pt x="1489" y="707" on="1"/>
        <pt x="1489" y="837" on="0"/>
        <pt x="1389" y="967" on="0"/>
        <pt x="1284" y="967" on="1"/>
        <pt x="1211" y="967" on="0"/>
        <pt x="1109" y="920" on="0"/>
        <pt x="1044" y="829" on="0"/>
        <pt x="1014" y="694" on="0"/>
        <pt x="1014" y="606" on="1"/>
        <pt x="1014" y="0" on="1"/>
        <pt x="831" y="0" on="1"/>
        <pt x="831" y="707" on="1"/>
        <pt x="831" y="837" on="0"/>
        <pt x="732" y="967" on="0"/>
        <pt x="627" y="967" on="1"/>
        <pt x="550" y="967" on="0"/>
        <pt x="446" y="915" on="0"/>
        <pt x="383" y="813" on="0"/>
        <pt x="356" y="665" on="0"/>
        <pt x="356" y="569" on="1"/>
        <pt x="356" y="0" on="1"/>
        <pt x="174" y="0" on="1"/>
        <pt x="174" y="1098" on="1"/>
        <pt x="322" y="1098" on="1"/>
        <pt x="348" y="950" on="1"/>
        <pt x="358" y="950" on="1"/>
        <pt x="382" y="993" on="0"/>
        <pt x="448" y="1056" on="0"/>
        <pt x="527" y="1098" on="0"/>
        <pt x="616" y="1118" on="0"/>
        <pt x="662" y="1118" on="1"/>
        <pt x="782" y="1118" on="0"/>
        <pt x="941" y="1030" on="0"/>
        <pt x="979" y="936" on="1"/>
        <pt x="987" y="936" on="1"/>
        <pt x="1013" y="983" on="0"/>
        <pt x="1086" y="1051" on="0"/>
        <pt x="1173" y="1096" on="0"/>
        <pt x="1269" y="1118" on="0"/>
        <pt x="1319" y="1118" on="1"/>
        <pt x="1494" y="1118" on="0"/>
        <pt x="1671" y="927" on="0"/>
        <pt x="1671" y="717" on="1"/>
        <pt x="1671" y="0" on="1"/>
      </contour>
    </TTGlyph>
    <TTGlyph name="mu" xMin="174" yMin="-492" xMax="1042" yMax="1098">
      <contour>
        <pt x="356" y="391" on="1"/>
        <pt x="356" y="261" on="0"/>
        <pt x="462" y="131" on="0"/>
        <pt x="573" y="131" on="1"/>
        <pt x="655" y="131" on="0"/>
        <pt x="765" y="183" on="0"/>
        <pt x="832" y="284" on="0"/>
        <pt x="860" y="432" on="0"/>
        <pt x="860" y="528" on="1"/>
        <pt x="860" y="1098" on="1"/>
        <pt x="1042" y="1098" on="1"/>
        <pt x="1042" y="0" on="1"/>
        <pt x="895" y="0" on="1"/>
        <pt x="868" y="147" on="1"/>
        <pt x="858" y="147" on="1"/>
        <pt x="810" y="64" on="0"/>
        <pt x="666" y="-20" on="0"/>
        <pt x="563" y="-20" on="1"/>
        <pt x="491" y="-20" on="0"/>
        <pt x="385" y="26" on="0"/>
        <pt x="350" y="68" on="1"/>
        <pt x="351" y="30" on="0"/>
        <pt x="353" y="-10" on="1"/>
        <pt x="355" y="-45" on="0"/>
        <pt x="356" y="-130" on="0"/>
        <pt x="356" y="-172" on="1"/>
        <pt x="356" y="-492" on="1"/>
        <pt x="174" y="-492" on="1"/>
        <pt x="174" y="1098" on="1"/>
        <pt x="356" y="1098" on="1"/>
      </contour>
    </TTGlyph>
    <TTGlyph name="multiply" xMin="141" yMin="301" xMax="989" yMax="1147">
      <contour>
        <pt x="459" y="723" on="1"/>
        <pt x="141" y="1042" on="1"/>
        <pt x="246" y="1147" on="1"/>
        <pt x="563" y="829" on="1"/>
        <pt x="885" y="1147" on="1"/>
        <pt x="989" y="1044" on="1"/>
        <pt x="668" y="723" on="1"/>
        <pt x="987" y="403" on="1"/>
        <pt x="885" y="301" on="1"/>
        <pt x="563" y="618" on="1"/>
        <pt x="246" y="303" on="1"/>
        <pt x="143" y="406" on="1"/>
      </contour>
    </TTGlyph>
    <TTGlyph name="n" xMin="174" yMin="0" xMax="1042" yMax="1118">
      <contour>
        <pt x="860" y="0" on="1"/>
        <pt x="860" y="707" on="1"/>
        <pt x="860" y="837" on="0"/>
        <pt x="755" y="967" on="0"/>
        <pt x="643" y="967" on="1"/>
        <pt x="562" y="967" on="0"/>
        <pt x="452" y="915" on="0"/>
        <pt x="385" y="813" on="0"/>
        <pt x="356" y="665" on="0"/>
        <pt x="356" y="569" on="1"/>
        <pt x="356" y="0" on="1"/>
        <pt x="174" y="0" on="1"/>
        <pt x="174" y="1098" on="1"/>
        <pt x="322" y="1098" on="1"/>
        <pt x="348" y="950" on="1"/>
        <pt x="358" y="950" on="1"/>
        <pt x="383" y="993" on="0"/>
        <pt x="452" y="1056" on="0"/>
        <pt x="534" y="1098" on="0"/>
        <pt x="626" y="1118" on="0"/>
        <pt x="674" y="1118" on="1"/>
        <pt x="857" y="1118" on="0"/>
        <pt x="1042" y="927" on="0"/>
        <pt x="1042" y="717" on="1"/>
        <pt x="1042" y="0" on="1"/>
      </contour>
    </TTGlyph>
    <TTGlyph name="nine" xMin="106" yMin="-20" xMax="1028" yMax="1483">
      <contour>
        <pt x="1028" y="838" on="1"/>
        <pt x="1028" y="733" on="0"/>
        <pt x="1007" y="524" on="0"/>
        <pt x="954" y="334" on="0"/>
        <pt x="862" y="169" on="0"/>
        <pt x="720" y="49" on="0"/>
        <pt x="522" y="-20" on="0"/>
        <pt x="389" y="-20" on="1"/>
        <pt x="370" y="-20" on="0"/>
        <pt x="324" y="-18" on="0"/>
        <pt x="278" y="-13" on="0"/>
        <pt x="234" y="-7" on="0"/>
        <pt x="217" y="-2" on="1"/>
        <pt x="217" y="154" on="1"/>
        <pt x="252" y="141" on="0"/>
        <pt x="340" y="129" on="0"/>
        <pt x="383" y="129" on="1"/>
        <pt x="518" y="129" on="0"/>
        <pt x="692" y="223" on="0"/>
        <pt x="794" y="384" on="0"/>
        <pt x="837" y="598" on="0"/>
        <pt x="842" y="717" on="1"/>
        <pt x="829" y="717" on="1"/>
        <pt x="809" y="681" on="0"/>
        <pt x="753" y="619" on="0"/>
        <pt x="677" y="573" on="0"/>
        <pt x="581" y="547" on="0"/>
        <pt x="522" y="547" on="1"/>
        <pt x="427" y="547" on="0"/>
        <pt x="273" y="606" on="0"/>
        <pt x="165" y="720" on="0"/>
        <pt x="106" y="885" on="0"/>
        <pt x="106" y="991" on="1"/>
        <pt x="106" y="1105" on="0"/>
        <pt x="169" y="1288" on="0"/>
        <pt x="284" y="1415" on="0"/>
        <pt x="449" y="1483" on="0"/>
        <pt x="551" y="1483" on="1"/>
        <pt x="652" y="1483" on="0"/>
        <pt x="826" y="1405" on="0"/>
        <pt x="954" y="1245" on="0"/>
        <pt x="1028" y="1002" on="0"/>
      </contour>
      <contour>
        <pt x="553" y="1329" on="1"/>
        <pt x="493" y="1329" on="0"/>
        <pt x="394" y="1289" on="0"/>
        <pt x="322" y="1205" on="0"/>
        <pt x="283" y="1078" on="0"/>
        <pt x="283" y="991" on="1"/>
        <pt x="283" y="921" on="0"/>
        <pt x="316" y="810" on="0"/>
        <pt x="382" y="732" on="0"/>
        <pt x="481" y="690" on="0"/>
        <pt x="547" y="690" on="1"/>
        <pt x="615" y="690" on="0"/>
        <pt x="725" y="737" on="0"/>
        <pt x="803" y="812" on="0"/>
        <pt x="846" y="908" on="0"/>
        <pt x="846" y="956" on="1"/>
        <pt x="846" y="1023" on="0"/>
        <pt x="809" y="1156" on="0"/>
        <pt x="736" y="1263" on="0"/>
        <pt x="626" y="1329" on="0"/>
      </contour>
    </TTGlyph>
    <TTGlyph name="ntilde" xMin="174" yMin="0" xMax="1042" yMax="1507">
      <component glyphName="n" x="0" y="0" flags="0x1204"/>
      <component glyphName="tilde" x="-7" y="0" flags="0x1004"/>
    </TTGlyph>
    <TTGlyph name="numbersign" xMin="51" yMin="0" xMax="1272" yMax="1462">
      <contour>
        <pt x="983" y="893" on="1"/>
        <pt x="920" y="565" on="1"/>
        <pt x="1200" y="565" on="1"/>
        <pt x="1200" y="428" on="1"/>
        <pt x="893" y="428" on="1"/>
        <pt x="811" y="0" on="1"/>
        <pt x="664" y="0" on="1"/>
        <pt x="748" y="428" on="1"/>
        <pt x="457" y="428" on="1"/>
        <pt x="375" y="0" on="1"/>
        <pt x="231" y="0" on="1"/>
        <pt x="309" y="428" on="1"/>
        <pt x="51" y="428" on="1"/>
        <pt x="51" y="565" on="1"/>
        <pt x="336" y="565" on="1"/>
        <pt x="401" y="893" on="1"/>
        <pt x="127" y="893" on="1"/>
        <pt x="127" y="1030" on="1"/>
        <pt x="426" y="1030" on="1"/>
        <pt x="508" y="1462" on="1"/>
        <pt x="655" y="1462" on="1"/>
        <pt x="573" y="1030" on="1"/>
        <pt x="866" y="1030" on="1"/>
        <pt x="950" y="1462" on="1"/>
        <pt x="1094" y="1462" on="1"/>
        <pt x="1010" y="1030" on="1"/>
        <pt x="1272" y="1030" on="1"/>
        <pt x="1272" y="893" on="1"/>
      </contour>
      <contour>
        <pt x="483" y="565" on="1"/>
        <pt x="774" y="565" on="1"/>
        <pt x="838" y="893" on="1"/>
        <pt x="547" y="893" on="1"/>
      </contour>
    </TTGlyph>
    <TTGlyph name="o" xMin="113" yMin="-20" xMax="1069" yMax="1118">
      <contour>
        <pt x="1069" y="551" on="1"/>
        <pt x="1069" y="414" on="0"/>
        <pt x="1002" y="201" on="0"/>
        <pt x="877" y="56" on="0"/>
        <pt x="699" y="-20" on="0"/>
        <pt x="588" y="-20" on="1"/>
        <pt x="485" y="-20" on="0"/>
        <pt x="311" y="56" on="0"/>
        <pt x="184" y="201" on="0"/>
        <pt x="113" y="414" on="0"/>
        <pt x="113" y="551" on="1"/>
        <pt x="113" y="687" on="0"/>
        <pt x="180" y="898" on="0"/>
        <pt x="304" y="1043" on="0"/>
        <pt x="483" y="1118" on="0"/>
        <pt x="594" y="1118" on="1"/>
        <pt x="697" y="1118" on="0"/>
        <pt x="871" y="1043" on="0"/>
        <pt x="998" y="898" on="0"/>
        <pt x="1069" y="687" on="0"/>
      </contour>
      <contour>
        <pt x="301" y="551" on="1"/>
        <pt x="301" y="342" on="0"/>
        <pt x="438" y="131" on="0"/>
        <pt x="592" y="131" on="1"/>
        <pt x="746" y="131" on="0"/>
        <pt x="881" y="342" on="0"/>
        <pt x="881" y="551" on="1"/>
        <pt x="881" y="760" on="0"/>
        <pt x="744" y="967" on="0"/>
        <pt x="590" y="967" on="1"/>
        <pt x="436" y="967" on="0"/>
        <pt x="301" y="760" on="0"/>
      </contour>
    </TTGlyph>
    <TTGlyph name="oacute" xMin="113" yMin="-20" xMax="1069" yMax="1569">
      <component glyphName="o" x="0" y="0" flags="0x1204"/>
      <component glyphName="acute" x="80" y="0" flags="0x1004"/>
    </TTGlyph>
    <TTGlyph name="ocircumflex" xMin="113" yMin="-20" xMax="1069" yMax="1569">
      <component glyphName="o" x="0" y="0" flags="0x1204"/>
      <component glyphName="circumflex" x="-5" y="0" flags="0x1004"/>
    </TTGlyph>
    <TTGlyph name="odieresis" xMin="113" yMin="-20" xMax="1069" yMax="1497">
      <component glyphName="o" x="0" y="0" flags="0x1204"/>
      <component glyphName="dieresis" x="-7" y="0" flags="0x1004"/>
    </TTGlyph>
    <TTGlyph name="ograve" xMin="113" yMin="-20" xMax="1069" yMax="1569">
      <component glyphName="o" x="0" y="0" flags="0x1204"/>
      <component glyphName="grave" x="-40" y="0" flags="0x1004"/>
    </TTGlyph>
    <TTGlyph name="one" xMin="178" yMin="0" xMax="711" yMax="1462">
      <contour>
        <pt x="711" y="0" on="1"/>
        <pt x="535" y="0" on="1"/>
        <pt x="535" y="913" on="1"/>
        <pt x="535" y="956" on="0"/>
        <pt x="536" y="1054" on="0"/>
        <pt x="539" y="1151" on="0"/>
        <pt x="542" y="1240" on="0"/>
        <pt x="543" y="1274" on="1"/>
        <pt x="526" y="1256" on="0"/>
        <pt x="500" y="1230" on="0"/>
        <pt x="473" y="1206" on="0"/>
        <pt x="443" y="1179" on="0"/>
        <pt x="422" y="1161" on="1"/>
        <pt x="274" y="1040" on="1"/>
        <pt x="178" y="1163" on="1"/>
        <pt x="561" y="1462" on="1"/>
        <pt x="711" y="1462" on="1"/>
      </contour>
    </TTGlyph>
    <TTGlyph name="onehalf" xMin="44" yMin="0" xMax="1440" yMax="1462">
      <component glyphName="onesuperior" x="-19" y="0" flags="0x1004"/>
      <component glyphName="fraction" x="565" y="0" flags="0x1004"/>
      <component glyphName="twosuperior" x="819" y="-585" flags="0x1004"/>
    </TTGlyph>
    <TTGlyph name="onequarter" xMin="63" yMin="0" xMax="1419" yMax="1462">
      <component glyphName="onesuperior" x="0" y="0" flags="0x1004"/>
      <component glyphName="fraction" x="586" y="0" flags="0x1004"/>
      <component glyphName="foursuperior" x="764" y="-585" flags="0x1004"/>
    </TTGlyph>
    <TTGlyph name="onesuperior" xMin="63" yMin="586" xMax="442" yMax="1462">
      <contour>
        <pt x="307" y="1462" on="1"/>
        <pt x="442" y="1462" on="1"/>
        <pt x="442" y="586" on="1"/>
        <pt x="297" y="586" on="1"/>
        <pt x="297" y="1102" on="1"/>
        <pt x="297" y="1127" on="0"/>
        <pt x="298" y="1187" on="0"/>
        <pt x="301" y="1247" on="0"/>
        <pt x="304" y="1303" on="0"/>
        <pt x="305" y="1325" on="1"/>
        <pt x="291" y="1308" on="0"/>
        <pt x="253" y="1268" on="0"/>
        <pt x="231" y="1251" on="1"/>
        <pt x="137" y="1178" on="1"/>
        <pt x="63" y="1274" on="1"/>
      </contour>
    </TTGlyph>
    <TTGlyph name="ordfeminine" xMin="68" yMin="784" xMax="578" yMax="1479">
      <contour>
        <pt x="487" y="797" on="1"/>
        <pt x="459" y="879" on="1"/>
        <pt x="441" y="857" on="0"/>
        <pt x="402" y="822" on="0"/>
        <pt x="355" y="797" on="0"/>
        <pt x="299" y="784" on="0"/>
        <pt x="264" y="784" on="1"/>
        <pt x="221" y="784" on="0"/>
        <pt x="149" y="810" on="0"/>
        <pt x="97" y="861" on="0"/>
        <pt x="68" y="938" on="0"/>
        <pt x="68" y="989" on="1"/>
        <pt x="68" y="1091" on="0"/>
        <pt x="209" y="1199" on="0"/>
        <pt x="352" y="1204" on="1"/>
        <pt x="451" y="1208" on="1"/>
        <pt x="451" y="1239" on="1"/>
        <pt x="451" y="1311" on="0"/>
        <pt x="390" y="1368" on="0"/>
        <pt x="334" y="1368" on="1"/>
        <pt x="286" y="1368" on="0"/>
        <pt x="196" y="1339" on="0"/>
        <pt x="154" y="1317" on="1"/>
        <pt x="106" y="1417" on="1"/>
        <pt x="157" y="1443" on="0"/>
        <pt x="274" y="1479" on="0"/>
        <pt x="334" y="1479" on="1"/>
        <pt x="459" y="1479" on="0"/>
        <pt x="578" y="1373" on="0"/>
        <pt x="578" y="1251" on="1"/>
        <pt x="578" y="797" on="1"/>
      </contour>
      <contour>
        <pt x="377" y="1110" on="1"/>
        <pt x="326" y="1107" on="0"/>
        <pt x="258" y="1089" on="0"/>
        <pt x="217" y="1059" on="0"/>
        <pt x="199" y="1016" on="0"/>
        <pt x="199" y="987" on="1"/>
        <pt x="199" y="936" on="0"/>
        <pt x="249" y="891" on="0"/>
        <pt x="291" y="891" on="1"/>
        <pt x="325" y="891" on="0"/>
        <pt x="383" y="912" on="0"/>
        <pt x="426" y="956" on="0"/>
        <pt x="451" y="1021" on="0"/>
        <pt x="451" y="1065" on="1"/>
        <pt x="451" y="1114" on="1"/>
      </contour>
    </TTGlyph>
    <TTGlyph name="ordmasculine" xMin="66" yMin="784" xMax="651" yMax="1479">
      <contour>
        <pt x="651" y="1133" on="1"/>
        <pt x="651" y="1050" on="0"/>
        <pt x="610" y="920" on="0"/>
        <pt x="533" y="831" on="0"/>
        <pt x="424" y="784" on="0"/>
        <pt x="356" y="784" on="1"/>
        <pt x="293" y="784" on="0"/>
        <pt x="187" y="831" on="0"/>
        <pt x="109" y="920" on="0"/>
        <pt x="66" y="1050" on="0"/>
        <pt x="66" y="1133" on="1"/>
        <pt x="66" y="1216" on="0"/>
        <pt x="107" y="1345" on="0"/>
        <pt x="183" y="1433" on="0"/>
        <pt x="292" y="1479" on="0"/>
        <pt x="360" y="1479" on="1"/>
        <pt x="422" y="1479" on="0"/>
        <pt x="529" y="1433" on="0"/>
        <pt x="607" y="1345" on="0"/>
        <pt x="651" y="1216" on="0"/>
      </contour>
      <contour>
        <pt x="197" y="1133" on="1"/>
        <pt x="197" y="1014" on="0"/>
        <pt x="272" y="893" on="0"/>
        <pt x="358" y="893" on="1"/>
        <pt x="443" y="893" on="0"/>
        <pt x="518" y="1014" on="0"/>
        <pt x="518" y="1133" on="1"/>
        <pt x="518" y="1253" on="0"/>
        <pt x="443" y="1368" on="0"/>
        <pt x="358" y="1368" on="1"/>
        <pt x="272" y="1368" on="0"/>
        <pt x="197" y="1253" on="0"/>
      </contour>
    </TTGlyph>
    <TTGlyph name="oslash" xMin="115" yMin="-76" xMax="1071" yMax="1169">
      <contour>
        <pt x="1071" y="551" on="1"/>
        <pt x="1071" y="414" on="0"/>
        <pt x="1004" y="201" on="0"/>
        <pt x="879" y="56" on="0"/>
        <pt x="701" y="-20" on="0"/>
        <pt x="590" y="-20" on="1"/>
        <pt x="465" y="-20" on="0"/>
        <pt x="367" y="33" on="1"/>
        <pt x="299" y="-76" on="1"/>
        <pt x="168" y="-2" on="1"/>
        <pt x="248" y="129" on="1"/>
        <pt x="185" y="201" on="0"/>
        <pt x="115" y="414" on="0"/>
        <pt x="115" y="551" on="1"/>
        <pt x="115" y="687" on="0"/>
        <pt x="182" y="898" on="0"/>
        <pt x="306" y="1043" on="0"/>
        <pt x="485" y="1118" on="0"/>
        <pt x="596" y="1118" on="1"/>
        <pt x="659" y="1118" on="0"/>
        <pt x="772" y="1089" on="0"/>
        <pt x="821" y="1061" on="1"/>
        <pt x="889" y="1169" on="1"/>
        <pt x="1020" y="1096" on="1"/>
        <pt x="940" y="967" on="1"/>
        <pt x="1002" y="894" on="0"/>
        <pt x="1071" y="685" on="0"/>
      </contour>
      <contour>
        <pt x="303" y="551" on="1"/>
        <pt x="303" y="467" on="0"/>
        <pt x="322" y="336" on="0"/>
        <pt x="344" y="285" on="1"/>
        <pt x="741" y="932" on="1"/>
        <pt x="712" y="949" on="0"/>
        <pt x="637" y="967" on="0"/>
        <pt x="592" y="967" on="1"/>
        <pt x="438" y="967" on="0"/>
        <pt x="303" y="760" on="0"/>
      </contour>
      <contour>
        <pt x="883" y="551" on="1"/>
        <pt x="883" y="710" on="0"/>
        <pt x="844" y="809" on="1"/>
        <pt x="446" y="164" on="1"/>
        <pt x="477" y="147" on="0"/>
        <pt x="549" y="131" on="0"/>
        <pt x="594" y="131" on="1"/>
        <pt x="748" y="131" on="0"/>
        <pt x="883" y="342" on="0"/>
      </contour>
    </TTGlyph>
    <TTGlyph name="otilde" xMin="113" yMin="-20" xMax="1069" yMax="1507">
      <component glyphName="o" x="0" y="0" flags="0x1204"/>
      <component glyphName="tilde" x="-30" y="0" flags="0x1004"/>
    </TTGlyph>
    <TTGlyph name="overscore" xMin="-6" yMin="1556" xMax="1030" yMax="1696">
      <contour>
        <pt x="1030" y="1556" on="1"/>
        <pt x="-6" y="1556" on="1"/>
        <pt x="-6" y="1696" on="1"/>
        <pt x="1030" y="1696" on="1"/>
      </contour>
    </TTGlyph>
    <TTGlyph name="p" xMin="174" yMin="-492" xMax="1087" yMax="1118">
      <contour>
        <pt x="670" y="-20" on="1"/>
        <pt x="611" y="-20" on="0"/>
        <pt x="515" y="6" on="0"/>
        <pt x="438" y="49" on="0"/>
        <pt x="379" y="107" on="0"/>
        <pt x="356" y="139" on="1"/>
        <pt x="344" y="139" on="1"/>
        <pt x="347" y="105" on="0"/>
        <pt x="350" y="74" on="1"/>
        <pt x="352" y="48" on="0"/>
        <pt x="356" y="-7" on="0"/>
        <pt x="356" y="-23" on="1"/>
        <pt x="356" y="-492" on="1"/>
        <pt x="174" y="-492" on="1"/>
        <pt x="174" y="1098" on="1"/>
        <pt x="322" y="1098" on="1"/>
        <pt x="348" y="950" on="1"/>
        <pt x="356" y="950" on="1"/>
        <pt x="379" y="985" on="0"/>
        <pt x="437" y="1046" on="0"/>
        <pt x="514" y="1091" on="0"/>
        <pt x="610" y="1118" on="0"/>
        <pt x="670" y="1118" on="1"/>
        <pt x="764" y="1118" on="0"/>
        <pt x="918" y="1046" on="0"/>
        <pt x="1027" y="903" on="0"/>
        <pt x="1087" y="691" on="0"/>
        <pt x="1087" y="551" on="1"/>
        <pt x="1087" y="410" on="0"/>
        <pt x="1027" y="197" on="0"/>
        <pt x="918" y="53" on="0"/>
        <pt x="764" y="-20" on="0"/>
      </contour>
      <contour>
        <pt x="635" y="967" on="1"/>
        <pt x="559" y="967" on="0"/>
        <pt x="454" y="921" on="0"/>
        <pt x="389" y="827" on="0"/>
        <pt x="358" y="687" on="0"/>
        <pt x="356" y="592" on="1"/>
        <pt x="356" y="551" on="1"/>
        <pt x="356" y="450" on="0"/>
        <pt x="383" y="293" on="0"/>
        <pt x="448" y="186" on="0"/>
        <pt x="556" y="131" on="0"/>
        <pt x="637" y="131" on="1"/>
        <pt x="772" y="131" on="0"/>
        <pt x="899" y="349" on="0"/>
        <pt x="899" y="553" on="1"/>
        <pt x="899" y="761" on="0"/>
        <pt x="772" y="967" on="0"/>
      </contour>
    </TTGlyph>
    <TTGlyph name="paragraph" xMin="113" yMin="-260" xMax="1126" yMax="1556">
      <contour>
        <pt x="1126" y="-260" on="1"/>
        <pt x="1006" y="-260" on="1"/>
        <pt x="1006" y="1397" on="1"/>
        <pt x="799" y="1397" on="1"/>
        <pt x="799" y="-260" on="1"/>
        <pt x="678" y="-260" on="1"/>
        <pt x="678" y="559" on="1"/>
        <pt x="617" y="541" on="0"/>
        <pt x="532" y="541" on="1"/>
        <pt x="437" y="541" on="0"/>
        <pt x="282" y="592" on="0"/>
        <pt x="173" y="710" on="0"/>
        <pt x="113" y="902" on="0"/>
        <pt x="113" y="1042" on="1"/>
        <pt x="113" y="1189" on="0"/>
        <pt x="178" y="1386" on="0"/>
        <pt x="297" y="1506" on="0"/>
        <pt x="463" y="1556" on="0"/>
        <pt x="563" y="1556" on="1"/>
        <pt x="1126" y="1556" on="1"/>
      </contour>
    </TTGlyph>
    <TTGlyph name="parenleft" xMin="82" yMin="-324" xMax="555" yMax="1462">
      <contour>
        <pt x="82" y="561" on="1"/>
        <pt x="82" y="686" on="0"/>
        <pt x="118" y="929" on="0"/>
        <pt x="192" y="1158" on="0"/>
        <pt x="305" y="1369" on="0"/>
        <pt x="383" y="1462" on="1"/>
        <pt x="555" y="1462" on="1"/>
        <pt x="415" y="1269" on="0"/>
        <pt x="270" y="807" on="0"/>
        <pt x="270" y="563" on="1"/>
        <pt x="270" y="444" on="0"/>
        <pt x="307" y="208" on="0"/>
        <pt x="378" y="-18" on="0"/>
        <pt x="484" y="-230" on="0"/>
        <pt x="553" y="-324" on="1"/>
        <pt x="383" y="-324" on="1"/>
        <pt x="305" y="-234" on="0"/>
        <pt x="192" y="-28" on="0"/>
        <pt x="118" y="197" on="0"/>
        <pt x="82" y="437" on="0"/>
      </contour>
    </TTGlyph>
    <TTGlyph name="parenright" xMin="61" yMin="-324" xMax="535" yMax="1462">
      <contour>
        <pt x="535" y="561" on="1"/>
        <pt x="535" y="437" on="0"/>
        <pt x="499" y="197" on="0"/>
        <pt x="424" y="-28" on="0"/>
        <pt x="311" y="-234" on="0"/>
        <pt x="233" y="-324" on="1"/>
        <pt x="63" y="-324" on="1"/>
        <pt x="132" y="-230" on="0"/>
        <pt x="238" y="-18" on="0"/>
        <pt x="310" y="208" on="0"/>
        <pt x="346" y="444" on="0"/>
        <pt x="346" y="563" on="1"/>
        <pt x="346" y="807" on="0"/>
        <pt x="202" y="1269" on="0"/>
        <pt x="61" y="1462" on="1"/>
        <pt x="233" y="1462" on="1"/>
        <pt x="311" y="1369" on="0"/>
        <pt x="424" y="1158" on="0"/>
        <pt x="499" y="929" on="0"/>
        <pt x="535" y="686" on="0"/>
      </contour>
    </TTGlyph>
    <TTGlyph name="percent" xMin="102" yMin="-20" xMax="1587" yMax="1483">
      <contour>
        <pt x="250" y="1026" on="1"/>
        <pt x="250" y="861" on="0"/>
        <pt x="321" y="696" on="0"/>
        <pt x="401" y="696" on="1"/>
        <pt x="557" y="696" on="0"/>
        <pt x="557" y="1026" on="1"/>
        <pt x="557" y="1354" on="0"/>
        <pt x="401" y="1354" on="1"/>
        <pt x="321" y="1354" on="0"/>
        <pt x="250" y="1191" on="0"/>
      </contour>
      <contour>
        <pt x="705" y="1026" on="1"/>
        <pt x="705" y="918" on="0"/>
        <pt x="669" y="746" on="0"/>
        <pt x="595" y="628" on="0"/>
        <pt x="480" y="565" on="0"/>
        <pt x="401" y="565" on="1"/>
        <pt x="328" y="565" on="0"/>
        <pt x="216" y="628" on="0"/>
        <pt x="140" y="746" on="0"/>
        <pt x="102" y="918" on="0"/>
        <pt x="102" y="1026" on="1"/>
        <pt x="102" y="1134" on="0"/>
        <pt x="137" y="1304" on="0"/>
        <pt x="210" y="1421" on="0"/>
        <pt x="323" y="1483" on="0"/>
        <pt x="401" y="1483" on="1"/>
        <pt x="476" y="1483" on="0"/>
        <pt x="589" y="1421" on="0"/>
        <pt x="666" y="1304" on="0"/>
        <pt x="705" y="1134" on="0"/>
      </contour>
      <contour>
        <pt x="1133" y="440" on="1"/>
        <pt x="1133" y="275" on="0"/>
        <pt x="1204" y="111" on="0"/>
        <pt x="1284" y="111" on="1"/>
        <pt x="1440" y="111" on="0"/>
        <pt x="1440" y="440" on="1"/>
        <pt x="1440" y="768" on="0"/>
        <pt x="1284" y="768" on="1"/>
        <pt x="1204" y="768" on="0"/>
        <pt x="1133" y="605" on="0"/>
      </contour>
      <contour>
        <pt x="1587" y="440" on="1"/>
        <pt x="1587" y="332" on="0"/>
        <pt x="1552" y="161" on="0"/>
        <pt x="1478" y="43" on="0"/>
        <pt x="1363" y="-20" on="0"/>
        <pt x="1284" y="-20" on="1"/>
        <pt x="1210" y="-20" on="0"/>
        <pt x="1098" y="43" on="0"/>
        <pt x="1023" y="161" on="0"/>
        <pt x="985" y="332" on="0"/>
        <pt x="985" y="440" on="1"/>
        <pt x="985" y="548" on="0"/>
        <pt x="1020" y="718" on="0"/>
        <pt x="1093" y="835" on="0"/>
        <pt x="1206" y="897" on="0"/>
        <pt x="1284" y="897" on="1"/>
        <pt x="1359" y="897" on="0"/>
        <pt x="1472" y="835" on="0"/>
        <pt x="1548" y="718" on="0"/>
        <pt x="1587" y="548" on="0"/>
      </contour>
      <contour>
        <pt x="1331" y="1462" on="1"/>
        <pt x="520" y="0" on="1"/>
        <pt x="362" y="0" on="1"/>
        <pt x="1174" y="1462" on="1"/>
      </contour>
    </TTGlyph>
    <TTGlyph name="period" xMin="147" yMin="-29" xMax="401" yMax="250">
      <contour>
        <pt x="147" y="111" on="1"/>
        <pt x="147" y="149" on="0"/>
        <pt x="167" y="202" on="0"/>
        <pt x="201" y="235" on="0"/>
        <pt x="247" y="250" on="0"/>
        <pt x="274" y="250" on="1"/>
        <pt x="300" y="250" on="0"/>
        <pt x="347" y="235" on="0"/>
        <pt x="381" y="202" on="0"/>
        <pt x="401" y="149" on="0"/>
        <pt x="401" y="111" on="1"/>
        <pt x="401" y="74" on="0"/>
        <pt x="381" y="21" on="0"/>
        <pt x="347" y="-13" on="0"/>
        <pt x="300" y="-29" on="0"/>
        <pt x="274" y="-29" on="1"/>
        <pt x="247" y="-29" on="0"/>
        <pt x="201" y="-13" on="0"/>
        <pt x="167" y="21" on="0"/>
        <pt x="147" y="74" on="0"/>
      </contour>
    </TTGlyph>
    <TTGlyph name="periodcentered" xMin="147" yMin="584" xMax="401" yMax="862">
      <contour>
        <pt x="147" y="723" on="1"/>
        <pt x="147" y="761" on="0"/>
        <pt x="167" y="814" on="0"/>
        <pt x="201" y="847" on="0"/>
        <pt x="247" y="862" on="0"/>
        <pt x="274" y="862" on="1"/>
        <pt x="300" y="862" on="0"/>
        <pt x="347" y="847" on="0"/>
        <pt x="381" y="814" on="0"/>
        <pt x="401" y="761" on="0"/>
        <pt x="401" y="723" on="1"/>
        <pt x="401" y="686" on="0"/>
        <pt x="381" y="634" on="0"/>
        <pt x="347" y="600" on="0"/>
        <pt x="300" y="584" on="0"/>
        <pt x="274" y="584" on="1"/>
        <pt x="247" y="584" on="0"/>
        <pt x="201" y="600" on="0"/>
        <pt x="167" y="634" on="0"/>
        <pt x="147" y="686" on="0"/>
      </contour>
    </TTGlyph>
    <TTGlyph name="plus" xMin="102" yMin="262" xMax="1026" yMax="1186">
      <contour>
        <pt x="489" y="647" on="1"/>
        <pt x="102" y="647" on="1"/>
        <pt x="102" y="797" on="1"/>
        <pt x="489" y="797" on="1"/>
        <pt x="489" y="1186" on="1"/>
        <pt x="639" y="1186" on="1"/>
        <pt x="639" y="797" on="1"/>
        <pt x="1026" y="797" on="1"/>
        <pt x="1026" y="647" on="1"/>
        <pt x="639" y="647" on="1"/>
        <pt x="639" y="262" on="1"/>
        <pt x="489" y="262" on="1"/>
      </contour>
    </TTGlyph>
    <TTGlyph name="plusminus" xMin="102" yMin="0" xMax="1026" yMax="1186">
      <contour>
        <pt x="489" y="647" on="1"/>
        <pt x="102" y="647" on="1"/>
        <pt x="102" y="797" on="1"/>
        <pt x="489" y="797" on="1"/>
        <pt x="489" y="1186" on="1"/>
        <pt x="639" y="1186" on="1"/>
        <pt x="639" y="797" on="1"/>
        <pt x="1026" y="797" on="1"/>
        <pt x="1026" y="647" on="1"/>
        <pt x="639" y="647" on="1"/>
        <pt x="639" y="262" on="1"/>
        <pt x="489" y="262" on="1"/>
      </contour>
      <contour>
        <pt x="102" y="0" on="1"/>
        <pt x="102" y="150" on="1"/>
        <pt x="1026" y="150" on="1"/>
        <pt x="1026" y="0" on="1"/>
      </contour>
    </TTGlyph>
    <TTGlyph name="q" xMin="113" yMin="-492" xMax="1026" yMax="1118">
      <contour>
        <pt x="565" y="131" on="1"/>
        <pt x="641" y="131" on="0"/>
        <pt x="746" y="177" on="0"/>
        <pt x="811" y="271" on="0"/>
        <pt x="842" y="412" on="0"/>
        <pt x="844" y="506" on="1"/>
        <pt x="844" y="547" on="1"/>
        <pt x="844" y="648" on="0"/>
        <pt x="817" y="805" on="0"/>
        <pt x="752" y="912" on="0"/>
        <pt x="644" y="967" on="0"/>
        <pt x="563" y="967" on="1"/>
        <pt x="428" y="967" on="0"/>
        <pt x="301" y="749" on="0"/>
        <pt x="301" y="545" on="1"/>
        <pt x="301" y="336" on="0"/>
        <pt x="428" y="131" on="0"/>
      </contour>
      <contour>
        <pt x="530" y="-20" on="1"/>
        <pt x="437" y="-20" on="0"/>
        <pt x="283" y="52" on="0"/>
        <pt x="173" y="195" on="0"/>
        <pt x="113" y="407" on="0"/>
        <pt x="113" y="547" on="1"/>
        <pt x="113" y="688" on="0"/>
        <pt x="173" y="901" on="0"/>
        <pt x="283" y="1045" on="0"/>
        <pt x="437" y="1118" on="0"/>
        <pt x="530" y="1118" on="1"/>
        <pt x="589" y="1118" on="0"/>
        <pt x="685" y="1091" on="0"/>
        <pt x="761" y="1046" on="0"/>
        <pt x="821" y="985" on="0"/>
        <pt x="844" y="950" on="1"/>
        <pt x="852" y="950" on="1"/>
        <pt x="879" y="1098" on="1"/>
        <pt x="1026" y="1098" on="1"/>
        <pt x="1026" y="-492" on="1"/>
        <pt x="844" y="-492" on="1"/>
        <pt x="844" y="-23" on="1"/>
        <pt x="844" y="-4" on="0"/>
        <pt x="848" y="54" on="0"/>
        <pt x="850" y="81" on="1"/>
        <pt x="853" y="113" on="0"/>
        <pt x="856" y="147" on="1"/>
        <pt x="844" y="147" on="1"/>
        <pt x="822" y="113" on="0"/>
        <pt x="763" y="52" on="0"/>
        <pt x="686" y="6" on="0"/>
        <pt x="590" y="-20" on="0"/>
      </contour>
    </TTGlyph>
    <TTGlyph name="question" xMin="37" yMin="-29" xMax="805" yMax="1483">
      <contour>
        <pt x="281" y="414" on="1"/>
        <pt x="281" y="451" on="1"/>
        <pt x="281" y="508" on="0"/>
        <pt x="296" y="600" on="0"/>
        <pt x="335" y="680" on="0"/>
        <pt x="401" y="757" on="0"/>
        <pt x="451" y="799" on="1"/>
        <pt x="499" y="840" on="0"/>
        <pt x="567" y="907" on="0"/>
        <pt x="610" y="976" on="0"/>
        <pt x="631" y="1055" on="0"/>
        <pt x="631" y="1108" on="1"/>
        <pt x="631" y="1156" on="0"/>
        <pt x="601" y="1235" on="0"/>
        <pt x="544" y="1292" on="0"/>
        <pt x="459" y="1323" on="0"/>
        <pt x="403" y="1323" on="1"/>
        <pt x="320" y="1323" on="0"/>
        <pt x="170" y="1271" on="0"/>
        <pt x="100" y="1237" on="1"/>
        <pt x="37" y="1382" on="1"/>
        <pt x="118" y="1424" on="0"/>
        <pt x="306" y="1483" on="0"/>
        <pt x="403" y="1483" on="1"/>
        <pt x="496" y="1483" on="0"/>
        <pt x="645" y="1432" on="0"/>
        <pt x="749" y="1336" on="0"/>
        <pt x="805" y="1197" on="0"/>
        <pt x="805" y="1110" on="1"/>
        <pt x="805" y="1043" on="0"/>
        <pt x="778" y="938" on="0"/>
        <pt x="724" y="848" on="0"/>
        <pt x="644" y="764" on="0"/>
        <pt x="590" y="717" on="1"/>
        <pt x="538" y="672" on="0"/>
        <pt x="472" y="605" on="0"/>
        <pt x="434" y="542" on="0"/>
        <pt x="420" y="476" on="0"/>
        <pt x="420" y="432" on="1"/>
        <pt x="420" y="414" on="1"/>
      </contour>
      <contour>
        <pt x="233" y="111" on="1"/>
        <pt x="233" y="149" on="0"/>
        <pt x="253" y="202" on="0"/>
        <pt x="287" y="235" on="0"/>
        <pt x="333" y="250" on="0"/>
        <pt x="360" y="250" on="1"/>
        <pt x="386" y="250" on="0"/>
        <pt x="433" y="235" on="0"/>
        <pt x="467" y="202" on="0"/>
        <pt x="487" y="149" on="0"/>
        <pt x="487" y="111" on="1"/>
        <pt x="487" y="74" on="0"/>
        <pt x="467" y="21" on="0"/>
        <pt x="433" y="-13" on="0"/>
        <pt x="386" y="-29" on="0"/>
        <pt x="360" y="-29" on="1"/>
        <pt x="333" y="-29" on="0"/>
        <pt x="287" y="-13" on="0"/>
        <pt x="253" y="21" on="0"/>
        <pt x="233" y="74" on="0"/>
      </contour>
    </TTGlyph>
    <TTGlyph name="questiondown" xMin="68" yMin="-393" xMax="836" yMax="1118">
      <contour>
        <pt x="592" y="676" on="1"/>
        <pt x="592" y="639" on="1"/>
        <pt x="592" y="581" on="0"/>
        <pt x="576" y="490" on="0"/>
        <pt x="537" y="409" on="0"/>
        <pt x="472" y="333" on="0"/>
        <pt x="422" y="291" on="1"/>
        <pt x="374" y="250" on="0"/>
        <pt x="306" y="183" on="0"/>
        <pt x="263" y="114" on="0"/>
        <pt x="242" y="35" on="0"/>
        <pt x="242" y="-18" on="1"/>
        <pt x="242" y="-66" on="0"/>
        <pt x="272" y="-145" on="0"/>
        <pt x="329" y="-202" on="0"/>
        <pt x="414" y="-233" on="0"/>
        <pt x="469" y="-233" on="1"/>
        <pt x="553" y="-233" on="0"/>
        <pt x="703" y="-182" on="0"/>
        <pt x="772" y="-147" on="1"/>
        <pt x="836" y="-293" on="1"/>
        <pt x="754" y="-335" on="0"/>
        <pt x="566" y="-393" on="0"/>
        <pt x="469" y="-393" on="1"/>
        <pt x="376" y="-393" on="0"/>
        <pt x="227" y="-342" on="0"/>
        <pt x="124" y="-246" on="0"/>
        <pt x="68" y="-108" on="0"/>
        <pt x="68" y="-20" on="1"/>
        <pt x="68" y="48" on="0"/>
        <pt x="95" y="152" on="0"/>
        <pt x="148" y="242" on="0"/>
        <pt x="229" y="326" on="0"/>
        <pt x="283" y="373" on="1"/>
        <pt x="335" y="418" on="0"/>
        <pt x="401" y="485" on="0"/>
        <pt x="439" y="547" on="0"/>
        <pt x="453" y="614" on="0"/>
        <pt x="453" y="657" on="1"/>
        <pt x="453" y="676" on="1"/>
      </contour>
      <contour>
        <pt x="639" y="979" on="1"/>
        <pt x="639" y="941" on="0"/>
        <pt x="620" y="888" on="0"/>
        <pt x="585" y="855" on="0"/>
        <pt x="539" y="840" on="0"/>
        <pt x="512" y="840" on="1"/>
        <pt x="486" y="840" on="0"/>
        <pt x="440" y="855" on="0"/>
        <pt x="405" y="888" on="0"/>
        <pt x="385" y="941" on="0"/>
        <pt x="385" y="979" on="1"/>
        <pt x="385" y="1016" on="0"/>
        <pt x="405" y="1068" on="0"/>
        <pt x="440" y="1102" on="0"/>
        <pt x="486" y="1118" on="0"/>
        <pt x="512" y="1118" on="1"/>
        <pt x="539" y="1118" on="0"/>
        <pt x="585" y="1102" on="0"/>
        <pt x="620" y="1068" on="0"/>
        <pt x="639" y="1016" on="0"/>
      </contour>
    </TTGlyph>
    <TTGlyph name="quotedbl" xMin="133" yMin="934" xMax="690" yMax="1462">
      <contour>
        <pt x="330" y="1462" on="1"/>
        <pt x="289" y="934" on="1"/>
        <pt x="174" y="934" on="1"/>
        <pt x="133" y="1462" on="1"/>
      </contour>
      <contour>
        <pt x="690" y="1462" on="1"/>
        <pt x="649" y="934" on="1"/>
        <pt x="535" y="934" on="1"/>
        <pt x="494" y="1462" on="1"/>
      </contour>
    </TTGlyph>
    <TTGlyph name="quotedblbase" xMin="63" yMin="-264" xMax="762" yMax="238">
      <contour>
        <pt x="362" y="238" on="1"/>
        <pt x="377" y="215" on="1"/>
        <pt x="363" y="161" on="0"/>
        <pt x="324" y="39" on="0"/>
        <pt x="277" y="-85" on="0"/>
        <pt x="226" y="-208" on="0"/>
        <pt x="201" y="-264" on="1"/>
        <pt x="63" y="-264" on="1"/>
        <pt x="78" y="-203" on="0"/>
        <pt x="107" y="-71" on="0"/>
        <pt x="134" y="60" on="0"/>
        <pt x="156" y="185" on="0"/>
        <pt x="164" y="238" on="1"/>
      </contour>
      <contour>
        <pt x="748" y="238" on="1"/>
        <pt x="762" y="215" on="1"/>
        <pt x="748" y="161" on="0"/>
        <pt x="709" y="39" on="0"/>
        <pt x="662" y="-85" on="0"/>
        <pt x="611" y="-208" on="0"/>
        <pt x="586" y="-264" on="1"/>
        <pt x="449" y="-264" on="1"/>
        <pt x="463" y="-203" on="0"/>
        <pt x="492" y="-71" on="0"/>
        <pt x="519" y="60" on="0"/>
        <pt x="541" y="185" on="0"/>
        <pt x="549" y="238" on="1"/>
      </contour>
    </TTGlyph>
    <TTGlyph name="quotedblleft" xMin="23" yMin="961" xMax="721" yMax="1462">
      <contour>
        <pt x="422" y="961" on="1"/>
        <pt x="408" y="983" on="1"/>
        <pt x="422" y="1037" on="0"/>
        <pt x="461" y="1159" on="0"/>
        <pt x="507" y="1283" on="0"/>
        <pt x="559" y="1406" on="0"/>
        <pt x="584" y="1462" on="1"/>
        <pt x="721" y="1462" on="1"/>
        <pt x="706" y="1401" on="0"/>
        <pt x="677" y="1269" on="0"/>
        <pt x="651" y="1138" on="0"/>
        <pt x="629" y="1014" on="0"/>
        <pt x="621" y="961" on="1"/>
      </contour>
      <contour>
        <pt x="37" y="961" on="1"/>
        <pt x="23" y="983" on="1"/>
        <pt x="37" y="1037" on="0"/>
        <pt x="76" y="1159" on="0"/>
        <pt x="122" y="1283" on="0"/>
        <pt x="174" y="1406" on="0"/>
        <pt x="199" y="1462" on="1"/>
        <pt x="336" y="1462" on="1"/>
        <pt x="321" y="1401" on="0"/>
        <pt x="292" y="1269" on="0"/>
        <pt x="266" y="1138" on="0"/>
        <pt x="244" y="1014" on="0"/>
        <pt x="236" y="961" on="1"/>
      </contour>
    </TTGlyph>
    <TTGlyph name="quotedblright" xMin="23" yMin="961" xMax="721" yMax="1462">
      <contour>
        <pt x="322" y="1462" on="1"/>
        <pt x="336" y="1440" on="1"/>
        <pt x="322" y="1385" on="0"/>
        <pt x="283" y="1264" on="0"/>
        <pt x="236" y="1139" on="0"/>
        <pt x="185" y="1017" on="0"/>
        <pt x="160" y="961" on="1"/>
        <pt x="23" y="961" on="1"/>
        <pt x="37" y="1021" on="0"/>
        <pt x="66" y="1153" on="0"/>
        <pt x="93" y="1285" on="0"/>
        <pt x="115" y="1409" on="0"/>
        <pt x="123" y="1462" on="1"/>
      </contour>
      <contour>
        <pt x="707" y="1462" on="1"/>
        <pt x="721" y="1440" on="1"/>
        <pt x="707" y="1385" on="0"/>
        <pt x="668" y="1264" on="0"/>
        <pt x="621" y="1139" on="0"/>
        <pt x="570" y="1017" on="0"/>
        <pt x="545" y="961" on="1"/>
        <pt x="408" y="961" on="1"/>
        <pt x="422" y="1021" on="0"/>
        <pt x="451" y="1153" on="0"/>
        <pt x="478" y="1285" on="0"/>
        <pt x="500" y="1409" on="0"/>
        <pt x="508" y="1462" on="1"/>
      </contour>
    </TTGlyph>
    <TTGlyph name="quoteleft" xMin="23" yMin="961" xMax="336" yMax="1462">
      <contour>
        <pt x="37" y="961" on="1"/>
        <pt x="23" y="983" on="1"/>
        <pt x="37" y="1037" on="0"/>
        <pt x="76" y="1159" on="0"/>
        <pt x="122" y="1283" on="0"/>
        <pt x="174" y="1406" on="0"/>
        <pt x="199" y="1462" on="1"/>
        <pt x="336" y="1462" on="1"/>
        <pt x="321" y="1401" on="0"/>
        <pt x="292" y="1269" on="0"/>
        <pt x="266" y="1138" on="0"/>
        <pt x="244" y="1014" on="0"/>
        <pt x="236" y="961" on="1"/>
      </contour>
    </TTGlyph>
    <TTGlyph name="quoteright" xMin="23" yMin="961" xMax="336" yMax="1462">
      <contour>
        <pt x="322" y="1462" on="1"/>
        <pt x="336" y="1440" on="1"/>
        <pt x="322" y="1385" on="0"/>
        <pt x="283" y="1264" on="0"/>
        <pt x="236" y="1139" on="0"/>
        <pt x="185" y="1017" on="0"/>
        <pt x="160" y="961" on="1"/>
        <pt x="23" y="961" on="1"/>
        <pt x="37" y="1021" on="0"/>
        <pt x="66" y="1153" on="0"/>
        <pt x="93" y="1285" on="0"/>
        <pt x="115" y="1409" on="0"/>
        <pt x="123" y="1462" on="1"/>
      </contour>
    </TTGlyph>
    <TTGlyph name="quotesinglbase" xMin="63" yMin="-264" xMax="377" yMax="238">
      <contour>
        <pt x="362" y="238" on="1"/>
        <pt x="377" y="215" on="1"/>
        <pt x="363" y="161" on="0"/>
        <pt x="324" y="39" on="0"/>
        <pt x="277" y="-85" on="0"/>
        <pt x="226" y="-208" on="0"/>
        <pt x="201" y="-264" on="1"/>
        <pt x="63" y="-264" on="1"/>
        <pt x="78" y="-203" on="0"/>
        <pt x="107" y="-71" on="0"/>
        <pt x="134" y="60" on="0"/>
        <pt x="156" y="185" on="0"/>
        <pt x="164" y="238" on="1"/>
      </contour>
    </TTGlyph>
    <TTGlyph name="quotesingle" xMin="133" yMin="934" xMax="330" yMax="1462">
      <contour>
        <pt x="330" y="1462" on="1"/>
        <pt x="289" y="934" on="1"/>
        <pt x="174" y="934" on="1"/>
        <pt x="133" y="1462" on="1"/>
      </contour>
    </TTGlyph>
    <TTGlyph name="r" xMin="174" yMin="0" xMax="776" yMax="1118">
      <contour>
        <pt x="649" y="1118" on="1"/>
        <pt x="678" y="1118" on="0"/>
        <pt x="750" y="1113" on="0"/>
        <pt x="776" y="1108" on="1"/>
        <pt x="752" y="940" on="1"/>
        <pt x="724" y="945" on="0"/>
        <pt x="665" y="952" on="0"/>
        <pt x="639" y="952" on="1"/>
        <pt x="576" y="952" on="0"/>
        <pt x="472" y="901" on="0"/>
        <pt x="397" y="806" on="0"/>
        <pt x="356" y="673" on="0"/>
        <pt x="356" y="592" on="1"/>
        <pt x="356" y="0" on="1"/>
        <pt x="174" y="0" on="1"/>
        <pt x="174" y="1098" on="1"/>
        <pt x="322" y="1098" on="1"/>
        <pt x="344" y="897" on="1"/>
        <pt x="352" y="897" on="1"/>
        <pt x="377" y="940" on="0"/>
        <pt x="434" y="1020" on="0"/>
        <pt x="505" y="1081" on="0"/>
        <pt x="593" y="1118" on="0"/>
      </contour>
    </TTGlyph>
    <TTGlyph name="registered" xMin="100" yMin="-20" xMax="1604" yMax="1483">
      <contour>
        <pt x="743" y="768" on="1"/>
        <pt x="815" y="768" on="1"/>
        <pt x="906" y="768" on="0"/>
        <pt x="985" y="840" on="0"/>
        <pt x="985" y="909" on="1"/>
        <pt x="985" y="983" on="0"/>
        <pt x="902" y="1042" on="0"/>
        <pt x="813" y="1042" on="1"/>
        <pt x="743" y="1042" on="1"/>
      </contour>
      <contour>
        <pt x="1145" y="913" on="1"/>
        <pt x="1145" y="865" on="0"/>
        <pt x="1118" y="790" on="0"/>
        <pt x="1073" y="733" on="0"/>
        <pt x="1016" y="693" on="0"/>
        <pt x="985" y="680" on="1"/>
        <pt x="1052" y="570" on="0"/>
        <pt x="1105" y="483" on="1"/>
        <pt x="1128" y="446" on="0"/>
        <pt x="1170" y="375" on="0"/>
        <pt x="1203" y="319" on="0"/>
        <pt x="1213" y="302" on="1"/>
        <pt x="1223" y="285" on="1"/>
        <pt x="1044" y="285" on="1"/>
        <pt x="838" y="637" on="1"/>
        <pt x="743" y="637" on="1"/>
        <pt x="743" y="285" on="1"/>
        <pt x="586" y="285" on="1"/>
        <pt x="586" y="1178" on="1"/>
        <pt x="819" y="1178" on="1"/>
        <pt x="987" y="1178" on="0"/>
        <pt x="1145" y="1048" on="0"/>
      </contour>
      <contour>
        <pt x="100" y="731" on="1"/>
        <pt x="100" y="835" on="0"/>
        <pt x="154" y="1027" on="0"/>
        <pt x="251" y="1194" on="0"/>
        <pt x="389" y="1332" on="0"/>
        <pt x="556" y="1429" on="0"/>
        <pt x="748" y="1483" on="0"/>
        <pt x="852" y="1483" on="1"/>
        <pt x="956" y="1483" on="0"/>
        <pt x="1148" y="1429" on="0"/>
        <pt x="1315" y="1332" on="0"/>
        <pt x="1453" y="1194" on="0"/>
        <pt x="1550" y="1027" on="0"/>
        <pt x="1604" y="835" on="0"/>
        <pt x="1604" y="731" on="1"/>
        <pt x="1604" y="627" on="0"/>
        <pt x="1550" y="435" on="0"/>
        <pt x="1453" y="268" on="0"/>
        <pt x="1315" y="131" on="0"/>
        <pt x="1148" y="33" on="0"/>
        <pt x="956" y="-20" on="0"/>
        <pt x="852" y="-20" on="1"/>
        <pt x="748" y="-20" on="0"/>
        <pt x="556" y="33" on="0"/>
        <pt x="389" y="131" on="0"/>
        <pt x="251" y="268" on="0"/>
        <pt x="154" y="435" on="0"/>
        <pt x="100" y="627" on="0"/>
      </contour>
      <contour>
        <pt x="209" y="731" on="1"/>
        <pt x="209" y="598" on="0"/>
        <pt x="310" y="364" on="0"/>
        <pt x="485" y="189" on="0"/>
        <pt x="719" y="88" on="0"/>
        <pt x="852" y="88" on="1"/>
        <pt x="985" y="88" on="0"/>
        <pt x="1219" y="189" on="0"/>
        <pt x="1394" y="364" on="0"/>
        <pt x="1495" y="598" on="0"/>
        <pt x="1495" y="731" on="1"/>
        <pt x="1495" y="864" on="0"/>
        <pt x="1394" y="1098" on="0"/>
        <pt x="1219" y="1273" on="0"/>
        <pt x="985" y="1374" on="0"/>
        <pt x="852" y="1374" on="1"/>
        <pt x="719" y="1374" on="0"/>
        <pt x="485" y="1273" on="0"/>
        <pt x="310" y="1098" on="0"/>
        <pt x="209" y="864" on="0"/>
      </contour>
    </TTGlyph>
    <TTGlyph name="ring" xMin="365" yMin="1241" xMax="817" yMax="1671">
      <contour>
        <pt x="817" y="1458" on="1"/>
        <pt x="817" y="1407" on="0"/>
        <pt x="782" y="1326" on="0"/>
        <pt x="721" y="1270" on="0"/>
        <pt x="637" y="1241" on="0"/>
        <pt x="588" y="1241" on="1"/>
        <pt x="538" y="1241" on="0"/>
        <pt x="456" y="1270" on="0"/>
        <pt x="397" y="1326" on="0"/>
        <pt x="365" y="1405" on="0"/>
        <pt x="365" y="1456" on="1"/>
        <pt x="365" y="1507" on="0"/>
        <pt x="397" y="1586" on="0"/>
        <pt x="456" y="1642" on="0"/>
        <pt x="538" y="1671" on="0"/>
        <pt x="588" y="1671" on="1"/>
        <pt x="636" y="1671" on="0"/>
        <pt x="720" y="1642" on="0"/>
        <pt x="782" y="1587" on="0"/>
        <pt x="817" y="1508" on="0"/>
      </contour>
      <contour>
        <pt x="700" y="1456" on="1"/>
        <pt x="700" y="1509" on="0"/>
        <pt x="637" y="1569" on="0"/>
        <pt x="588" y="1569" on="1"/>
        <pt x="538" y="1569" on="0"/>
        <pt x="475" y="1509" on="0"/>
        <pt x="475" y="1456" on="1"/>
        <pt x="475" y="1403" on="0"/>
        <pt x="532" y="1343" on="0"/>
        <pt x="588" y="1343" on="1"/>
        <pt x="637" y="1343" on="0"/>
        <pt x="700" y="1403" on="0"/>
      </contour>
    </TTGlyph>
    <TTGlyph name="s" xMin="90" yMin="-20" xMax="831" yMax="1118">
      <contour>
        <pt x="831" y="301" on="1"/>
        <pt x="831" y="221" on="0"/>
        <pt x="773" y="101" on="0"/>
        <pt x="664" y="20" on="0"/>
        <pt x="510" y="-20" on="0"/>
        <pt x="414" y="-20" on="1"/>
        <pt x="305" y="-20" on="0"/>
        <pt x="149" y="15" on="0"/>
        <pt x="90" y="49" on="1"/>
        <pt x="90" y="215" on="1"/>
        <pt x="121" y="199" on="0"/>
        <pt x="197" y="168" on="0"/>
        <pt x="281" y="144" on="0"/>
        <pt x="370" y="129" on="0"/>
        <pt x="414" y="129" on="1"/>
        <pt x="479" y="129" on="0"/>
        <pt x="570" y="151" on="0"/>
        <pt x="627" y="192" on="0"/>
        <pt x="653" y="251" on="0"/>
        <pt x="653" y="287" on="1"/>
        <pt x="653" y="318" on="0"/>
        <pt x="633" y="368" on="0"/>
        <pt x="580" y="417" on="0"/>
        <pt x="488" y="467" on="0"/>
        <pt x="416" y="498" on="1"/>
        <pt x="344" y="529" on="0"/>
        <pt x="229" y="589" on="0"/>
        <pt x="149" y="663" on="0"/>
        <pt x="106" y="760" on="0"/>
        <pt x="106" y="827" on="1"/>
        <pt x="106" y="897" on="0"/>
        <pt x="161" y="1006" on="0"/>
        <pt x="261" y="1080" on="0"/>
        <pt x="401" y="1118" on="0"/>
        <pt x="487" y="1118" on="1"/>
        <pt x="584" y="1118" on="0"/>
        <pt x="745" y="1076" on="0"/>
        <pt x="817" y="1042" on="1"/>
        <pt x="754" y="895" on="1"/>
        <pt x="689" y="924" on="0"/>
        <pt x="552" y="967" on="0"/>
        <pt x="481" y="967" on="1"/>
        <pt x="379" y="967" on="0"/>
        <pt x="281" y="900" on="0"/>
        <pt x="281" y="838" on="1"/>
        <pt x="281" y="803" on="0"/>
        <pt x="304" y="751" on="0"/>
        <pt x="360" y="705" on="0"/>
        <pt x="454" y="658" on="0"/>
        <pt x="524" y="629" on="1"/>
        <pt x="596" y="599" on="0"/>
        <pt x="709" y="539" on="0"/>
        <pt x="789" y="464" on="0"/>
        <pt x="831" y="368" on="0"/>
      </contour>
    </TTGlyph>
    <TTGlyph name="section" xMin="121" yMin="-10" xMax="862" yMax="1567">
      <contour>
        <pt x="137" y="809" on="1"/>
        <pt x="137" y="860" on="0"/>
        <pt x="163" y="943" on="0"/>
        <pt x="208" y="1007" on="0"/>
        <pt x="266" y="1052" on="0"/>
        <pt x="297" y="1067" on="1"/>
        <pt x="222" y="1105" on="0"/>
        <pt x="137" y="1219" on="0"/>
        <pt x="137" y="1303" on="1"/>
        <pt x="137" y="1364" on="0"/>
        <pt x="192" y="1462" on="0"/>
        <pt x="292" y="1530" on="0"/>
        <pt x="432" y="1567" on="0"/>
        <pt x="518" y="1567" on="1"/>
        <pt x="615" y="1567" on="0"/>
        <pt x="772" y="1527" on="0"/>
        <pt x="844" y="1495" on="1"/>
        <pt x="788" y="1356" on="1"/>
        <pt x="723" y="1384" on="0"/>
        <pt x="583" y="1423" on="0"/>
        <pt x="512" y="1423" on="1"/>
        <pt x="413" y="1423" on="0"/>
        <pt x="311" y="1364" on="0"/>
        <pt x="311" y="1307" on="1"/>
        <pt x="311" y="1280" on="0"/>
        <pt x="335" y="1234" on="0"/>
        <pt x="392" y="1190" on="0"/>
        <pt x="487" y="1143" on="0"/>
        <pt x="557" y="1114" on="1"/>
        <pt x="629" y="1086" on="0"/>
        <pt x="742" y="1021" on="0"/>
        <pt x="820" y="943" on="0"/>
        <pt x="862" y="846" on="0"/>
        <pt x="862" y="784" on="1"/>
        <pt x="862" y="732" on="0"/>
        <pt x="838" y="647" on="0"/>
        <pt x="797" y="579" on="0"/>
        <pt x="745" y="530" on="0"/>
        <pt x="717" y="514" on="1"/>
        <pt x="786" y="476" on="0"/>
        <pt x="862" y="367" on="0"/>
        <pt x="862" y="289" on="1"/>
        <pt x="862" y="218" on="0"/>
        <pt x="803" y="107" on="0"/>
        <pt x="695" y="30" on="0"/>
        <pt x="540" y="-10" on="0"/>
        <pt x="444" y="-10" on="1"/>
        <pt x="336" y="-10" on="0"/>
        <pt x="180" y="23" on="0"/>
        <pt x="121" y="55" on="1"/>
        <pt x="121" y="213" on="1"/>
        <pt x="152" y="198" on="0"/>
        <pt x="228" y="168" on="0"/>
        <pt x="312" y="145" on="0"/>
        <pt x="401" y="131" on="0"/>
        <pt x="444" y="131" on="1"/>
        <pt x="513" y="131" on="0"/>
        <pt x="606" y="155" on="0"/>
        <pt x="661" y="194" on="0"/>
        <pt x="684" y="245" on="0"/>
        <pt x="684" y="272" on="1"/>
        <pt x="684" y="301" on="0"/>
        <pt x="667" y="346" on="0"/>
        <pt x="616" y="391" on="0"/>
        <pt x="522" y="440" on="0"/>
        <pt x="446" y="471" on="1"/>
        <pt x="373" y="502" on="0"/>
        <pt x="258" y="564" on="0"/>
        <pt x="178" y="642" on="0"/>
        <pt x="137" y="742" on="0"/>
      </contour>
      <contour>
        <pt x="291" y="831" on="1"/>
        <pt x="291" y="794" on="0"/>
        <pt x="319" y="731" on="0"/>
        <pt x="382" y="673" on="0"/>
        <pt x="483" y="618" on="0"/>
        <pt x="555" y="588" on="1"/>
        <pt x="590" y="573" on="1"/>
        <pt x="610" y="586" on="0"/>
        <pt x="651" y="622" on="0"/>
        <pt x="684" y="668" on="0"/>
        <pt x="705" y="724" on="0"/>
        <pt x="705" y="758" on="1"/>
        <pt x="705" y="796" on="0"/>
        <pt x="679" y="860" on="0"/>
        <pt x="614" y="919" on="0"/>
        <pt x="506" y="976" on="0"/>
        <pt x="424" y="1006" on="1"/>
        <pt x="399" y="998" on="0"/>
        <pt x="352" y="967" on="0"/>
        <pt x="314" y="922" on="0"/>
        <pt x="291" y="864" on="0"/>
      </contour>
    </TTGlyph>
    <TTGlyph name="semicolon" xMin="63" yMin="-264" xMax="401" yMax="1126">
      <contour>
        <pt x="362" y="238" on="1"/>
        <pt x="377" y="215" on="1"/>
        <pt x="363" y="161" on="0"/>
        <pt x="324" y="39" on="0"/>
        <pt x="277" y="-85" on="0"/>
        <pt x="226" y="-208" on="0"/>
        <pt x="201" y="-264" on="1"/>
        <pt x="63" y="-264" on="1"/>
        <pt x="78" y="-203" on="0"/>
        <pt x="107" y="-71" on="0"/>
        <pt x="134" y="60" on="0"/>
        <pt x="156" y="185" on="0"/>
        <pt x="164" y="238" on="1"/>
      </contour>
      <contour>
        <pt x="147" y="987" on="1"/>
        <pt x="147" y="1026" on="0"/>
        <pt x="167" y="1079" on="0"/>
        <pt x="201" y="1112" on="0"/>
        <pt x="247" y="1126" on="0"/>
        <pt x="274" y="1126" on="1"/>
        <pt x="300" y="1126" on="0"/>
        <pt x="347" y="1112" on="0"/>
        <pt x="381" y="1079" on="0"/>
        <pt x="401" y="1026" on="0"/>
        <pt x="401" y="987" on="1"/>
        <pt x="401" y="950" on="0"/>
        <pt x="381" y="898" on="0"/>
        <pt x="347" y="864" on="0"/>
        <pt x="300" y="848" on="0"/>
        <pt x="274" y="848" on="1"/>
        <pt x="247" y="848" on="0"/>
        <pt x="201" y="864" on="0"/>
        <pt x="167" y="898" on="0"/>
        <pt x="147" y="950" on="0"/>
      </contour>
    </TTGlyph>
    <TTGlyph name="seven" xMin="90" yMin="0" xMax="1030" yMax="1462">
      <contour>
        <pt x="281" y="0" on="1"/>
        <pt x="844" y="1296" on="1"/>
        <pt x="90" y="1296" on="1"/>
        <pt x="90" y="1462" on="1"/>
        <pt x="1030" y="1462" on="1"/>
        <pt x="1030" y="1317" on="1"/>
        <pt x="475" y="0" on="1"/>
      </contour>
    </TTGlyph>
    <TTGlyph name="six" xMin="113" yMin="-20" xMax="1034" yMax="1483">
      <contour>
        <pt x="113" y="625" on="1"/>
        <pt x="113" y="730" on="0"/>
        <pt x="134" y="938" on="0"/>
        <pt x="187" y="1129" on="0"/>
        <pt x="279" y="1293" on="0"/>
        <pt x="421" y="1414" on="0"/>
        <pt x="619" y="1483" on="0"/>
        <pt x="752" y="1483" on="1"/>
        <pt x="771" y="1483" on="0"/>
        <pt x="817" y="1481" on="0"/>
        <pt x="864" y="1476" on="0"/>
        <pt x="907" y="1469" on="0"/>
        <pt x="924" y="1464" on="1"/>
        <pt x="924" y="1309" on="1"/>
        <pt x="889" y="1321" on="0"/>
        <pt x="801" y="1333" on="0"/>
        <pt x="758" y="1333" on="1"/>
        <pt x="668" y="1333" on="0"/>
        <pt x="531" y="1290" on="0"/>
        <pt x="431" y="1212" on="0"/>
        <pt x="364" y="1104" on="0"/>
        <pt x="322" y="973" on="0"/>
        <pt x="302" y="825" on="0"/>
        <pt x="299" y="745" on="1"/>
        <pt x="311" y="745" on="1"/>
        <pt x="331" y="781" on="0"/>
        <pt x="388" y="844" on="0"/>
        <pt x="464" y="889" on="0"/>
        <pt x="559" y="915" on="0"/>
        <pt x="618" y="915" on="1"/>
        <pt x="713" y="915" on="0"/>
        <pt x="867" y="856" on="0"/>
        <pt x="975" y="742" on="0"/>
        <pt x="1034" y="577" on="0"/>
        <pt x="1034" y="471" on="1"/>
        <pt x="1034" y="357" on="0"/>
        <pt x="972" y="175" on="0"/>
        <pt x="856" y="48" on="0"/>
        <pt x="692" y="-20" on="0"/>
        <pt x="590" y="-20" on="1"/>
        <pt x="490" y="-20" on="0"/>
        <pt x="315" y="58" on="0"/>
        <pt x="187" y="218" on="0"/>
        <pt x="113" y="460" on="0"/>
      </contour>
      <contour>
        <pt x="588" y="133" on="1"/>
        <pt x="648" y="133" on="0"/>
        <pt x="747" y="174" on="0"/>
        <pt x="819" y="257" on="0"/>
        <pt x="858" y="384" on="0"/>
        <pt x="858" y="471" on="1"/>
        <pt x="858" y="541" on="0"/>
        <pt x="825" y="652" on="0"/>
        <pt x="759" y="730" on="0"/>
        <pt x="660" y="772" on="0"/>
        <pt x="594" y="772" on="1"/>
        <pt x="527" y="772" on="0"/>
        <pt x="416" y="725" on="0"/>
        <pt x="338" y="650" on="0"/>
        <pt x="295" y="554" on="0"/>
        <pt x="295" y="506" on="1"/>
        <pt x="295" y="439" on="0"/>
        <pt x="332" y="306" on="0"/>
        <pt x="405" y="200" on="0"/>
        <pt x="515" y="133" on="0"/>
      </contour>
    </TTGlyph>
    <TTGlyph name="slash" xMin="20" yMin="0" xMax="743" yMax="1462">
      <contour>
        <pt x="743" y="1462" on="1"/>
        <pt x="199" y="0" on="1"/>
        <pt x="20" y="0" on="1"/>
        <pt x="565" y="1462" on="1"/>
      </contour>
    </TTGlyph>
    <TTGlyph name="sterling" xMin="68" yMin="0" xMax="1059" yMax="1481">
      <contour>
        <pt x="666" y="1481" on="1"/>
        <pt x="772" y="1481" on="0"/>
        <pt x="946" y="1436" on="0"/>
        <pt x="1012" y="1401" on="1"/>
        <pt x="946" y="1257" on="1"/>
        <pt x="890" y="1286" on="0"/>
        <pt x="749" y="1329" on="0"/>
        <pt x="674" y="1329" on="1"/>
        <pt x="626" y="1329" on="0"/>
        <pt x="544" y="1302" on="0"/>
        <pt x="484" y="1243" on="0"/>
        <pt x="451" y="1149" on="0"/>
        <pt x="451" y="1083" on="1"/>
        <pt x="451" y="788" on="1"/>
        <pt x="827" y="788" on="1"/>
        <pt x="827" y="651" on="1"/>
        <pt x="451" y="651" on="1"/>
        <pt x="451" y="440" on="1"/>
        <pt x="451" y="378" on="0"/>
        <pt x="428" y="289" on="0"/>
        <pt x="389" y="225" on="0"/>
        <pt x="338" y="182" on="0"/>
        <pt x="311" y="166" on="1"/>
        <pt x="1059" y="166" on="1"/>
        <pt x="1059" y="0" on="1"/>
        <pt x="68" y="0" on="1"/>
        <pt x="68" y="154" on="1"/>
        <pt x="112" y="165" on="0"/>
        <pt x="185" y="206" on="0"/>
        <pt x="238" y="274" on="0"/>
        <pt x="268" y="371" on="0"/>
        <pt x="268" y="438" on="1"/>
        <pt x="268" y="651" on="1"/>
        <pt x="70" y="651" on="1"/>
        <pt x="70" y="788" on="1"/>
        <pt x="268" y="788" on="1"/>
        <pt x="268" y="1112" on="1"/>
        <pt x="268" y="1199" on="0"/>
        <pt x="327" y="1336" on="0"/>
        <pt x="432" y="1431" on="0"/>
        <pt x="578" y="1481" on="0"/>
      </contour>
    </TTGlyph>
    <TTGlyph name="t" xMin="33" yMin="-20" xMax="655" yMax="1350">
      <contour>
        <pt x="506" y="129" on="1"/>
        <pt x="524" y="129" on="0"/>
        <pt x="569" y="133" on="0"/>
        <pt x="611" y="139" on="0"/>
        <pt x="646" y="147" on="0"/>
        <pt x="655" y="150" on="1"/>
        <pt x="655" y="12" on="1"/>
        <pt x="642" y="6" on="0"/>
        <pt x="602" y="-6" on="0"/>
        <pt x="554" y="-15" on="0"/>
        <pt x="502" y="-20" on="0"/>
        <pt x="477" y="-20" on="1"/>
        <pt x="415" y="-20" on="0"/>
        <pt x="309" y="12" on="0"/>
        <pt x="232" y="90" on="0"/>
        <pt x="188" y="223" on="0"/>
        <pt x="188" y="324" on="1"/>
        <pt x="188" y="961" on="1"/>
        <pt x="33" y="961" on="1"/>
        <pt x="33" y="1042" on="1"/>
        <pt x="188" y="1120" on="1"/>
        <pt x="266" y="1350" on="1"/>
        <pt x="371" y="1350" on="1"/>
        <pt x="371" y="1098" on="1"/>
        <pt x="647" y="1098" on="1"/>
        <pt x="647" y="961" on="1"/>
        <pt x="371" y="961" on="1"/>
        <pt x="371" y="324" on="1"/>
        <pt x="371" y="227" on="0"/>
        <pt x="434" y="129" on="0"/>
      </contour>
    </TTGlyph>
    <TTGlyph name="thorn" xMin="174" yMin="-492" xMax="1087" yMax="1556">
      <contour>
        <pt x="356" y="950" on="1"/>
        <pt x="379" y="985" on="0"/>
        <pt x="437" y="1046" on="0"/>
        <pt x="514" y="1091" on="0"/>
        <pt x="610" y="1118" on="0"/>
        <pt x="670" y="1118" on="1"/>
        <pt x="764" y="1118" on="0"/>
        <pt x="918" y="1046" on="0"/>
        <pt x="1027" y="903" on="0"/>
        <pt x="1087" y="691" on="0"/>
        <pt x="1087" y="551" on="1"/>
        <pt x="1087" y="410" on="0"/>
        <pt x="1027" y="197" on="0"/>
        <pt x="918" y="53" on="0"/>
        <pt x="764" y="-20" on="0"/>
        <pt x="670" y="-20" on="1"/>
        <pt x="611" y="-20" on="0"/>
        <pt x="515" y="6" on="0"/>
        <pt x="438" y="49" on="0"/>
        <pt x="379" y="107" on="0"/>
        <pt x="356" y="139" on="1"/>
        <pt x="344" y="139" on="1"/>
        <pt x="347" y="105" on="0"/>
        <pt x="350" y="74" on="1"/>
        <pt x="352" y="48" on="0"/>
        <pt x="356" y="-7" on="0"/>
        <pt x="356" y="-23" on="1"/>
        <pt x="356" y="-492" on="1"/>
        <pt x="174" y="-492" on="1"/>
        <pt x="174" y="1556" on="1"/>
        <pt x="356" y="1556" on="1"/>
        <pt x="356" y="1098" on="1"/>
        <pt x="348" y="950" on="1"/>
      </contour>
      <contour>
        <pt x="635" y="967" on="1"/>
        <pt x="559" y="967" on="0"/>
        <pt x="454" y="921" on="0"/>
        <pt x="389" y="827" on="0"/>
        <pt x="358" y="687" on="0"/>
        <pt x="356" y="592" on="1"/>
        <pt x="356" y="551" on="1"/>
        <pt x="356" y="450" on="0"/>
        <pt x="383" y="293" on="0"/>
        <pt x="448" y="186" on="0"/>
        <pt x="556" y="131" on="0"/>
        <pt x="637" y="131" on="1"/>
        <pt x="772" y="131" on="0"/>
        <pt x="899" y="349" on="0"/>
        <pt x="899" y="553" on="1"/>
        <pt x="899" y="761" on="0"/>
        <pt x="772" y="967" on="0"/>
      </contour>
    </TTGlyph>
    <TTGlyph name="three" xMin="82" yMin="-20" xMax="1006" yMax="1483">
      <contour>
        <pt x="961" y="1120" on="1"/>
        <pt x="961" y="1047" on="0"/>
        <pt x="915" y="927" on="0"/>
        <pt x="832" y="839" on="0"/>
        <pt x="716" y="782" on="0"/>
        <pt x="645" y="770" on="1"/>
        <pt x="645" y="764" on="1"/>
        <pt x="822" y="742" on="0"/>
        <pt x="1006" y="561" on="0"/>
        <pt x="1006" y="416" on="1"/>
        <pt x="1006" y="320" on="0"/>
        <pt x="941" y="160" on="0"/>
        <pt x="809" y="44" on="0"/>
        <pt x="607" y="-20" on="0"/>
        <pt x="469" y="-20" on="1"/>
        <pt x="360" y="-20" on="0"/>
        <pt x="167" y="14" on="0"/>
        <pt x="82" y="59" on="1"/>
        <pt x="82" y="229" on="1"/>
        <pt x="169" y="183" on="0"/>
        <pt x="372" y="133" on="0"/>
        <pt x="465" y="133" on="1"/>
        <pt x="557" y="133" on="0"/>
        <pt x="691" y="173" on="0"/>
        <pt x="778" y="247" on="0"/>
        <pt x="819" y="355" on="0"/>
        <pt x="819" y="422" on="1"/>
        <pt x="819" y="490" on="0"/>
        <pt x="766" y="587" on="0"/>
        <pt x="668" y="650" on="0"/>
        <pt x="527" y="680" on="0"/>
        <pt x="438" y="680" on="1"/>
        <pt x="305" y="680" on="1"/>
        <pt x="305" y="831" on="1"/>
        <pt x="438" y="831" on="1"/>
        <pt x="519" y="831" on="0"/>
        <pt x="645" y="871" on="0"/>
        <pt x="730" y="945" on="0"/>
        <pt x="774" y="1047" on="0"/>
        <pt x="774" y="1108" on="1"/>
        <pt x="774" y="1160" on="0"/>
        <pt x="738" y="1242" on="0"/>
        <pt x="672" y="1299" on="0"/>
        <pt x="580" y="1329" on="0"/>
        <pt x="524" y="1329" on="1"/>
        <pt x="417" y="1329" on="0"/>
        <pt x="254" y="1262" on="0"/>
        <pt x="180" y="1208" on="1"/>
        <pt x="88" y="1333" on="1"/>
        <pt x="126" y="1364" on="0"/>
        <pt x="219" y="1418" on="0"/>
        <pt x="329" y="1459" on="0"/>
        <pt x="454" y="1483" on="0"/>
        <pt x="524" y="1483" on="1"/>
        <pt x="632" y="1483" on="0"/>
        <pt x="795" y="1429" on="0"/>
        <pt x="905" y="1332" on="0"/>
        <pt x="961" y="1199" on="0"/>
      </contour>
    </TTGlyph>
    <TTGlyph name="threequarters" xMin="31" yMin="0" xMax="1486" yMax="1481">
      <component glyphName="threesuperior" x="0" y="0" flags="0x1004"/>
      <component glyphName="fraction" x="680" y="0" flags="0x1004"/>
      <component glyphName="foursuperior" x="831" y="-585" flags="0x1004"/>
    </TTGlyph>
    <TTGlyph name="threesuperior" xMin="31" yMin="569" xMax="616" yMax="1481">
      <contour>
        <pt x="590" y="1255" on="1"/>
        <pt x="590" y="1177" on="0"/>
        <pt x="509" y="1071" on="0"/>
        <pt x="440" y="1047" on="1"/>
        <pt x="528" y="1024" on="0"/>
        <pt x="616" y="918" on="0"/>
        <pt x="616" y="840" on="1"/>
        <pt x="616" y="780" on="0"/>
        <pt x="576" y="680" on="0"/>
        <pt x="493" y="609" on="0"/>
        <pt x="367" y="569" on="0"/>
        <pt x="281" y="569" on="1"/>
        <pt x="211" y="569" on="0"/>
        <pt x="88" y="594" on="0"/>
        <pt x="31" y="625" on="1"/>
        <pt x="31" y="758" on="1"/>
        <pt x="94" y="724" on="0"/>
        <pt x="226" y="686" on="0"/>
        <pt x="279" y="686" on="1"/>
        <pt x="377" y="686" on="0"/>
        <pt x="465" y="769" on="0"/>
        <pt x="465" y="842" on="1"/>
        <pt x="465" y="916" on="0"/>
        <pt x="358" y="983" on="0"/>
        <pt x="262" y="983" on="1"/>
        <pt x="164" y="983" on="1"/>
        <pt x="164" y="1096" on="1"/>
        <pt x="262" y="1096" on="1"/>
        <pt x="354" y="1096" on="0"/>
        <pt x="438" y="1175" on="0"/>
        <pt x="438" y="1239" on="1"/>
        <pt x="438" y="1271" on="0"/>
        <pt x="418" y="1318" on="0"/>
        <pt x="383" y="1348" on="0"/>
        <pt x="336" y="1362" on="0"/>
        <pt x="309" y="1362" on="1"/>
        <pt x="250" y="1362" on="0"/>
        <pt x="153" y="1321" on="0"/>
        <pt x="102" y="1284" on="1"/>
        <pt x="33" y="1380" on="1"/>
        <pt x="62" y="1403" on="0"/>
        <pt x="123" y="1440" on="0"/>
        <pt x="191" y="1466" on="0"/>
        <pt x="267" y="1481" on="0"/>
        <pt x="311" y="1481" on="1"/>
        <pt x="380" y="1481" on="0"/>
        <pt x="485" y="1447" on="0"/>
        <pt x="555" y="1387" on="0"/>
        <pt x="590" y="1304" on="0"/>
      </contour>
    </TTGlyph>
    <TTGlyph name="tilde" xMin="258" yMin="1241" xMax="977" yMax="1507">
      <contour>
        <pt x="766" y="1243" on="1"/>
        <pt x="726" y="1243" on="0"/>
        <pt x="647" y="1278" on="0"/>
        <pt x="571" y="1321" on="0"/>
        <pt x="501" y="1356" on="0"/>
        <pt x="469" y="1356" on="1"/>
        <pt x="424" y="1356" on="0"/>
        <pt x="376" y="1303" on="0"/>
        <pt x="362" y="1241" on="1"/>
        <pt x="258" y="1241" on="1"/>
        <pt x="263" y="1301" on="0"/>
        <pt x="296" y="1399" on="0"/>
        <pt x="349" y="1468" on="0"/>
        <pt x="423" y="1505" on="0"/>
        <pt x="469" y="1505" on="1"/>
        <pt x="511" y="1505" on="0"/>
        <pt x="592" y="1470" on="0"/>
        <pt x="668" y="1428" on="0"/>
        <pt x="737" y="1393" on="0"/>
        <pt x="766" y="1393" on="1"/>
        <pt x="811" y="1393" on="0"/>
        <pt x="857" y="1445" on="0"/>
        <pt x="872" y="1507" on="1"/>
        <pt x="977" y="1507" on="1"/>
        <pt x="972" y="1447" on="0"/>
        <pt x="939" y="1350" on="0"/>
        <pt x="886" y="1281" on="0"/>
        <pt x="812" y="1243" on="0"/>
      </contour>
    </TTGlyph>
    <TTGlyph name="two" xMin="96" yMin="0" xMax="1008" yMax="1483">
      <contour>
        <pt x="1008" y="0" on="1"/>
        <pt x="96" y="0" on="1"/>
        <pt x="96" y="156" on="1"/>
        <pt x="446" y="537" on="1"/>
        <pt x="521" y="618" on="0"/>
        <pt x="639" y="752" on="0"/>
        <pt x="722" y="880" on="0"/>
        <pt x="766" y="1009" on="0"/>
        <pt x="766" y="1085" on="1"/>
        <pt x="766" y="1144" on="0"/>
        <pt x="732" y="1234" on="0"/>
        <pt x="669" y="1297" on="0"/>
        <pt x="583" y="1329" on="0"/>
        <pt x="530" y="1329" on="1"/>
        <pt x="435" y="1329" on="0"/>
        <pt x="282" y="1252" on="0"/>
        <pt x="213" y="1192" on="1"/>
        <pt x="111" y="1311" on="1"/>
        <pt x="151" y="1347" on="0"/>
        <pt x="243" y="1410" on="0"/>
        <pt x="349" y="1456" on="0"/>
        <pt x="467" y="1483" on="0"/>
        <pt x="532" y="1483" on="1"/>
        <pt x="628" y="1483" on="0"/>
        <pt x="783" y="1429" on="0"/>
        <pt x="891" y="1328" on="0"/>
        <pt x="950" y="1183" on="0"/>
        <pt x="950" y="1092" on="1"/>
        <pt x="950" y="1007" on="0"/>
        <pt x="897" y="853" on="0"/>
        <pt x="804" y="704" on="0"/>
        <pt x="675" y="554" on="0"/>
        <pt x="600" y="473" on="1"/>
        <pt x="319" y="174" on="1"/>
        <pt x="319" y="166" on="1"/>
        <pt x="1008" y="166" on="1"/>
      </contour>
    </TTGlyph>
    <TTGlyph name="twosuperior" xMin="49" yMin="586" xMax="621" yMax="1481">
      <contour>
        <pt x="621" y="586" on="1"/>
        <pt x="49" y="586" on="1"/>
        <pt x="49" y="698" on="1"/>
        <pt x="258" y="926" on="1"/>
        <pt x="315" y="988" on="0"/>
        <pt x="387" y="1073" on="0"/>
        <pt x="427" y="1140" on="0"/>
        <pt x="442" y="1199" on="0"/>
        <pt x="442" y="1233" on="1"/>
        <pt x="442" y="1298" on="0"/>
        <pt x="376" y="1362" on="0"/>
        <pt x="322" y="1362" on="1"/>
        <pt x="271" y="1362" on="0"/>
        <pt x="178" y="1312" on="0"/>
        <pt x="133" y="1274" on="1"/>
        <pt x="55" y="1368" on="1"/>
        <pt x="109" y="1416" on="0"/>
        <pt x="242" y="1481" on="0"/>
        <pt x="324" y="1481" on="1"/>
        <pt x="384" y="1481" on="0"/>
        <pt x="481" y="1448" on="0"/>
        <pt x="549" y="1385" on="0"/>
        <pt x="586" y="1294" on="0"/>
        <pt x="586" y="1237" on="1"/>
        <pt x="586" y="1187" on="0"/>
        <pt x="557" y="1101" on="0"/>
        <pt x="503" y="1016" on="0"/>
        <pt x="424" y="925" on="0"/>
        <pt x="373" y="870" on="1"/>
        <pt x="225" y="713" on="1"/>
        <pt x="621" y="713" on="1"/>
      </contour>
    </TTGlyph>
    <TTGlyph name="u" xMin="164" yMin="-20" xMax="1032" yMax="1098">
      <contour>
        <pt x="885" y="0" on="1"/>
        <pt x="858" y="147" on="1"/>
        <pt x="848" y="147" on="1"/>
        <pt x="823" y="104" on="0"/>
        <pt x="754" y="41" on="0"/>
        <pt x="672" y="0" on="0"/>
        <pt x="580" y="-20" on="0"/>
        <pt x="532" y="-20" on="1"/>
        <pt x="441" y="-20" on="0"/>
        <pt x="303" y="26" on="0"/>
        <pt x="211" y="124" on="0"/>
        <pt x="164" y="276" on="0"/>
        <pt x="164" y="381" on="1"/>
        <pt x="164" y="1098" on="1"/>
        <pt x="346" y="1098" on="1"/>
        <pt x="346" y="391" on="1"/>
        <pt x="346" y="261" on="0"/>
        <pt x="452" y="131" on="0"/>
        <pt x="563" y="131" on="1"/>
        <pt x="644" y="131" on="0"/>
        <pt x="754" y="183" on="0"/>
        <pt x="821" y="284" on="0"/>
        <pt x="850" y="432" on="0"/>
        <pt x="850" y="528" on="1"/>
        <pt x="850" y="1098" on="1"/>
        <pt x="1032" y="1098" on="1"/>
        <pt x="1032" y="0" on="1"/>
      </contour>
    </TTGlyph>
    <TTGlyph name="uacute" xMin="164" yMin="-20" xMax="1032" yMax="1569">
      <component glyphName="u" x="0" y="0" flags="0x1204"/>
      <component glyphName="acute" x="96" y="0" flags="0x1004"/>
    </TTGlyph>
    <TTGlyph name="ucircumflex" xMin="164" yMin="-20" xMax="1032" yMax="1569">
      <component glyphName="u" x="0" y="0" flags="0x1204"/>
      <component glyphName="circumflex" x="8" y="0" flags="0x1004"/>
    </TTGlyph>
    <TTGlyph name="udieresis" xMin="164" yMin="-20" xMax="1032" yMax="1497">
      <component glyphName="u" x="0" y="0" flags="0x1204"/>
      <component glyphName="dieresis" x="2" y="0" flags="0x1004"/>
    </TTGlyph>
    <TTGlyph name="ugrave" xMin="164" yMin="-20" xMax="1032" yMax="1569">
      <component glyphName="u" x="0" y="0" flags="0x1204"/>
      <component glyphName="grave" x="-93" y="0" flags="0x1004"/>
    </TTGlyph>
    <TTGlyph name="underscore" xMin="-4" yMin="-324" xMax="846" yMax="-184">
      <contour>
        <pt x="846" y="-324" on="1"/>
        <pt x="-4" y="-324" on="1"/>
        <pt x="-4" y="-184" on="1"/>
        <pt x="846" y="-184" on="1"/>
      </contour>
    </TTGlyph>
    <TTGlyph name="uni00AD" xMin="82" yMin="465" xMax="578" yMax="633">
      <component glyphName="hyphen" x="0" y="0" flags="0x1204"/>
    </TTGlyph>
    <TTGlyph name="v" xMin="0" yMin="0" xMax="981" yMax="1098">
      <contour>
        <pt x="375" y="0" on="1"/>
        <pt x="0" y="1098" on="1"/>
        <pt x="188" y="1098" on="1"/>
        <pt x="387" y="487" on="1"/>
        <pt x="398" y="454" on="0"/>
        <pt x="428" y="350" on="0"/>
        <pt x="458" y="242" on="0"/>
        <pt x="483" y="146" on="0"/>
        <pt x="487" y="121" on="1"/>
        <pt x="494" y="121" on="1"/>
        <pt x="499" y="146" on="0"/>
        <pt x="523" y="242" on="0"/>
        <pt x="553" y="350" on="0"/>
        <pt x="583" y="454" on="0"/>
        <pt x="594" y="487" on="1"/>
        <pt x="793" y="1098" on="1"/>
        <pt x="981" y="1098" on="1"/>
        <pt x="606" y="0" on="1"/>
      </contour>
    </TTGlyph>
    <TTGlyph name="w" xMin="20" yMin="0" xMax="1507" yMax="1098">
      <contour>
        <pt x="1008" y="0" on="1"/>
        <pt x="840" y="616" on="1"/>
        <pt x="836" y="634" on="0"/>
        <pt x="824" y="679" on="0"/>
        <pt x="812" y="729" on="0"/>
        <pt x="799" y="781" on="0"/>
        <pt x="793" y="806" on="1"/>
        <pt x="779" y="864" on="0"/>
        <pt x="764" y="926" on="1"/>
        <pt x="758" y="926" on="1"/>
        <pt x="744" y="863" on="0"/>
        <pt x="731" y="805" on="1"/>
        <pt x="720" y="755" on="0"/>
        <pt x="695" y="649" on="0"/>
        <pt x="684" y="612" on="1"/>
        <pt x="512" y="0" on="1"/>
        <pt x="301" y="0" on="1"/>
        <pt x="20" y="1098" on="1"/>
        <pt x="211" y="1098" on="1"/>
        <pt x="342" y="514" on="1"/>
        <pt x="352" y="469" on="0"/>
        <pt x="372" y="364" on="0"/>
        <pt x="390" y="261" on="0"/>
        <pt x="404" y="170" on="0"/>
        <pt x="408" y="141" on="1"/>
        <pt x="414" y="141" on="1"/>
        <pt x="419" y="167" on="0"/>
        <pt x="436" y="254" on="0"/>
        <pt x="457" y="351" on="0"/>
        <pt x="479" y="446" on="0"/>
        <pt x="489" y="479" on="1"/>
        <pt x="668" y="1098" on="1"/>
        <pt x="864" y="1098" on="1"/>
        <pt x="1036" y="479" on="1"/>
        <pt x="1045" y="445" on="0"/>
        <pt x="1068" y="353" on="0"/>
        <pt x="1090" y="258" on="0"/>
        <pt x="1108" y="170" on="0"/>
        <pt x="1112" y="141" on="1"/>
        <pt x="1118" y="141" on="1"/>
        <pt x="1121" y="167" on="0"/>
        <pt x="1134" y="254" on="0"/>
        <pt x="1152" y="358" on="0"/>
        <pt x="1173" y="467" on="0"/>
        <pt x="1184" y="514" on="1"/>
        <pt x="1321" y="1098" on="1"/>
        <pt x="1507" y="1098" on="1"/>
        <pt x="1223" y="0" on="1"/>
      </contour>
    </TTGlyph>
    <TTGlyph name="x" xMin="35" yMin="0" xMax="987" yMax="1098">
      <contour>
        <pt x="408" y="563" on="1"/>
        <pt x="55" y="1098" on="1"/>
        <pt x="262" y="1098" on="1"/>
        <pt x="512" y="688" on="1"/>
        <pt x="762" y="1098" on="1"/>
        <pt x="969" y="1098" on="1"/>
        <pt x="614" y="563" on="1"/>
        <pt x="987" y="0" on="1"/>
        <pt x="780" y="0" on="1"/>
        <pt x="512" y="436" on="1"/>
        <pt x="242" y="0" on="1"/>
        <pt x="35" y="0" on="1"/>
      </contour>
    </TTGlyph>
    <TTGlyph name="y" xMin="10" yMin="-492" xMax="991" yMax="1098">
      <contour>
        <pt x="10" y="1098" on="1"/>
        <pt x="199" y="1098" on="1"/>
        <pt x="414" y="485" on="1"/>
        <pt x="428" y="445" on="0"/>
        <pt x="457" y="357" on="0"/>
        <pt x="482" y="269" on="0"/>
        <pt x="500" y="187" on="0"/>
        <pt x="504" y="152" on="1"/>
        <pt x="510" y="152" on="1"/>
        <pt x="515" y="177" on="0"/>
        <pt x="537" y="263" on="0"/>
        <pt x="564" y="360" on="0"/>
        <pt x="593" y="454" on="0"/>
        <pt x="604" y="487" on="1"/>
        <pt x="803" y="1098" on="1"/>
        <pt x="991" y="1098" on="1"/>
        <pt x="557" y="-143" on="1"/>
        <pt x="529" y="-224" on="0"/>
        <pt x="464" y="-353" on="0"/>
        <pt x="378" y="-443" on="0"/>
        <pt x="262" y="-492" on="0"/>
        <pt x="182" y="-492" on="1"/>
        <pt x="130" y="-492" on="0"/>
        <pt x="54" y="-481" on="0"/>
        <pt x="27" y="-475" on="1"/>
        <pt x="27" y="-330" on="1"/>
        <pt x="48" y="-335" on="0"/>
        <pt x="112" y="-342" on="0"/>
        <pt x="147" y="-342" on="1"/>
        <pt x="195" y="-342" on="0"/>
        <pt x="265" y="-319" on="0"/>
        <pt x="317" y="-275" on="0"/>
        <pt x="354" y="-211" on="0"/>
        <pt x="369" y="-170" on="1"/>
        <pt x="426" y="-10" on="1"/>
      </contour>
    </TTGlyph>
    <TTGlyph name="yacute" xMin="10" yMin="-492" xMax="991" yMax="1569">
      <component glyphName="y" x="0" y="0" flags="0x1204"/>
      <component glyphName="acute" x="14" y="0" flags="0x1004"/>
    </TTGlyph>
    <TTGlyph name="ydieresis" xMin="10" yMin="-492" xMax="991" yMax="1497">
      <component glyphName="y" x="0" y="0" flags="0x1204"/>
      <component glyphName="dieresis" x="-79" y="0" flags="0x1004"/>
    </TTGlyph>
    <TTGlyph name="yen" xMin="29" yMin="0" xMax="1100" yMax="1462">
      <contour>
        <pt x="563" y="723" on="1"/>
        <pt x="909" y="1462" on="1"/>
        <pt x="1100" y="1462" on="1"/>
        <pt x="715" y="694" on="1"/>
        <pt x="954" y="694" on="1"/>
        <pt x="954" y="557" on="1"/>
        <pt x="653" y="557" on="1"/>
        <pt x="653" y="399" on="1"/>
        <pt x="954" y="399" on="1"/>
        <pt x="954" y="262" on="1"/>
        <pt x="653" y="262" on="1"/>
        <pt x="653" y="0" on="1"/>
        <pt x="475" y="0" on="1"/>
        <pt x="475" y="262" on="1"/>
        <pt x="174" y="262" on="1"/>
        <pt x="174" y="399" on="1"/>
        <pt x="475" y="399" on="1"/>
        <pt x="475" y="557" on="1"/>
        <pt x="174" y="557" on="1"/>
        <pt x="174" y="694" on="1"/>
        <pt x="408" y="694" on="1"/>
        <pt x="29" y="1462" on="1"/>
        <pt x="221" y="1462" on="1"/>
      </contour>
    </TTGlyph>
    <TTGlyph name="z" xMin="82" yMin="0" xMax="821" yMax="1098">
      <contour>
        <pt x="821" y="0" on="1"/>
        <pt x="82" y="0" on="1"/>
        <pt x="82" y="125" on="1"/>
        <pt x="618" y="961" on="1"/>
        <pt x="115" y="961" on="1"/>
        <pt x="115" y="1098" on="1"/>
        <pt x="803" y="1098" on="1"/>
        <pt x="803" y="952" on="1"/>
        <pt x="279" y="137" on="1"/>
        <pt x="821" y="137" on="1"/>
      </contour>
    </TTGlyph>
    <TTGlyph name="zero" xMin="98" yMin="-20" xMax="1032" yMax="1485">
      <contour>
        <pt x="1032" y="733" on="1"/>
        <pt x="1032" y="556" on="0"/>
        <pt x="981" y="276" on="0"/>
        <pt x="868" y="82" on="0"/>
        <pt x="690" y="-20" on="0"/>
        <pt x="563" y="-20" on="1"/>
        <pt x="445" y="-20" on="0"/>
        <pt x="270" y="82" on="0"/>
        <pt x="155" y="276" on="0"/>
        <pt x="98" y="556" on="0"/>
        <pt x="98" y="733" on="1"/>
        <pt x="98" y="910" on="0"/>
        <pt x="149" y="1190" on="0"/>
        <pt x="260" y="1383" on="0"/>
        <pt x="437" y="1485" on="0"/>
        <pt x="563" y="1485" on="1"/>
        <pt x="682" y="1485" on="0"/>
        <pt x="858" y="1384" on="0"/>
        <pt x="974" y="1191" on="0"/>
        <pt x="1032" y="911" on="0"/>
      </contour>
      <contour>
        <pt x="283" y="733" on="1"/>
        <pt x="283" y="583" on="0"/>
        <pt x="313" y="359" on="0"/>
        <pt x="379" y="210" on="0"/>
        <pt x="486" y="135" on="0"/>
        <pt x="563" y="135" on="1"/>
        <pt x="640" y="135" on="0"/>
        <pt x="748" y="209" on="0"/>
        <pt x="817" y="357" on="0"/>
        <pt x="848" y="582" on="0"/>
        <pt x="848" y="733" on="1"/>
        <pt x="848" y="883" on="0"/>
        <pt x="817" y="1107" on="0"/>
        <pt x="748" y="1255" on="0"/>
        <pt x="640" y="1329" on="0"/>
        <pt x="563" y="1329" on="1"/>
        <pt x="486" y="1329" on="0"/>
        <pt x="379" y="1255" on="0"/>
        <pt x="313" y="1107" on="0"/>
        <pt x="283" y="883" on="0"/>
      </contour>
    </TTGlyph>
</ttFont>
